<?xml version="1.0" encoding="utf-8"?>
<!-- Generator: Adobe Illustrator 18.1.0, SVG Export Plug-In . SVG Version: 6.00 Build 0)  -->
<!DOCTYPE svg PUBLIC "-//W3C//DTD SVG 1.1//EN" "http://www.w3.org/Graphics/SVG/1.1/DTD/svg11.dtd">
<svg version="1.1" id="Layer_1" xmlns="http://www.w3.org/2000/svg" xmlns:xlink="http://www.w3.org/1999/xlink" x="0px" y="0px"
	 viewBox="0 0 1920 1080" enable-background="new 0 0 1920 1080" xml:space="preserve">
<g>
	<g>
		<defs>
			<rect id="SVGID_1_" x="194.5" width="1529.2" height="1080"/>
		</defs>
		<clipPath id="SVGID_2_">
			<use xlink:href="#SVGID_1_"  overflow="visible"/>
		</clipPath>
		<rect x="178.1" y="-23.6" clip-path="url(#SVGID_2_)" fill="#404040" width="1571.2" height="1128.5"/>
	</g>
	<g>
		<defs>
			<rect id="SVGID_3_" x="194.5" width="1529.2" height="1080"/>
		</defs>
		<clipPath id="SVGID_4_">
			<use xlink:href="#SVGID_3_"  overflow="visible"/>
		</clipPath>
	</g>
	<g>
		<defs>
			<rect id="SVGID_5_" x="194.5" width="1529.2" height="1080"/>
		</defs>
		<clipPath id="SVGID_6_">
			<use xlink:href="#SVGID_5_"  overflow="visible"/>
		</clipPath>
	</g>
	<g>
		<defs>
			<rect id="SVGID_7_" x="194.5" width="1529.2" height="1080"/>
		</defs>
		<clipPath id="SVGID_8_">
			<use xlink:href="#SVGID_7_"  overflow="visible"/>
		</clipPath>
		<g clip-path="url(#SVGID_8_)">
			<g>
				<path fill="#FFFFFF" d="M1206.8,141.7c-0.1,0-0.1,0-0.2,0.1l0.4,0C1206.9,141.7,1206.8,141.7,1206.8,141.7z"/>
				<path fill="#FFFFFF" d="M1237.3,154.9c-0.2-0.1-0.5-0.2-0.7-0.1c-1,0.4-1.9,0.8-2.8,1.3c-10,5.9-12.2,21.9-5.3,38
					c3.7,8.6,9.5,16.3,16.4,21.7c6.9,5.4,14.3,7.9,20.8,7c0.1,0,0.2,0,0.3-0.1c0.2-0.1,0.3-0.4,0.3-0.6c0-0.4-0.3-0.8-0.7-1
					c-6.1-3.2-12.4-11-16.4-20.4c-4-9.3-4.9-18.3-2.4-23.6c0.1-0.2,0.1-0.5,0-0.7l-8.9-20.9C1237.7,155.2,1237.5,155,1237.3,154.9z"
					/>
				<path fill="#FFFFFF" d="M1238.9,153.4c-0.1-0.3-0.1-0.5,0-0.7c0.4-0.9,1-1.8,1.6-2.7c6.9-9.3,23-10,38.3-1.6
					c8.2,4.5,15.3,11.1,19.9,18.5c4.6,7.4,6.4,15,5,21.4c0,0.1-0.1,0.2-0.1,0.3c-0.1,0.2-0.4,0.3-0.7,0.3c-0.4-0.1-0.8-0.4-0.9-0.8
					c-2.6-6.4-9.7-13.4-18.7-18.3c-8.9-4.9-17.8-6.7-23.2-4.7c-0.2,0.1-0.5,0-0.7-0.1l-19.9-10.9
					C1239.2,153.9,1239,153.7,1238.9,153.4z"/>
				<g>
					<path fill="#77C0B2" d="M1254.2,194.7l22.6-20.5c-1-1.7-2.1-3.3-3.3-5l-24,21.7C1251.1,192.2,1252.6,193.5,1254.2,194.7z"/>
					<path fill="#77C0B2" d="M1186.5,97.2c-0.3,0.3-0.4,0.8-0.1,1.1l10.8,14.1c-1.3,4,0,11.9,3.7,21.5l20.6-18.7
						c-9.1-4.6-16.8-6.7-20.9-5.9l-13-12.2C1187.4,96.9,1186.9,96.9,1186.5,97.2z"/>
					<path fill="#F6921E" d="M1224.6,171.4c7.2,8,14.8,14.9,21.9,20.4l28.1-25.5c-4.7-7.7-10.9-15.8-18.1-23.9
						c-10.7-11.9-22.8-20.7-33.1-26.2l-21.7,19.6C1206.3,146.8,1213.9,159.6,1224.6,171.4z"/>
				</g>
				<circle fill="#FFFFFF" cx="1220.5" cy="134.7" r="5.5"/>
				<circle fill="#FFFFFF" cx="1230.1" cy="145.3" r="5.5"/>
				<g>
					<path fill="#FFFFFF" d="M1257.1,194.3c0,0,3,7.5,17,10.7c0,0-0.6-13.1-8.5-18.4L1257.1,194.3z"/>
					<path fill="#F6921E" d="M1258.7,192.9c0,0,1.9,4.7,10.7,6.7c0,0-0.4-8.2-5.3-11.5L1258.7,192.9z"/>
				</g>
				<g>
					<path fill="#FFFFFF" d="M1267.7,184.7c0,0,3,7.5,17,10.7c0,0-0.6-13.1-8.5-18.4L1267.7,184.7z"/>
					<path fill="#F6921E" d="M1269.3,183.3c0,0,1.9,4.7,10.7,6.7c0,0-0.4-8.2-5.3-11.5L1269.3,183.3z"/>
				</g>
				
					<ellipse transform="matrix(0.6711 0.7413 -0.7413 0.6711 547.1505 -875.6492)" fill="#FFFFFF" cx="1260.5" cy="178.9" rx="35.4" ry="2.2"/>
			</g>
		</g>
	</g>
	<g>
		<defs>
			<rect id="SVGID_9_" x="194.5" width="1529.2" height="1080"/>
		</defs>
		<clipPath id="SVGID_10_">
			<use xlink:href="#SVGID_9_"  overflow="visible"/>
		</clipPath>
		<path clip-path="url(#SVGID_10_)" fill="#77C0B2" d="M1291.6,210.6c64.8,70.9,103.6,160.7,103.6,258.4
			c0,229.5-213.7,415.5-477.2,415.5c-215.2,0-397.2-124-456.7-294.5c29.2,217.2,241.3,385.8,498.6,385.8
			c277.3,0,502.1-195.7,502.1-437.1C1462,408,1396.1,290.7,1291.6,210.6z"/>
	</g>
	<g>
		<defs>
			<rect id="SVGID_11_" x="194.5" width="1529.2" height="1080"/>
		</defs>
		<clipPath id="SVGID_12_">
			<use xlink:href="#SVGID_11_"  overflow="visible"/>
		</clipPath>
		<circle clip-path="url(#SVGID_12_)" fill="#FFFFFF" cx="1125.4" cy="195.7" r="2.1"/>
	</g>
	<g>
		<defs>
			<rect id="SVGID_13_" x="194.5" width="1529.2" height="1080"/>
		</defs>
		<clipPath id="SVGID_14_">
			<use xlink:href="#SVGID_13_"  overflow="visible"/>
		</clipPath>
		<g clip-path="url(#SVGID_14_)">
			<circle fill="#FFFFFF" cx="944" cy="87.1" r="2.1"/>
			<path fill="#FFFFFF" d="M944,91c-2.1,0-3.9-1.7-3.9-3.9c0-2.1,1.7-3.9,3.9-3.9c2.1,0,3.9,1.7,3.9,3.9C947.9,89.2,946.1,91,944,91
				z M944,86.8c-0.1,0-0.2,0.1-0.2,0.2c0,0.3,0.5,0.3,0.5,0C944.3,87,944.1,86.8,944,86.8z"/>
		</g>
	</g>
	<g>
		<defs>
			<rect id="SVGID_15_" x="194.5" width="1529.2" height="1080"/>
		</defs>
		<clipPath id="SVGID_16_">
			<use xlink:href="#SVGID_15_"  overflow="visible"/>
		</clipPath>
		<circle clip-path="url(#SVGID_16_)" fill="#FFFFFF" cx="423.1" cy="116.3" r="2.1"/>
	</g>
	<g>
		<defs>
			<rect id="SVGID_17_" x="194.5" width="1529.2" height="1080"/>
		</defs>
		<clipPath id="SVGID_18_">
			<use xlink:href="#SVGID_17_"  overflow="visible"/>
		</clipPath>
		<g clip-path="url(#SVGID_18_)">
			<circle fill="#FFFFFF" cx="405.2" cy="260.8" r="2.1"/>
			<path fill="#FFFFFF" d="M405.2,264.6c-2.1,0-3.9-1.7-3.9-3.9s1.7-3.9,3.9-3.9c2.1,0,3.9,1.7,3.9,3.9S407.3,264.6,405.2,264.6z
				 M405.2,260.5c-0.1,0-0.2,0.1-0.2,0.2c0,0.3,0.5,0.3,0.5,0C405.4,260.6,405.3,260.5,405.2,260.5z"/>
		</g>
	</g>
	<g>
		<defs>
			<rect id="SVGID_19_" x="194.5" width="1529.2" height="1080"/>
		</defs>
		<clipPath id="SVGID_20_">
			<use xlink:href="#SVGID_19_"  overflow="visible"/>
		</clipPath>
		<circle clip-path="url(#SVGID_20_)" fill="#FFFFFF" cx="488.1" cy="173" r="2.1"/>
	</g>
	<g>
		<defs>
			<rect id="SVGID_21_" x="194.5" width="1529.2" height="1080"/>
		</defs>
		<clipPath id="SVGID_22_">
			<use xlink:href="#SVGID_21_"  overflow="visible"/>
		</clipPath>
		<circle clip-path="url(#SVGID_22_)" fill="#FFFFFF" cx="854.9" cy="268.5" r="2.1"/>
	</g>
	<g>
		<defs>
			<rect id="SVGID_23_" x="194.5" width="1529.2" height="1080"/>
		</defs>
		<clipPath id="SVGID_24_">
			<use xlink:href="#SVGID_23_"  overflow="visible"/>
		</clipPath>
		<circle clip-path="url(#SVGID_24_)" fill="#FFFFFF" cx="961.6" cy="310" r="2.1"/>
	</g>
	<g>
		<defs>
			<rect id="SVGID_25_" x="194.5" width="1529.2" height="1080"/>
		</defs>
		<clipPath id="SVGID_26_">
			<use xlink:href="#SVGID_25_"  overflow="visible"/>
		</clipPath>
		<circle clip-path="url(#SVGID_26_)" fill="#FFFFFF" cx="818.8" cy="724.7" r="2.1"/>
	</g>
	<g>
		<defs>
			<rect id="SVGID_27_" x="194.5" width="1529.2" height="1080"/>
		</defs>
		<clipPath id="SVGID_28_">
			<use xlink:href="#SVGID_27_"  overflow="visible"/>
		</clipPath>
		<circle clip-path="url(#SVGID_28_)" fill="#FFFFFF" cx="785.9" cy="687.6" r="2.1"/>
	</g>
	<g>
		<defs>
			<rect id="SVGID_29_" x="194.5" width="1529.2" height="1080"/>
		</defs>
		<clipPath id="SVGID_30_">
			<use xlink:href="#SVGID_29_"  overflow="visible"/>
		</clipPath>
		<circle clip-path="url(#SVGID_30_)" fill="#FFFFFF" cx="304.4" cy="464.6" r="2.1"/>
	</g>
	<g>
		<defs>
			<rect id="SVGID_31_" x="194.5" width="1529.2" height="1080"/>
		</defs>
		<clipPath id="SVGID_32_">
			<use xlink:href="#SVGID_31_"  overflow="visible"/>
		</clipPath>
		<circle clip-path="url(#SVGID_32_)" fill="#FFFFFF" cx="503.1" cy="857.6" r="2.1"/>
	</g>
	<g>
		<defs>
			<rect id="SVGID_33_" x="194.5" width="1529.2" height="1080"/>
		</defs>
		<clipPath id="SVGID_34_">
			<use xlink:href="#SVGID_33_"  overflow="visible"/>
		</clipPath>
		<g clip-path="url(#SVGID_34_)">
			<circle fill="#FFFFFF" cx="447.1" cy="886.4" r="2.1"/>
			<path fill="#FFFFFF" d="M447.1,890.3c-2.1,0-3.9-1.7-3.9-3.9c0-2.1,1.7-3.9,3.9-3.9s3.9,1.7,3.9,3.9
				C451,888.6,449.2,890.3,447.1,890.3z M447.1,886.2c-0.1,0-0.2,0.1-0.2,0.2c0,0.3,0.5,0.3,0.5,0
				C447.3,886.3,447.2,886.2,447.1,886.2z"/>
		</g>
	</g>
	<g>
		<defs>
			<rect id="SVGID_35_" x="194.5" width="1529.2" height="1080"/>
		</defs>
		<clipPath id="SVGID_36_">
			<use xlink:href="#SVGID_35_"  overflow="visible"/>
		</clipPath>
		<circle clip-path="url(#SVGID_36_)" fill="#FFFFFF" cx="401.3" cy="777.6" r="2.1"/>
	</g>
	<g>
		<defs>
			<rect id="SVGID_37_" x="194.5" width="1529.2" height="1080"/>
		</defs>
		<clipPath id="SVGID_38_">
			<use xlink:href="#SVGID_37_"  overflow="visible"/>
		</clipPath>
		<circle clip-path="url(#SVGID_38_)" fill="#FFFFFF" cx="296.7" cy="968.1" r="2.1"/>
	</g>
	<g>
		<defs>
			<rect id="SVGID_39_" x="194.5" width="1529.2" height="1080"/>
		</defs>
		<clipPath id="SVGID_40_">
			<use xlink:href="#SVGID_39_"  overflow="visible"/>
		</clipPath>
		<circle clip-path="url(#SVGID_40_)" fill="#FFFFFF" cx="573.8" cy="416.8" r="2.1"/>
	</g>
	<g>
		<defs>
			<rect id="SVGID_41_" x="194.5" width="1529.2" height="1080"/>
		</defs>
		<clipPath id="SVGID_42_">
			<use xlink:href="#SVGID_41_"  overflow="visible"/>
		</clipPath>
		<circle clip-path="url(#SVGID_42_)" fill="#FFFFFF" cx="675.7" cy="1033.4" r="2.1"/>
	</g>
	<g>
		<defs>
			<rect id="SVGID_43_" x="194.5" width="1529.2" height="1080"/>
		</defs>
		<clipPath id="SVGID_44_">
			<use xlink:href="#SVGID_43_"  overflow="visible"/>
		</clipPath>
		<circle clip-path="url(#SVGID_44_)" fill="#FFFFFF" cx="211.9" cy="19.5" r="2.1"/>
	</g>
	<g>
		<defs>
			<rect id="SVGID_45_" x="194.5" width="1529.2" height="1080"/>
		</defs>
		<clipPath id="SVGID_46_">
			<use xlink:href="#SVGID_45_"  overflow="visible"/>
		</clipPath>
		<g clip-path="url(#SVGID_46_)">
			<circle fill="#FFFFFF" cx="1085.4" cy="717" r="2.1"/>
			<path fill="#FFFFFF" d="M1085.4,720.8c-2.1,0-3.9-1.7-3.9-3.9s1.7-3.9,3.9-3.9s3.9,1.7,3.9,3.9S1087.6,720.8,1085.4,720.8z
				 M1085.4,716.7c-0.1,0-0.2,0.1-0.2,0.2c0,0.3,0.5,0.3,0.5,0C1085.7,716.8,1085.6,716.7,1085.4,716.7z"/>
		</g>
	</g>
	<g>
		<defs>
			<rect id="SVGID_47_" x="194.5" width="1529.2" height="1080"/>
		</defs>
		<clipPath id="SVGID_48_">
			<use xlink:href="#SVGID_47_"  overflow="visible"/>
		</clipPath>
		<circle clip-path="url(#SVGID_48_)" fill="#FFFFFF" cx="1230.1" cy="1037.2" r="2.1"/>
	</g>
	<g>
		<defs>
			<rect id="SVGID_49_" x="194.5" width="1529.2" height="1080"/>
		</defs>
		<clipPath id="SVGID_50_">
			<use xlink:href="#SVGID_49_"  overflow="visible"/>
		</clipPath>
		<circle clip-path="url(#SVGID_50_)" fill="#FFFFFF" cx="1182.4" cy="1011.6" r="2.1"/>
	</g>
	<g>
		<defs>
			<rect id="SVGID_51_" x="194.5" width="1529.2" height="1080"/>
		</defs>
		<clipPath id="SVGID_52_">
			<use xlink:href="#SVGID_51_"  overflow="visible"/>
		</clipPath>
		<g clip-path="url(#SVGID_52_)">
			<circle fill="#FFFFFF" cx="1447.4" cy="949" r="2.1"/>
			<path fill="#FFFFFF" d="M1447.4,952.9c-2.1,0-3.9-1.7-3.9-3.9c0-2.1,1.7-3.9,3.9-3.9s3.9,1.7,3.9,3.9
				C1451.2,951.1,1449.5,952.9,1447.4,952.9z M1447.4,948.8c-0.1,0-0.2,0.1-0.2,0.2c0,0.3,0.5,0.3,0.5,0
				C1447.6,948.9,1447.5,948.8,1447.4,948.8z"/>
		</g>
	</g>
	<g>
		<defs>
			<rect id="SVGID_53_" x="194.5" width="1529.2" height="1080"/>
		</defs>
		<clipPath id="SVGID_54_">
			<use xlink:href="#SVGID_53_"  overflow="visible"/>
		</clipPath>
		<circle clip-path="url(#SVGID_54_)" fill="#FFFFFF" cx="1629.7" cy="871.7" r="2.1"/>
	</g>
	<g>
		<defs>
			<rect id="SVGID_55_" x="194.5" width="1529.2" height="1080"/>
		</defs>
		<clipPath id="SVGID_56_">
			<use xlink:href="#SVGID_55_"  overflow="visible"/>
		</clipPath>
		<circle clip-path="url(#SVGID_56_)" fill="#FFFFFF" cx="1512.7" cy="803.6" r="2.1"/>
	</g>
	<g>
		<defs>
			<rect id="SVGID_57_" x="194.5" width="1529.2" height="1080"/>
		</defs>
		<clipPath id="SVGID_58_">
			<use xlink:href="#SVGID_57_"  overflow="visible"/>
		</clipPath>
		<g clip-path="url(#SVGID_58_)">
			<circle fill="#FFFFFF" cx="1613.4" cy="581.6" r="2.1"/>
			<path fill="#FFFFFF" d="M1613.4,585.5c-2.1,0-3.9-1.7-3.9-3.9s1.7-3.9,3.9-3.9s3.9,1.7,3.9,3.9S1615.5,585.5,1613.4,585.5z
				 M1613.4,581.4c-0.1,0-0.2,0.1-0.2,0.2c0,0.3,0.5,0.3,0.5,0C1613.6,581.5,1613.5,581.4,1613.4,581.4z"/>
		</g>
	</g>
	<g>
		<defs>
			<rect id="SVGID_59_" x="194.5" width="1529.2" height="1080"/>
		</defs>
		<clipPath id="SVGID_60_">
			<use xlink:href="#SVGID_59_"  overflow="visible"/>
		</clipPath>
		<circle clip-path="url(#SVGID_60_)" fill="#FFFFFF" cx="1644.5" cy="366.7" r="2.1"/>
	</g>
	<g>
		<defs>
			<rect id="SVGID_61_" x="194.5" width="1529.2" height="1080"/>
		</defs>
		<clipPath id="SVGID_62_">
			<use xlink:href="#SVGID_61_"  overflow="visible"/>
		</clipPath>
		<circle clip-path="url(#SVGID_62_)" fill="#FFFFFF" cx="1485.5" cy="150.8" r="2.1"/>
	</g>
	<g>
		<defs>
			<rect id="SVGID_63_" x="194.5" width="1529.2" height="1080"/>
		</defs>
		<clipPath id="SVGID_64_">
			<use xlink:href="#SVGID_63_"  overflow="visible"/>
		</clipPath>
		<g clip-path="url(#SVGID_64_)">
			<circle fill="#FFFFFF" cx="1526.3" cy="165.7" r="2.1"/>
			<path fill="#FFFFFF" d="M1526.3,169.6c-2.1,0-3.9-1.7-3.9-3.9c0-2.1,1.7-3.9,3.9-3.9s3.9,1.7,3.9,3.9
				C1530.2,167.9,1528.4,169.6,1526.3,169.6z M1526.3,165.5c-0.1,0-0.2,0.1-0.2,0.2c0,0.3,0.5,0.3,0.5,0
				C1526.5,165.6,1526.4,165.5,1526.3,165.5z"/>
		</g>
	</g>
	<g>
		<defs>
			<rect id="SVGID_65_" x="194.5" width="1529.2" height="1080"/>
		</defs>
		<clipPath id="SVGID_66_">
			<use xlink:href="#SVGID_65_"  overflow="visible"/>
		</clipPath>
		<circle clip-path="url(#SVGID_66_)" fill="#FFFFFF" cx="1481.6" cy="239.9" r="2.1"/>
	</g>
</g>
</svg>
