<?xml version="1.0" encoding="utf-8"?>
<!-- Generator: Adobe Illustrator 23.0.6, SVG Export Plug-In . SVG Version: 6.00 Build 0)  -->
<svg version="1.1" id="Layer_1" xmlns="http://www.w3.org/2000/svg" xmlns:xlink="http://www.w3.org/1999/xlink" x="0px" y="0px"
	 viewBox="0 0 502.82 187.09" style="enable-background:new 0 0 502.82 187.09;" xml:space="preserve">
<style type="text/css">
	.st0{fill:#F5911E;}
	.st1{fill:#21C5C9;}
	.st2{fill:#2F3E79;}
	.st3{fill:#404040;}
	.st4{fill:#E5E6E7;}
	.st5{fill:#212121;}
	.st6{fill:#FFFFFF;}
	.st7{fill:#666666;}
	.st8{fill:none;stroke:#404040;stroke-width:1.733;stroke-linecap:round;stroke-linejoin:round;stroke-miterlimit:10;}
	.st9{fill:#603813;}
	.st10{fill:#E4790E;}
	.st11{fill:none;stroke:#2F3E79;stroke-width:2.6111;stroke-miterlimit:10;}
	.st12{fill:#FBAD68;}
	.st13{fill:none;stroke:#FFFFFF;stroke-width:1.6794;stroke-miterlimit:10;}
	.st14{fill:none;stroke:#F5911E;stroke-width:2;stroke-linecap:round;stroke-linejoin:round;stroke-miterlimit:10;}
	.st15{fill:#F2F2F2;}
	.st16{fill:none;stroke:#2F3E79;stroke-width:2.1737;stroke-miterlimit:10;}
	.st17{fill:none;stroke:#404040;stroke-width:2.1737;stroke-linecap:round;stroke-linejoin:round;stroke-miterlimit:10;}
	.st18{fill:none;stroke:#404040;stroke-width:2.8441;stroke-miterlimit:10;}
	.st19{fill:none;stroke:#404040;stroke-width:4.2662;stroke-linecap:round;stroke-linejoin:round;stroke-miterlimit:10;}
	.st20{fill:none;stroke:#404040;stroke-width:1.5;stroke-linecap:round;stroke-linejoin:round;stroke-miterlimit:10;}
	.st21{fill:none;stroke:#FFFFFF;stroke-width:6;stroke-linecap:round;stroke-linejoin:round;stroke-miterlimit:10;}
	.st22{fill:none;stroke:#FFFFFF;stroke-width:0.8855;stroke-linecap:round;stroke-linejoin:round;stroke-miterlimit:10;}
	.st23{fill:none;stroke:#FFFFFF;stroke-width:1.5;stroke-linecap:round;stroke-linejoin:round;stroke-miterlimit:10;}
	.st24{fill:none;stroke:#21C5C9;stroke-width:1.6658;stroke-linecap:round;stroke-linejoin:round;stroke-miterlimit:10;}
	.st25{fill:none;stroke:#FFFFFF;stroke-width:2.0176;stroke-linecap:round;stroke-linejoin:round;stroke-miterlimit:10;}
	.st26{fill:none;stroke:#FFFFFF;stroke-width:1.9894;stroke-linecap:round;stroke-linejoin:round;stroke-miterlimit:10;}
</style>
<g>
	<circle class="st15" cx="79.84" cy="27.52" r="18.08"/>
	<path class="st15" d="M413.42,187.09c30.32,0,54.9-24.58,54.9-54.9s-24.58-54.9-54.9-54.9c-3.78,0-7.47,0.38-11.04,1.11
		c-12.36-24.31-37.6-40.96-66.74-40.96c-34.62,0-63.75,23.52-72.28,55.45c-10.08-25.55-34.97-43.63-64.11-43.63
		c-26.05,0-48.72,14.46-60.44,35.79c-11.39-13.55-28.46-22.17-47.55-22.17c-34.3,0-62.1,27.8-62.1,62.1c0,4.16,0.42,8.22,1.2,12.15
		c-12.54,1.37-22.3,11.99-22.3,24.9c0,13.84,11.22,25.05,25.05,25.05"/>
	<g>
		<path class="st1" d="M110,187.09H53.53c-4.73,0-8.6-3.87-8.6-8.6v-17.92c0-13.2,10.8-24,24-24H94.6c13.2,0,24,10.8,24,24v17.92
			C118.6,183.22,114.73,187.09,110,187.09z"/>
		<path class="st9" d="M81.76,65.3c-14.21,0-25.77,11.05-25.77,24.67l0.79,21.53l49.97,0.04l0.79-21.61
			C107.54,76.35,95.98,65.3,81.76,65.3z"/>
		<path class="st10" d="M81.76,146.81L81.76,146.81c-5.18,0-9.42-4.24-9.42-9.42v-10.57c0-5.18,4.24-9.42,9.42-9.42h0
			c5.18,0,9.42,4.24,9.42,9.42v10.57C91.18,142.57,86.94,146.81,81.76,146.81z"/>
		<g>
			<path class="st10" d="M62.32,107.45c0.8,4.41-0.85,8.41-3.69,8.93s-5.8-2.64-6.6-7.06c-0.8-4.41-0.7-8.13,2.14-8.65
				C57.01,100.16,61.52,103.04,62.32,107.45z"/>
			<path class="st10" d="M101.21,107.45c-0.8,4.41,0.85,8.41,3.69,8.93c2.84,0.52,5.8-2.64,6.6-7.06c0.8-4.41,0.7-8.13-2.14-8.65
				C106.52,100.16,102.01,103.04,101.21,107.45z"/>
		</g>
		<path class="st0" d="M81.76,66.42L81.76,66.42c-13.56,0-24.65,10.58-24.65,23.51l0.79,21.57c0,12.93,13.33,23.51,23.86,23.51h0
			c10.54,0,23.86-10.58,23.86-23.51l0.79-21.57C106.42,77,95.32,66.42,81.76,66.42z"/>
		<line class="st16" x1="79.65" y1="101.41" x2="83.88" y2="101.41"/>
		<g>
			<path class="st17" d="M63.02,106.19c0-3.01,2.44-5.45,5.45-5.45s5.45,2.44,5.45,5.45"/>
			<path class="st17" d="M89.6,106.19c0-3.01,2.44-5.45,5.45-5.45s5.45,2.44,5.45,5.45"/>
		</g>
		<path class="st6" d="M72.19,117.41c0,5.29,4.28,9.57,9.57,9.57c5.29,0,9.57-4.28,9.57-9.57H72.19z"/>
		<path class="st9" d="M81.76,64.24c-14.67,0-26.61,11.94-26.61,26.65l0.25,7.04C81.97,93.94,92.26,75.1,92.26,75.1
			s2.52,15.67,15.9,21.9l0.21-6.15C108.37,76.18,96.44,64.24,81.76,64.24z"/>
		<g>
			<circle class="st16" cx="67.38" cy="103.09" r="12.24"/>
			<circle class="st16" cx="96.15" cy="103.09" r="12.24"/>
		</g>
	</g>
	<g>
		<circle class="st2" cx="150.84" cy="68.16" r="31.68"/>
		<polygon class="st2" points="125.65,78.98 119.16,99.85 140.02,93.35 		"/>
	</g>
	<g>
		<path class="st6" d="M166.96,69.41h-32.23c-0.69,0-1.24-0.56-1.24-1.24c0-0.69,0.56-1.24,1.24-1.24h32.23
			c0.69,0,1.24,0.56,1.24,1.24C168.2,68.85,167.65,69.41,166.96,69.41z"/>
		<path class="st6" d="M166.96,59.95h-32.23c-0.69,0-1.24-0.56-1.24-1.24s0.56-1.24,1.24-1.24h32.23c0.69,0,1.24,0.56,1.24,1.24
			S167.65,59.95,166.96,59.95z"/>
		<path class="st6" d="M166.96,78.86h-32.23c-0.69,0-1.24-0.56-1.24-1.24c0-0.69,0.56-1.24,1.24-1.24h32.23
			c0.69,0,1.24,0.56,1.24,1.24C168.2,78.31,167.65,78.86,166.96,78.86z"/>
	</g>
	<path class="st1" d="M118.99,35.65c-1.06,0.47-2.19,0.79-3.38,0.93c1.22-0.73,2.15-1.88,2.59-3.26c-1.14,0.68-2.4,1.17-3.74,1.43
		c-1.07-1.15-2.61-1.86-4.3-1.86c-3.25,0-5.89,2.64-5.89,5.89c0,0.46,0.05,0.91,0.15,1.34c-4.9-0.25-9.24-2.59-12.15-6.16
		c-0.51,0.87-0.8,1.88-0.8,2.96c0,2.04,1.04,3.85,2.62,4.91c-0.97-0.03-1.87-0.3-2.67-0.74c0,0.02,0,0.05,0,0.07
		c0,2.86,2.03,5.24,4.73,5.78c-0.49,0.13-1.02,0.21-1.55,0.21c-0.38,0-0.75-0.04-1.11-0.11c0.75,2.34,2.93,4.04,5.51,4.09
		c-2.02,1.58-4.56,2.52-7.32,2.52c-0.48,0-0.94-0.03-1.41-0.08c2.61,1.67,5.71,2.65,9.03,2.65c10.84,0,16.77-8.98,16.77-16.77
		c0-0.26-0.01-0.51-0.02-0.76C117.2,37.87,118.19,36.84,118.99,35.65z"/>
	<path class="st3" d="M184.74,142.13l-20.21,9.04c-1.69,0.75-1.38,3.23,0.43,3.56l7.82,1.4c-9.27,12.47-26.67,16.31-40.44,8.36
		c-0.58-0.33-1.14-0.68-1.69-1.05c-0.98-0.65-2.3-0.28-2.83,0.77h0c-0.45,0.89-0.15,1.97,0.67,2.53c0.61,0.41,1.23,0.8,1.87,1.16
		c15.44,8.91,34.9,4.68,45.39-9.19l2.65,7.41c0.62,1.74,3.12,1.63,3.58-0.16l5.59-21.42C188.02,142.86,186.32,141.42,184.74,142.13z
		"/>
	<g>
		<circle class="st0" cx="260.97" cy="122.87" r="64.22"/>
		<path class="st6" d="M305.25,109.54c-0.32,0-0.63,0.03-0.93,0.08l-5.54-9.78c0.6-0.89,0.94-1.97,0.94-3.12
			c0-3.11-2.53-5.64-5.64-5.64c-1.54,0-2.93,0.62-3.95,1.62l-13.25-5.42c-0.09-3.03-2.58-5.47-5.64-5.47c-2.43,0-4.5,1.54-5.29,3.7
			l-20.75,1.38c-0.93-1.85-2.84-3.12-5.04-3.12c-3.11,0-5.64,2.53-5.64,5.64c0,0.41,0.05,0.82,0.13,1.21l-8.88,7.53
			c-0.77-0.39-1.63-0.61-2.54-0.61c-3.11,0-5.64,2.53-5.64,5.64c0,1.18,0.36,2.27,0.98,3.17l-7.23,11.37l0,0.01l-0.01,0.02
			c-0.01,0.01-0.01,0.03-0.02,0.04c-0.06,0.09-0.1,0.19-0.14,0.29c-0.01,0.04-0.02,0.07-0.03,0.11c-0.02,0.08-0.04,0.16-0.05,0.24
			c-0.01,0.04-0.01,0.09-0.01,0.14c0,0.03-0.01,0.06-0.01,0.1c0,0.05,0.01,0.1,0.02,0.15c0,0.04,0.01,0.09,0.01,0.13
			c0.02,0.1,0.05,0.2,0.08,0.3c0.01,0.02,0.01,0.03,0.01,0.05l0.01,0.02l0,0l6.07,14.64c0.02,0.06,0.06,0.11,0.09,0.17
			c0.01,0.03,0.02,0.06,0.04,0.08c0,0,0.01,0.01,0.01,0.01c0.06,0.09,0.13,0.18,0.21,0.26l8.48,8.73c-0.26,0.65-0.4,1.35-0.4,2.08
			c0,3.11,2.53,5.64,5.64,5.64c2.53,0,4.67-1.67,5.39-3.96l4.26-0.4l2.28,15.95c0.1,0.71,0.65,1.28,1.36,1.4
			c0.1,0.02,0.2,0.03,0.29,0.03c0.6,0,1.17-0.33,1.47-0.87l11.25-20.79l5.78,0.85c0.5,2.6,2.79,4.58,5.54,4.58
			c3.04,0,5.53-2.43,5.63-5.44l6.58-1.99c0.03-0.01,0.07-0.02,0.1-0.03l15.38-5.72c0.04-0.02,0.08-0.05,0.12-0.07
			c0.11-0.05,0.22-0.11,0.31-0.19c0.05-0.04,0.1-0.09,0.15-0.14c0.05-0.05,0.1-0.08,0.14-0.13c0.03-0.04,0.05-0.09,0.08-0.14
			c0.02-0.03,0.05-0.05,0.07-0.09l7.14-12.96c0.2,0.02,0.41,0.03,0.61,0.03c3.11,0,5.64-2.53,5.64-5.64S308.36,109.54,305.25,109.54
			z M303.58,116.77c-0.12-0.12-0.22-0.26-0.31-0.41c-0.21-0.35-0.33-0.75-0.33-1.18c0-0.32,0.07-0.63,0.19-0.91
			c0.14-0.33,0.37-0.62,0.64-0.85c0.4-0.34,0.92-0.55,1.48-0.55c0.39,0,0.74,0.1,1.06,0.27c0.74,0.39,1.25,1.15,1.25,2.04
			c0,0.68-0.31,1.29-0.78,1.72c-0.41,0.36-0.94,0.59-1.53,0.59C304.59,117.49,304,117.21,303.58,116.77z M301.34,111.12
			c-0.5,0.49-0.92,1.06-1.21,1.71l-10.73-1.75c-0.13-0.97-0.51-1.86-1.08-2.6l4.53-6.25c0.4,0.09,0.81,0.14,1.23,0.14
			c0.73,0,1.43-0.14,2.07-0.4L301.34,111.12z M268.93,144.37c-0.63,0-1.2-0.26-1.62-0.67c-0.43-0.42-0.69-1-0.69-1.64
			c0-0.56,0.21-1.06,0.54-1.46c0.07-0.09,0.15-0.17,0.24-0.25c0.41-0.37,0.95-0.6,1.54-0.6c0.45,0,0.88,0.14,1.23,0.36
			c0.11,0.07,0.22,0.16,0.32,0.25c0.46,0.42,0.76,1.03,0.76,1.7c0,0.5-0.16,0.96-0.43,1.34
			C270.39,143.98,269.7,144.37,268.93,144.37z M257.7,138.92l-11.13-17.5c0.09-0.11,0.18-0.22,0.26-0.33l19.98,4.99l0.26,10.66
			c-1.48,0.52-2.68,1.64-3.31,3.07L257.7,138.92z M242.44,89.1c0.01,0.1,0.03,0.21,0.03,0.31c0,0.37-0.09,0.71-0.25,1.02
			c-0.38,0.76-1.16,1.29-2.07,1.29c-0.45,0-0.87-0.14-1.23-0.36c-0.65-0.41-1.08-1.13-1.08-1.95c0-0.94,0.57-1.75,1.38-2.11
			c0.01,0,0.01-0.01,0.02-0.01c0.28-0.12,0.58-0.19,0.91-0.19c0.21,0,0.4,0.04,0.59,0.09C241.64,87.42,242.31,88.17,242.44,89.1z
			 M271.24,85.14c0.07,0,0.13,0.01,0.2,0.02c0.02,0,0.05,0,0.07,0.01c0.02,0,0.03,0,0.05,0c0.04,0,0.07,0,0.11,0.01
			c0.06,0.01,0.12,0.03,0.19,0.05c0.04,0.01,0.07,0.02,0.11,0.03c0.1,0.03,0.2,0.07,0.29,0.12c0.77,0.38,1.3,1.16,1.3,2.07
			c0,0.7-0.31,1.31-0.8,1.74c-0.35,0.3-0.78,0.5-1.26,0.55c-0.08,0.01-0.17,0.03-0.25,0.03c-0.84,0-1.58-0.46-1.98-1.14
			c-0.19-0.32-0.31-0.69-0.32-1.09c0-0.03-0.01-0.06-0.01-0.09c0-1.12,0.8-2.06,1.87-2.27C270.94,85.16,271.09,85.14,271.24,85.14z
			 M266.81,90.93l-6.26,9.99l-15.01-9.8c0.1-0.3,0.16-0.61,0.21-0.93l20.04-1.34C265.98,89.63,266.34,90.33,266.81,90.93z
			 M289.09,99.34c0.23,0.44,0.52,0.84,0.86,1.2l-4.32,5.97c-0.57-0.19-1.18-0.3-1.81-0.3c-1.81,0-3.41,0.86-4.45,2.18l-12.28-4.65
			L289.09,99.34z M294.08,94.41c0.11,0,0.21,0.02,0.31,0.03c0.4,0.05,0.76,0.21,1.06,0.44c0.01,0.01,0.03,0.02,0.04,0.03
			c0.54,0.42,0.89,1.07,0.89,1.81c0,0.3-0.06,0.58-0.16,0.84c-0.14,0.36-0.37,0.67-0.67,0.92c-0.31,0.26-0.68,0.44-1.09,0.51
			c-0.13,0.02-0.26,0.04-0.39,0.04c-1.19,0-2.16-0.9-2.29-2.05c-0.01-0.09-0.03-0.17-0.03-0.26c0-0.53,0.19-1.02,0.49-1.41
			C292.69,94.77,293.34,94.41,294.08,94.41z M239.96,117.76c0-0.54,0.19-1.02,0.5-1.42c0.36-0.46,0.89-0.78,1.51-0.86
			c0.1-0.01,0.2-0.03,0.31-0.03c1.03,0,1.89,0.68,2.19,1.6c0.07,0.22,0.12,0.46,0.12,0.71c0,0.1-0.02,0.2-0.03,0.29
			c-0.01,0.05-0.01,0.11-0.02,0.16c-0.01,0.07-0.04,0.13-0.06,0.2c-0.23,0.75-0.82,1.34-1.58,1.56c-0.2,0.06-0.4,0.1-0.62,0.1
			c-0.2,0-0.39-0.03-0.58-0.08c-0.27-0.07-0.53-0.19-0.75-0.34c-0.53-0.37-0.89-0.97-0.96-1.65
			C239.97,117.92,239.96,117.84,239.96,117.76z M243.63,93.86l14.58,9.52l-12.56,9.88c-0.67-0.5-1.44-0.86-2.29-1.03l-1.87-17.33
			C242.28,94.7,243.01,94.34,243.63,93.86z M247.61,115.95l12.64-9.94l5.62,16.4l-17.96-4.49c0-0.05,0.01-0.1,0.01-0.15
			C247.91,117.13,247.8,116.52,247.61,115.95z M263.79,106.06l14.39,5.45c-0.01,0.12-0.02,0.23-0.02,0.35
			c0,0.78,0.16,1.52,0.44,2.19l-9.38,7.88L263.79,106.06z M286.05,112.4c-0.14,0.56-0.47,1.04-0.93,1.36
			c-0.37,0.26-0.82,0.41-1.31,0.41c-0.05,0-0.09-0.01-0.14-0.01c-0.17-0.01-0.34-0.04-0.5-0.09c-0.96-0.28-1.67-1.16-1.67-2.21
			c0-0.95,0.58-1.77,1.4-2.13c0.16-0.07,0.32-0.11,0.5-0.14c0.13-0.02,0.27-0.04,0.41-0.04c1.27,0,2.31,1.04,2.31,2.31
			C286.12,112.04,286.09,112.22,286.05,112.4z M244.24,123.96l9.88,15.53l-10.03,3.01L244.24,123.96z M280.76,116.6
			c0.88,0.57,1.93,0.9,3.05,0.9c0.43,0,0.85-0.05,1.26-0.15l7.42,12.81l-20.61-6.11L280.76,116.6z M288.48,96.07l-23.95,4.79
			l5.03-8.02c0.53,0.17,1.1,0.26,1.69,0.26c1.99,0,3.73-1.03,4.74-2.59l12.56,5.14C288.52,95.79,288.5,95.93,288.48,96.07z
			 M236.34,93.56c0.52,0.48,1.12,0.86,1.78,1.11l1.93,17.9c-0.39,0.17-0.75,0.38-1.08,0.62l-10.48-7.99
			c0.24-0.63,0.38-1.31,0.38-2.02c0-0.98-0.25-1.9-0.69-2.71L236.34,93.56z M222.35,101.04c0.27-0.11,0.56-0.17,0.87-0.17
			c1.13,0,2.06,0.81,2.27,1.88c0.01,0.06,0.01,0.12,0.02,0.18c0.01,0.08,0.02,0.16,0.02,0.25c0,1.23-0.97,2.23-2.18,2.3
			c-0.04,0-0.08,0.01-0.13,0.01c-0.05,0-0.1-0.01-0.16-0.02c-1.2-0.08-2.16-1.07-2.16-2.3c0-0.25,0.05-0.49,0.13-0.72
			C221.25,101.82,221.73,101.3,222.35,101.04z M221.19,108.44c0.63,0.25,1.32,0.39,2.04,0.39c1.19,0,2.29-0.37,3.2-1l10.53,8.03
			c-0.1,0.28-0.18,0.56-0.24,0.85l-20.95,0.23L221.19,108.44z M236.73,120.04l-17.15,10.8l-4.38-10.56L236.73,120.04z
			 M221.42,133.62l17.72-11.16c0.53,0.35,1.12,0.61,1.76,0.77l-0.17,19.99l-4.03,0.38c-0.71-2.3-2.86-3.98-5.39-3.98
			c-1.16,0-2.23,0.35-3.13,0.95L221.42,133.62z M233.63,145.27c0,0.93-0.56,1.73-1.35,2.1c-0.29,0.14-0.62,0.22-0.96,0.22
			c-0.33,0-0.64-0.07-0.93-0.2c-0.26-0.11-0.49-0.27-0.68-0.46c-0.01-0.01-0.03-0.03-0.04-0.04c-0.4-0.42-0.66-0.98-0.66-1.61
			c0-1.03,0.68-1.89,1.61-2.19c0.22-0.07,0.45-0.12,0.7-0.12c0.77,0,1.46,0.39,1.88,0.97C233.47,144.31,233.63,144.77,233.63,145.27
			z M245.84,157.04l-1.59-11.11l9.07-2.72L245.84,157.04z M280.13,137.09l-6.44,1.95c-0.75-1.18-1.92-2.06-3.3-2.43l-0.23-9.59
			l20.61,6.11L280.13,137.09z M296,129.56l-8.05-13.88c0.36-0.39,0.67-0.83,0.91-1.31l10.83,1.77c0.23,1.32,0.91,2.48,1.88,3.32
			L296,129.56z"/>
	</g>
	<path class="st3" d="M369.87,78.99l-21.33-5.92c-1.78-0.49-1.85-2.99-0.1-3.58l7.53-2.56c-11.03-10.94-28.8-12.14-41.24-2.22
		c-0.52,0.42-1.02,0.85-1.51,1.29c-0.87,0.79-2.24,0.62-2.91-0.34l0,0c-0.57-0.81-0.45-1.93,0.29-2.6c0.54-0.49,1.1-0.97,1.68-1.43
		c13.93-11.12,33.81-9.84,46.26,2.3l1.51-7.72c0.35-1.81,2.84-2.08,3.57-0.38l8.72,20.35C373.01,77.77,371.54,79.45,369.87,78.99z"
		/>
	<circle class="st1" cx="369.77" cy="121.06" r="27.91"/>
	<g>
		<circle class="st2" cx="431.39" cy="89.5" r="27.91"/>
	</g>
	<g>
		<path class="st3" d="M138.46,116.96c3.28,0,3.67,0.01,4.96,0.07c1.2,0.05,1.85,0.25,2.28,0.42c0.57,0.22,0.98,0.49,1.41,0.92
			c0.43,0.43,0.7,0.84,0.92,1.41c0.17,0.43,0.37,1.08,0.42,2.28c0.06,1.29,0.07,1.68,0.07,4.96c0,3.28-0.01,3.67-0.07,4.96
			c-0.05,1.2-0.25,1.85-0.42,2.28c-0.22,0.57-0.49,0.98-0.92,1.41c-0.43,0.43-0.84,0.7-1.41,0.92c-0.43,0.17-1.08,0.37-2.28,0.42
			c-1.29,0.06-1.68,0.07-4.96,0.07c-3.28,0-3.67-0.01-4.96-0.07c-1.2-0.05-1.85-0.25-2.28-0.42c-0.57-0.22-0.98-0.49-1.41-0.92
			c-0.43-0.43-0.7-0.84-0.92-1.41c-0.17-0.43-0.37-1.08-0.42-2.28c-0.06-1.29-0.07-1.68-0.07-4.96c0-3.28,0.01-3.67,0.07-4.96
			c0.05-1.2,0.25-1.85,0.42-2.28c0.22-0.57,0.49-0.98,0.92-1.41c0.43-0.43,0.84-0.7,1.41-0.92c0.43-0.17,1.08-0.37,2.28-0.42
			C134.79,116.98,135.18,116.96,138.46,116.96 M138.46,114.75c-3.33,0-3.75,0.01-5.06,0.07c-1.31,0.06-2.2,0.27-2.98,0.57
			c-0.81,0.31-1.49,0.73-2.17,1.42c-0.68,0.68-1.1,1.37-1.42,2.17c-0.3,0.78-0.51,1.67-0.57,2.98c-0.06,1.31-0.07,1.73-0.07,5.06
			c0,3.33,0.01,3.75,0.07,5.06c0.06,1.31,0.27,2.2,0.57,2.98c0.31,0.81,0.73,1.49,1.42,2.17c0.68,0.68,1.37,1.1,2.17,1.42
			c0.78,0.3,1.67,0.51,2.98,0.57c1.31,0.06,1.73,0.07,5.06,0.07s3.75-0.01,5.06-0.07c1.31-0.06,2.2-0.27,2.98-0.57
			c0.81-0.31,1.49-0.73,2.17-1.42c0.68-0.68,1.1-1.37,1.42-2.17c0.3-0.78,0.51-1.67,0.57-2.98c0.06-1.31,0.07-1.73,0.07-5.06
			c0-3.33-0.01-3.75-0.07-5.06c-0.06-1.31-0.27-2.2-0.57-2.98c-0.31-0.81-0.73-1.49-1.42-2.17c-0.68-0.68-1.37-1.1-2.17-1.42
			c-0.78-0.3-1.67-0.51-2.98-0.57C142.21,114.77,141.79,114.75,138.46,114.75L138.46,114.75z"/>
		<path class="st3" d="M138.46,120.73c-3.48,0-6.3,2.82-6.3,6.3s2.82,6.3,6.3,6.3c3.48,0,6.3-2.82,6.3-6.3
			S141.94,120.73,138.46,120.73z M138.46,131.12c-2.26,0-4.09-1.83-4.09-4.09c0-2.26,1.83-4.09,4.09-4.09
			c2.26,0,4.09,1.83,4.09,4.09C142.55,129.29,140.72,131.12,138.46,131.12z"/>
		<circle class="st3" cx="145.01" cy="120.48" r="1.47"/>
	</g>
	<g>
		<path class="st6" d="M447.64,72.97c-0.45-0.44-0.92-0.81-1.53-0.36c-0.8,0.6-1.92,0.87-2.14,2.08c-0.02,0.1-0.18,0.17-0.26,0.24
			c-0.1-0.05-0.15-0.06-0.19-0.09c-0.31-0.26-0.6-0.72-1.08-0.34c-0.47,0.38-0.18,0.74,0.13,1.08c0.07,0.08,0.02,0.26,0.03,0.39
			c-0.14-0.01-0.28,0-0.4-0.04c-0.09-0.03-0.16-0.19-0.24-0.19c-0.26-0.02-0.63-0.08-0.76,0.05c-0.13,0.14-0.07,0.51-0.02,0.76
			c0.03,0.15,0.21,0.28,0.35,0.44c-2.33,2.17-4.62,4.31-6.93,6.46c-0.29-0.16-0.54-0.3-0.8-0.43c-1.18-0.6-2.51-1.19-3.74-0.79
			c-1.58,0.52-2.4-0.2-3.26-1.22c-0.14-0.16-0.31-0.3-0.45-0.45c-0.93-1.03-1.9-1.94-3.44-1.13l-0.32,0.11
			c-0.42,0.14-0.59,0.66-0.31,1c0.01,0.01,0.02,0.02,0.02,0.03c0.59,0.65,1.23,1.26,1.85,1.88c0.68,0.67,1.36,1.32,2.21,2.14
			c-0.81,0.79-1.49,1.51-2.23,2.16c-0.5,0.45-0.6,1.1-0.03,1.48c0.5,0.33,0.4,0.64,0.16,0.99c-0.76,1.16-1.83,1.91-3.16,2.28
			c-0.51,0.14-0.84,0.05-1.09-0.47c-0.41-0.83-1.08-0.76-1.64-0.01c-0.38,0.5-0.89,1.02-1.46,1.25c-2.4,0.96-4.27,2.35-4.74,5.09
			v1.6c0.41,1.86,1.15,3.56,2.36,5.04c1.9,2.32,4.25,3.87,7.23,4.39h1.44c0.31-0.08,0.61-0.16,0.92-0.25
			c2.19-0.64,3.29-2.32,4.05-4.3c0.28-0.72,0.67-1.3,1.37-1.69c0.81-0.45,0.76-1.14-0.02-1.65c-0.24-0.16-0.53-0.54-0.49-0.76
			c0.28-1.51,1.09-2.69,2.41-3.5c0.33-0.2,0.57-0.22,0.86,0.17c0.47,0.64,1.21,0.6,1.54-0.1c0.48-1.01,1.4-1.38,2.26-1.89
			c0.17,0.16,0.31,0.29,0.44,0.42c2.24,2.24,4.49,4.48,6.73,6.72c0.29,0.29,0.6,0.63,1.01,0.23c0.44-0.42,0.12-0.77-0.19-1.08
			c-0.35-0.35-0.72-0.69-1.09-1.05c0.13-0.16,0.19-0.24,0.26-0.31c0.91-0.95,0.91-0.96-0.02-1.89c-1.58-1.58-3.16-3.17-4.76-4.74
			c-0.35-0.35-0.47-0.62-0.34-1.16c0.18-0.76,0.28-1.6,0.14-2.35c-0.21-1.12-0.66-2.2-1.04-3.38c2.05-2.2,4.19-4.5,6.32-6.78
			c0.11,0.06,0.16,0.08,0.2,0.12c0.3,0.27,0.59,0.63,1.02,0.24c0.41-0.37,0.15-0.7-0.12-1.03c-0.09-0.11-0.03-0.34-0.03-0.37
			c0.53,0.08,1.11,0.34,1.34,0.16c0.65-0.51-0.18-0.87-0.38-1.46c1.31-0.19,1.72-1.33,2.36-2.23
			C448.33,73.88,448.08,73.4,447.64,72.97z M433.66,84.29c-0.64,0.61-1.23,1.16-1.77,1.67c-0.83-0.85-1.62-1.66-2.41-2.47
			C430.94,83.11,432.28,83.53,433.66,84.29z M416.16,103.87c0.69-0.63,1.42-1.31,2.21-2.03c0.1,0.11,0.25,0.26,0.39,0.41
			c-0.75,0.72-1.47,1.41-2.26,2.16C416.42,104.28,416.3,104.09,416.16,103.87z M432.94,95.17c-1.34-0.59-2.49-0.14-3.8,1.53
			c-1.44,1.84-1.69,3.41-0.84,4.5c-0.5,0.96-1.02,1.83-1.44,2.75c-1.33,2.92-3.66,3.94-6.66,2.79c-0.92-0.35-1.78-0.89-2.74-1.39
			c1.39-1.43,2.55-2.82,4.3-3.52c0.69-0.28,1.33-0.67,1.98-1.03c0.46-0.25,0.62-0.63,0.22-1.03c-1.06-1.09-2.13-2.16-3.22-3.22
			c-0.42-0.4-0.78-0.2-1.02,0.25c-0.4,0.75-0.85,1.48-1.17,2.26c-0.68,1.65-2.07,2.66-3.26,3.93c-1.17-1.5-1.91-3.1-1.93-4.94
			c-0.02-2.29,1.39-3.55,3.32-4.42c0.88-0.4,1.71-0.89,2.66-1.39c1.22,0.86,3.01,0.5,4.89-1.16c1.39-1.23,1.73-2.35,1.12-3.46
			c0.58-0.75,1.14-1.47,1.69-2.18c0.83,0.86,1.68,1.73,2.57,2.65c-0.55,0.52-1.16,1.11-1.8,1.66c-0.53,0.46-0.51,0.85-0.01,1.32
			c0.59,0.54,1.15,1.11,1.69,1.7c0.49,0.53,0.88,0.45,1.32-0.05c0.54-0.62,1.11-1.21,1.65-1.79c0.87,0.89,1.71,1.76,2.56,2.64
			C434.42,94.02,433.7,94.58,432.94,95.17z M419.17,100.44c0.38-0.83,0.84-1.63,1.27-2.45c0.71,0.73,1.36,1.4,2.06,2.12
			c-0.77,0.41-1.57,0.87-2.41,1.25c-0.17,0.08-0.54-0.06-0.7-0.22C419.24,100.98,419.09,100.62,419.17,100.44z M430.53,88.85
			c0.35,0.4,0.69,0.8,1.08,1.24c-0.44,0.47-0.93,1.01-1.47,1.59c-0.45-0.44-0.83-0.83-1.26-1.26
			C429.41,89.9,429.94,89.4,430.53,88.85z M442.6,98.41c0.13,0.13,0.13,0.35,0,0.49c-0.13,0.13-0.35,0.13-0.49,0l-18.43-18.43
			c-0.13-0.13-0.13-0.35,0-0.49c0.13-0.13,0.35-0.13,0.49,0L442.6,98.41z M434.62,88.61c0.46-0.49,0.99-1.07,1.61-1.74
			c0.81,1.38,1.16,2.73,0.84,4.19C436.25,90.25,435.46,89.45,434.62,88.61z M433.66,87.91c-0.31-0.36-0.6-0.69-0.95-1.1
			c3.99-3.72,8.03-7.48,12.07-11.24c0.06,0.06,0.13,0.13,0.19,0.19C441.22,79.79,437.47,83.82,433.66,87.91z M446.06,75.12
			c-0.25-0.26-0.41-0.42-0.62-0.64c0.42-0.29,0.82-0.55,1.21-0.82c0.08,0.06,0.16,0.13,0.24,0.19
			C446.63,74.25,446.37,74.65,446.06,75.12z"/>
		<path class="st6" d="M428.79,93.87c-0.18-0.1-0.49-0.13-0.65-0.04c-0.16,0.09-0.33,0.47-0.27,0.57c0.33,0.49-0.01,0.79-0.23,1.14
			c-0.34,0.54-0.69,1.07-1.02,1.62c-0.19,0.31-0.33,0.65-0.43,0.84c0.02,0.28-0.01,0.44,0.05,0.49c0.31,0.27,0.65,0.73,0.97,0.71
			c0.44-0.02,0.56-0.46,0.3-0.92c-0.07-0.12,0.07-0.39,0.17-0.55c0.45-0.75,0.94-1.48,1.38-2.24
			C429.44,94.85,429.33,94.18,428.79,93.87z"/>
		<path class="st6" d="M425.11,91.44c-0.79,0.45-1.53,0.97-2.31,1.42c-0.19,0.11-0.46,0.05-0.69,0.1c-0.26,0.06-0.6,0.07-0.73,0.24
			c-0.11,0.13-0.04,0.54,0.1,0.7c0.44,0.53,1,0.55,1.57,0.2c0.71-0.43,1.38-0.9,2.11-1.29c0.25-0.14,0.61-0.07,0.91-0.15
			c0.3-0.08,0.57-0.24,0.78-0.33C426.8,91.44,425.82,91.04,425.11,91.44z"/>
	</g>
	<g>
		<path class="st6" d="M381.15,116.19c0.4,0.02,0.65,0.04,0.9,0.04c2.34,0,4.68,0,7.02,0.01c0.87,0,1.06,0.2,1.07,1.05
			c0.01,1.51-0.01,3.02,0.01,4.52c0.01,0.66-0.25,0.98-0.93,1.08c-1.5,0.21-2.45,1.3-2.42,2.67c0.02,1.36,0.96,2.38,2.43,2.58
			c0.67,0.09,0.94,0.42,0.93,1.09c-0.02,1.48,0,2.96-0.01,4.45c0,0.93-0.21,1.15-1.14,1.15c-2.94,0-5.88,0-8.81,0
			c-9.54,0-19.08,0-28.62,0c-1.25,0-1.37-0.12-1.37-1.39c0-1.4,0.02-2.81-0.01-4.21c-0.01-0.67,0.25-1,0.93-1.09
			c1.47-0.2,2.41-1.22,2.43-2.58c0.02-1.38-0.93-2.47-2.42-2.67c-0.69-0.09-0.94-0.41-0.93-1.08c0.02-1.53,0.02-3.07,0-4.6
			c-0.01-0.69,0.31-0.99,0.99-0.98c1.48,0.01,2.96-0.03,4.44,0.02c0.68,0.02,1.15-0.18,1.64-0.66c5.07-5.11,10.17-10.19,15.26-15.29
			c0.91-0.91,1.01-0.91,1.93,0c0.74,0.73,1.46,1.48,2.21,2.2c0.48,0.46,0.53,0.86,0.11,1.41c-0.89,1.16-0.81,2.58,0.15,3.54
			c0.95,0.96,2.39,1.05,3.54,0.17c0.54-0.42,0.94-0.4,1.41,0.08c1.03,1.07,2.08,2.11,3.14,3.14c0.53,0.51,0.51,0.94-0.01,1.44
			c-1.1,1.07-2.18,2.16-3.26,3.25C381.57,115.72,381.41,115.91,381.15,116.19z M388.73,129.49c-2.09-0.71-3.21-1.94-3.27-3.69
			c-0.07-2.27,1.16-3.61,3.22-4.25c0-1.35,0-2.66,0-3.95c-10.19,0-20.32,0-30.53,0c0,0.67,0,1.28,0,1.89c-0.47,0-0.84,0-1.3,0
			c0-0.66,0-1.27,0-1.91c-1.79,0-3.49,0-5.29,0c0,1.12,0.03,2.21-0.01,3.29c-0.02,0.53,0.14,0.74,0.66,0.92
			c2.47,0.85,3.43,3.79,1.98,5.95c-0.62,0.92-1.51,1.48-2.56,1.72c0,1.37,0,2.68,0,4c1.75,0,3.44,0,5.16,0
			c0.08-0.95,0.76-0.56,1.37-0.63c-0.15,0.79,0.39,0.65,0.83,0.65c7.44,0,14.88,0,22.31,0c0.25,0,0.5-0.02,0.87-0.04
			c0-0.89,0-1.73,0-2.55c0.49,0,0.86,0,1.31,0c0,0.88,0,1.71,0,2.52c1.8,0,3.52,0,5.26,0C388.73,132.08,388.73,130.81,388.73,129.49
			z M373.62,101.39c-4.98,4.97-9.92,9.9-14.83,14.8c0.99,0.16,1.88,0.04,2.74-0.87c2.78-2.91,5.67-5.72,8.52-8.57
			c0.64-0.64,0.88-0.65,1.49-0.05c2.28,2.28,4.55,4.56,6.84,6.83c0.5,0.49,0.49,0.92-0.01,1.39c-0.4,0.38-0.76,0.79-1.18,1.22
			c1.3,0.26,2.3,0.07,3.07-0.98c0.43-0.58,1.01-1.05,1.53-1.55c0.69-0.66,1.38-1.31,2.14-2.03c-0.88-0.85-1.64-1.56-2.37-2.3
			c-0.32-0.33-0.55-0.38-0.99-0.16c-2.39,1.2-5.15-0.15-5.69-2.75c-0.23-1.11,0.04-2.15,0.61-3.09
			C374.81,102.59,374.17,101.95,373.62,101.39z M377.16,114.34c-2.18-2.19-4.27-4.28-6.29-6.3c-2.7,2.7-5.42,5.42-8.14,8.14
			c0,0,0.06,0.05,0.13,0.05c3.97,0,7.94,0.01,11.91-0.01c0.23,0,0.5-0.13,0.68-0.28C376.05,115.43,376.6,114.88,377.16,114.34z"/>
		<path class="st6" d="M370.16,118.88c2.26,0,4.52,0.01,6.78-0.01c0.67-0.01,1.15,0.09,1.24,0.92c0.06,0.59,0.49,0.97,1.1,1.04
			c0.65,0.07,0.86,0.44,0.86,1.06c-0.02,2.42-0.01,4.84,0,7.25c0,0.61-0.19,0.97-0.86,1.05c-0.63,0.07-1.04,0.49-1.12,1.13
			c-0.08,0.61-0.38,0.85-0.98,0.85c-4.68-0.01-9.36-0.01-14.04,0c-0.54,0-0.89-0.18-0.97-0.77c-0.09-0.7-0.5-1.13-1.21-1.22
			c-0.59-0.07-0.78-0.41-0.78-0.96c0.01-2.47,0.01-4.94,0-7.41c0-0.61,0.26-0.91,0.85-0.99c0.65-0.08,1.05-0.49,1.13-1.12
			c0.08-0.69,0.46-0.84,1.06-0.84C365.53,118.89,367.84,118.88,370.16,118.88z M370.13,130.83c1.98,0,3.95-0.02,5.93,0.01
			c0.56,0.01,0.88-0.11,1.15-0.65c0.2-0.41,0.63-0.77,1.04-1c0.39-0.22,0.56-0.43,0.55-0.89c-0.02-1.85-0.02-3.69,0-5.54
			c0.01-0.45-0.15-0.66-0.54-0.89c-0.45-0.27-0.85-0.69-1.12-1.13c-0.23-0.39-0.44-0.54-0.89-0.54c-4.06,0.02-8.11,0.01-12.17,0
			c-0.4,0-0.61,0.11-0.85,0.48c-0.3,0.48-0.82,0.83-1.21,1.26c-0.2,0.22-0.45,0.5-0.45,0.76c-0.04,1.87-0.01,3.74-0.03,5.62
			c0,0.41,0.12,0.62,0.49,0.84c0.45,0.27,0.9,0.66,1.14,1.12c0.26,0.48,0.56,0.57,1.04,0.57
			C366.18,130.82,368.15,130.83,370.13,130.83z"/>
		<path class="st6" d="M382.19,118.93c0.41,0,0.78,0,1.2,0c0,0.85,0,1.68,0,2.57c-0.4,0-0.77,0-1.2,0
			C382.19,120.64,382.19,119.81,382.19,118.93z"/>
		<path class="st6" d="M358.13,123.48c-0.41,0-0.79,0-1.2,0c0-0.86,0-1.68,0-2.56c0.39,0,0.77,0,1.2,0
			C358.13,121.77,358.13,122.6,358.13,123.48z"/>
		<path class="st6" d="M382.17,122.89c0.42,0,0.77,0,1.2,0c0,0.83,0,1.66,0,2.56c-0.37,0-0.76,0-1.2,0
			C382.17,124.61,382.17,123.8,382.17,122.89z"/>
		<path class="st6" d="M356.93,124.89c0.44,0,0.8,0,1.21,0c0,0.87,0,1.7,0,2.58c-0.41,0-0.78,0-1.21,0
			C356.93,126.62,356.93,125.78,356.93,124.89z"/>
		<path class="st6" d="M382.18,126.9c0.43,0,0.8,0,1.22,0c0,0.85,0,1.67,0,2.56c-0.39,0-0.78,0-1.22,0
			C382.18,128.62,382.18,127.81,382.18,126.9z"/>
		<path class="st6" d="M356.94,128.88c0.42,0,0.78,0,1.19,0c0,0.87,0,1.71,0,2.59c-0.42,0-0.79,0-1.19,0
			C356.94,130.58,356.94,129.74,356.94,128.88z"/>
	</g>
	<circle class="st15" cx="253.16" cy="20.58" r="20.58"/>
	<circle class="st4" cx="487.54" cy="171.81" r="15.28"/>
	<circle class="st15" cx="421.09" cy="12.88" r="11.85"/>
	<circle class="st1" cx="270.11" cy="34.34" r="8.88"/>
	<g>
		<circle class="st18" cx="465.77" cy="124.77" r="12.01"/>
		<line class="st19" x1="475.35" y1="134.35" x2="486.7" y2="145.69"/>
	</g>
	<circle class="st0" cx="8.65" cy="172.64" r="8.65"/>
	<polygon class="st0" points="429.67,159.18 429.67,159.18 429.67,159.18 	"/>
	<g>
		<path class="st0" d="M430.67,159.18l21.73-17.52c-1.96-2.44-4.37-4.58-7.19-6.31c-4.55-2.78-9.58-4.09-14.54-4.09L430.67,159.18
			L430.67,159.18z"/>
		<path class="st1" d="M452.4,141.66l-21.73,17.52h0v27.91c3.6,0,7.16-0.7,10.49-2.05c5.36-2.17,10.09-6.01,13.33-11.32
			C460.8,163.38,459.59,150.57,452.4,141.66z"/>
		<path class="st2" d="M420.18,133.31c-5.36,2.17-10.09,6.01-13.33,11.32c-6.31,10.33-5.09,23.15,2.09,32.06
			c1.96,2.44,4.37,4.58,7.19,6.31c4.55,2.78,9.58,4.09,14.54,4.09v-27.91v0v-27.91C427.07,131.27,423.5,131.97,420.18,133.31z"/>
	</g>
	<g>
		<path class="st1" d="M481.11,166.01c0.63-0.61,1.41-0.92,2.35-0.92c0.94,0,1.72,0.3,2.35,0.91c0.63,0.61,0.94,1.38,0.94,2.32
			c0,0.93-0.32,1.7-0.95,2.32c-0.64,0.62-1.42,0.93-2.36,0.93c-0.94,0-1.72-0.31-2.34-0.92c-0.62-0.61-0.93-1.38-0.93-2.31
			C480.16,167.4,480.48,166.62,481.11,166.01z M482.26,169.57c0.31,0.33,0.71,0.49,1.2,0.49c0.48,0,0.87-0.17,1.19-0.5
			c0.32-0.33,0.48-0.74,0.48-1.24c0-0.49-0.16-0.9-0.48-1.23s-0.72-0.49-1.19-0.49c-0.49,0-0.89,0.16-1.2,0.48
			c-0.31,0.32-0.47,0.73-0.47,1.24C481.79,168.83,481.95,169.24,482.26,169.57z M491.16,165.31h1.69l-8.93,13.01h-1.71
			L491.16,165.31z M489.26,172.97c0.63-0.61,1.41-0.92,2.35-0.92c0.94,0,1.72,0.3,2.35,0.91c0.63,0.61,0.94,1.38,0.94,2.32
			c0,0.93-0.32,1.7-0.95,2.32c-0.64,0.62-1.42,0.93-2.36,0.93c-0.94,0-1.72-0.31-2.34-0.92s-0.93-1.38-0.93-2.31
			C488.32,174.36,488.63,173.58,489.26,172.97z M490.41,176.53c0.31,0.33,0.71,0.49,1.2,0.49c0.48,0,0.87-0.17,1.19-0.5
			c0.32-0.33,0.48-0.74,0.48-1.24c0-0.49-0.16-0.9-0.48-1.23c-0.32-0.33-0.72-0.49-1.19-0.49c-0.49,0-0.89,0.16-1.2,0.48
			c-0.31,0.32-0.47,0.73-0.47,1.24C489.94,175.79,490.1,176.2,490.41,176.53z"/>
	</g>
	<line class="st20" x1="477.35" y1="173.02" x2="458.58" y2="173.02"/>
	<g>
		<circle class="st0" cx="178.28" cy="96.74" r="13.03"/>
		<path class="st6" d="M179,88.44c0.05-0.23,0.28-0.37,0.51-0.32l3.52,0.78c0.22-0.42,0.63-0.7,1.1-0.75
			c0.77-0.08,1.45,0.48,1.53,1.24c0.08,0.77-0.48,1.45-1.24,1.53c-0.77,0.08-1.45-0.48-1.53-1.24l-3.2-0.71l-1.08,4.65
			c2.09,0.02,4.11,0.69,5.8,1.92c0.09-0.09,0.18-0.17,0.28-0.24c0.93-0.66,2.21-0.44,2.87,0.49c0.04,0.06,0.08,0.13,0.11,0.19
			c0.52,1.05,0.09,2.33-0.96,2.85c0.2,1.83-0.62,3.62-2.13,4.65c-1.84,1.29-4.04,1.95-6.29,1.9c-2.25,0.05-4.45-0.61-6.29-1.9
			c-1.52-1.04-2.34-2.83-2.13-4.65c-0.07-0.03-0.13-0.07-0.19-0.11c-0.99-0.63-1.28-1.94-0.66-2.93c0.07-0.1,0.15-0.2,0.24-0.28
			c0.81-0.79,2.11-0.78,2.91,0.03c1.64-1.19,3.61-1.86,5.64-1.91L179,88.44z M180.17,98.39c0,0.78,0.63,1.41,1.41,1.41
			s1.41-0.63,1.41-1.41c0-0.78-0.63-1.41-1.41-1.41S180.17,97.61,180.17,98.39L180.17,98.39z M181.85,102.27
			c0.12-0.13,0.11-0.34-0.02-0.46c-0.09-0.08-0.21-0.11-0.33-0.07c-1.92,1.39-4.51,1.39-6.43,0c-0.17-0.06-0.35,0.03-0.41,0.2
			c-0.04,0.11-0.01,0.24,0.07,0.33C176.84,103.83,179.73,103.83,181.85,102.27z M173.58,98.39c0,0.78,0.63,1.41,1.41,1.41
			s1.41-0.63,1.41-1.41c0-0.78-0.63-1.41-1.41-1.41S173.58,97.61,173.58,98.39L173.58,98.39z"/>
	</g>
	<g>
		<path id="Blue_2_" class="st2" d="M40.35,125.55c0.79,0,1.44-0.64,1.44-1.44v-23.19c0-0.79-0.64-1.44-1.44-1.44H17.16
			c-0.79,0-1.44,0.64-1.44,1.44v23.19c0,0.79,0.64,1.44,1.44,1.44H40.35z"/>
		<path id="f_1_" class="st6" d="M33.71,125.55v-10.1h3.39l0.51-3.93h-3.9v-2.51c0-1.14,0.32-1.92,1.95-1.92l2.08,0v-3.52
			c-0.36-0.05-1.6-0.16-3.04-0.16c-3,0-5.06,1.83-5.06,5.2v2.9h-3.4v3.93h3.4v10.1H33.71z"/>
	</g>
	<circle class="st2" cx="339.08" cy="163.63" r="6.46"/>
</g>
</svg>
