<?xml version="1.0" encoding="utf-8"?>
<!-- Generator: Adobe Illustrator 23.0.6, SVG Export Plug-In . SVG Version: 6.00 Build 0)  -->
<svg version="1.1" id="Layer_1" xmlns="http://www.w3.org/2000/svg" xmlns:xlink="http://www.w3.org/1999/xlink" x="0px" y="0px"
	 viewBox="0 0 494.03 165.48" style="enable-background:new 0 0 494.03 165.48;" xml:space="preserve">
<style type="text/css">
	.st0{fill:#F5911E;}
	.st1{fill:#21C5C9;}
	.st2{fill:#2F3E79;}
	.st3{fill:#404040;}
	.st4{fill:#E5E6E7;}
	.st5{fill:#212121;}
	.st6{fill:#FFFFFF;}
	.st7{fill:#666666;}
	.st8{fill:none;stroke:#404040;stroke-width:1.733;stroke-linecap:round;stroke-linejoin:round;stroke-miterlimit:10;}
	.st9{fill:#603813;}
	.st10{fill:#E4790E;}
	.st11{fill:none;stroke:#2F3E79;stroke-width:2.6111;stroke-miterlimit:10;}
	.st12{fill:#FBAD68;}
	.st13{fill:none;stroke:#FFFFFF;stroke-width:1.6794;stroke-miterlimit:10;}
	.st14{fill:none;stroke:#F5911E;stroke-width:2;stroke-linecap:round;stroke-linejoin:round;stroke-miterlimit:10;}
	.st15{fill:#F2F2F2;}
	.st16{fill:none;stroke:#2F3E79;stroke-width:2.1737;stroke-miterlimit:10;}
	.st17{fill:none;stroke:#404040;stroke-width:2.1737;stroke-linecap:round;stroke-linejoin:round;stroke-miterlimit:10;}
	.st18{fill:none;stroke:#404040;stroke-width:2.8441;stroke-miterlimit:10;}
	.st19{fill:none;stroke:#404040;stroke-width:4.2662;stroke-linecap:round;stroke-linejoin:round;stroke-miterlimit:10;}
	.st20{fill:none;stroke:#404040;stroke-width:1.5;stroke-linecap:round;stroke-linejoin:round;stroke-miterlimit:10;}
	.st21{fill:none;stroke:#FFFFFF;stroke-width:6;stroke-linecap:round;stroke-linejoin:round;stroke-miterlimit:10;}
	.st22{fill:none;stroke:#FFFFFF;stroke-width:0.8855;stroke-linecap:round;stroke-linejoin:round;stroke-miterlimit:10;}
	.st23{fill:none;stroke:#FFFFFF;stroke-width:1.5;stroke-linecap:round;stroke-linejoin:round;stroke-miterlimit:10;}
	.st24{fill:none;stroke:#21C5C9;stroke-width:1.6658;stroke-linecap:round;stroke-linejoin:round;stroke-miterlimit:10;}
	.st25{fill:none;stroke:#FFFFFF;stroke-width:2.0176;stroke-linecap:round;stroke-linejoin:round;stroke-miterlimit:10;}
	.st26{fill:none;stroke:#FFFFFF;stroke-width:1.9894;stroke-linecap:round;stroke-linejoin:round;stroke-miterlimit:10;}
</style>
<g>
	<circle class="st15" cx="197.11" cy="20.58" r="20.58"/>
	<path class="st15" d="M446.16,165.48c26.44,0,47.87-21.43,47.87-47.87s-21.43-47.87-47.87-47.87c-11.9,0-22.78,4.35-31.15,11.54
		c-7.48-17.48-24.84-29.74-45.06-29.74c-1.91,0-3.79,0.12-5.64,0.33c-12.79-26.61-40-44.99-71.51-44.99c-28.2,0-52.94,14.73-67,36.9
		c-6.03-2.97-12.8-4.64-19.97-4.64c-12.13,0-23.13,4.78-31.26,12.54c-12.49-14.27-30.82-23.3-51.28-23.3
		c-37.63,0-68.13,30.5-68.13,68.13c0,0.21,0.01,0.41,0.02,0.62c-1.66-0.25-3.36-0.38-5.08-0.38c-18.97,0-34.35,15.38-34.35,34.35
		s15.38,34.35,34.35,34.35"/>
	<rect x="117.75" y="31.37" class="st2" width="195.89" height="110.19"/>
	<g>
		<g>
			<path class="st9" d="M58.08,88.26c-9.01,0-16.34,7.01-16.34,15.64l0.5,13.65l31.68,0.03l0.5-13.7
				C74.42,95.27,67.09,88.26,58.08,88.26z"/>
			<path class="st10" d="M58.08,139.94L58.08,139.94c-3.28,0-5.97-2.69-5.97-5.97v-6.7c0-3.28,2.69-5.97,5.97-5.97h0
				c3.28,0,5.97,2.69,5.97,5.97v6.7C64.05,137.25,61.36,139.94,58.08,139.94z"/>
			<g>
				<path class="st10" d="M45.75,114.99c0.51,2.8-0.54,5.33-2.34,5.66s-3.67-1.68-4.18-4.47s-0.45-5.15,1.36-5.48
					S45.24,112.19,45.75,114.99z"/>
				<path class="st10" d="M70.4,114.99c-0.51,2.8,0.54,5.33,2.34,5.66c1.8,0.33,3.67-1.68,4.18-4.47s0.45-5.15-1.36-5.48
					C73.77,110.37,70.91,112.19,70.4,114.99z"/>
			</g>
			<path class="st9" d="M58.08,88.97L58.08,88.97c-8.6,0-15.63,6.71-15.63,14.91l0.5,13.68c0,8.2,8.45,14.91,15.13,14.91h0
				c6.68,0,15.13-6.71,15.13-14.91l0.5-13.68C73.71,95.68,66.67,88.97,58.08,88.97z"/>
			<path class="st1" d="M75.98,165.48h-35.8c-3,0-5.45-2.45-5.45-5.45v-11.36c0-8.37,6.85-15.21,15.21-15.21h16.28
				c8.37,0,15.21,6.85,15.21,15.21v11.36C81.43,163.03,78.98,165.48,75.98,165.48z"/>
			<path class="st9" d="M58.08,87.59c-9.3,0-16.87,7.57-16.87,16.9l0.16,4.46c16.84-2.53,23.37-14.48,23.37-14.48
				s1.6,9.93,10.08,13.89l0.14-3.9C74.95,95.16,67.38,87.59,58.08,87.59z"/>
		</g>
		<g>
			<path class="st9" d="M109.98,88.26c-9.01,0-16.34,7.01-16.34,15.64l0.5,13.65l31.68,0.03l0.5-13.7
				C126.32,95.27,118.99,88.26,109.98,88.26z"/>
			<path class="st10" d="M109.98,139.94L109.98,139.94c-3.28,0-5.97-2.69-5.97-5.97v-6.7c0-3.28,2.69-5.97,5.97-5.97h0
				c3.28,0,5.97,2.69,5.97,5.97v6.7C115.95,137.25,113.26,139.94,109.98,139.94z"/>
			<g>
				<path class="st10" d="M97.65,114.99c0.51,2.8-0.54,5.33-2.34,5.66c-1.8,0.33-3.67-1.68-4.18-4.47s-0.45-5.15,1.36-5.48
					C94.28,110.37,97.14,112.19,97.65,114.99z"/>
				<path class="st10" d="M122.31,114.99c-0.51,2.8,0.54,5.33,2.34,5.66c1.8,0.33,3.67-1.68,4.18-4.47c0.51-2.8,0.45-5.15-1.36-5.48
					C125.67,110.37,122.81,112.19,122.31,114.99z"/>
			</g>
			<path class="st9" d="M109.98,88.97L109.98,88.97c-8.6,0-15.63,6.71-15.63,14.91l0.5,13.68c0,8.2,8.45,14.91,15.13,14.91h0
				c6.68,0,15.13-6.71,15.13-14.91l0.5-13.68C125.61,95.68,118.58,88.97,109.98,88.97z"/>
			<path class="st1" d="M127.88,165.48h-35.8c-3,0-5.45-2.45-5.45-5.45v-11.36c0-8.37,6.85-15.21,15.21-15.21h16.28
				c8.37,0,15.21,6.85,15.21,15.21v11.36C133.33,163.03,130.88,165.48,127.88,165.48z"/>
			<path class="st9" d="M109.98,87.59c-9.3,0-16.87,7.57-16.87,16.9l0.16,4.46c16.84-2.53,23.37-14.48,23.37-14.48
				s1.6,9.93,10.08,13.89l0.14-3.9C126.85,95.16,119.28,87.59,109.98,87.59z"/>
		</g>
		<g>
			<path class="st9" d="M161.88,88.26c-9.01,0-16.34,7.01-16.34,15.64l0.5,13.65l31.68,0.03l0.5-13.7
				C178.22,95.27,170.89,88.26,161.88,88.26z"/>
			<path class="st10" d="M161.88,139.94L161.88,139.94c-3.28,0-5.97-2.69-5.97-5.97v-6.7c0-3.28,2.69-5.97,5.97-5.97h0
				c3.28,0,5.97,2.69,5.97,5.97v6.7C167.85,137.25,165.16,139.94,161.88,139.94z"/>
			<g>
				<path class="st10" d="M149.55,114.99c0.51,2.8-0.54,5.33-2.34,5.66c-1.8,0.33-3.67-1.68-4.18-4.47
					c-0.51-2.8-0.45-5.15,1.36-5.48C146.18,110.37,149.04,112.19,149.55,114.99z"/>
				<path class="st10" d="M174.21,114.99c-0.51,2.8,0.54,5.33,2.34,5.66s3.67-1.68,4.18-4.47c0.51-2.8,0.45-5.15-1.36-5.48
					C177.57,110.37,174.71,112.19,174.21,114.99z"/>
			</g>
			<path class="st9" d="M161.88,88.97L161.88,88.97c-8.6,0-15.63,6.71-15.63,14.91l0.5,13.68c0,8.2,8.45,14.91,15.13,14.91h0
				c6.68,0,15.13-6.71,15.13-14.91l0.5-13.68C177.51,95.68,170.48,88.97,161.88,88.97z"/>
			<path class="st1" d="M179.78,165.48h-35.8c-3,0-5.45-2.45-5.45-5.45v-11.36c0-8.37,6.85-15.21,15.21-15.21h16.28
				c8.37,0,15.21,6.85,15.21,15.21v11.36C185.23,163.03,182.78,165.48,179.78,165.48z"/>
			<path class="st9" d="M161.88,87.59c-9.3,0-16.87,7.57-16.87,16.9l0.16,4.46c16.84-2.53,23.37-14.48,23.37-14.48
				s1.6,9.93,10.08,13.89l0.14-3.9C178.75,95.16,171.18,87.59,161.88,87.59z"/>
		</g>
	</g>
	<circle class="st1" cx="422.05" cy="34.68" r="24.79"/>
	<g>
		<g>
			<rect x="214.99" y="54.14" class="st6" width="69.25" height="27.7"/>
			<polygon class="st6" points="216.38,77.55 222.69,89.34 229,77.55 			"/>
		</g>
		<circle class="st0" cx="228.1" cy="68.03" r="8.13"/>
		<line class="st24" x1="242.34" y1="61.02" x2="277.99" y2="61.02"/>
		<line class="st24" x1="242.34" y1="65.69" x2="277.99" y2="65.69"/>
		<line class="st24" x1="242.34" y1="70.37" x2="277.99" y2="70.37"/>
		<line class="st24" x1="242.34" y1="75.05" x2="262.44" y2="75.05"/>
	</g>
	<g>
		<g>
			<rect x="129.93" y="43.11" class="st6" width="69.25" height="27.7"/>
			<polygon class="st6" points="131.32,66.53 137.63,78.32 143.94,66.53 			"/>
		</g>
		<circle class="st0" cx="143.04" cy="57.01" r="8.13"/>
		<line class="st24" x1="157.29" y1="49.99" x2="192.93" y2="49.99"/>
		<line class="st24" x1="157.29" y1="54.67" x2="192.93" y2="54.67"/>
		<line class="st24" x1="157.29" y1="59.35" x2="192.93" y2="59.35"/>
		<line class="st24" x1="157.29" y1="64.03" x2="177.38" y2="64.03"/>
	</g>
	<g>
		<rect x="300.06" y="47.98" class="st0" width="76.96" height="76.96"/>
		<polyline class="st25" points="369.7,117.62 307.38,117.62 307.38,55.3 		"/>
		<polyline class="st26" points="307.57,117.34 328.74,80.55 342.98,92.56 369.98,55.02 		"/>
	</g>
	<g>
		<rect x="343.42" y="68.16" class="st1" width="76.96" height="76.96"/>
		<g>
			<rect x="352.31" y="112.46" class="st6" width="11.66" height="24.14"/>
			<rect x="368.15" y="81.51" class="st6" width="11.66" height="55.08"/>
			<rect x="383.99" y="96.89" class="st6" width="11.66" height="39.71"/>
			<rect x="399.83" y="124.04" class="st6" width="11.66" height="12.55"/>
		</g>
	</g>
	<g>
		<rect x="386.78" y="88.34" class="st2" width="76.96" height="76.96"/>
		<g>
			<path class="st0" d="M425.26,126.82L447,109.3c-1.96-2.44-4.37-4.58-7.19-6.31c-4.55-2.78-9.58-4.09-14.54-4.09L425.26,126.82
				L425.26,126.82z"/>
			<path class="st1" d="M447,109.3l-21.73,17.52h0v27.91c3.6,0,7.16-0.7,10.49-2.05c5.36-2.17,10.09-6.01,13.33-11.32
				C455.4,131.03,454.18,118.22,447,109.3z"/>
			<path class="st6" d="M414.77,100.96c-5.36,2.17-10.09,6.01-13.33,11.32c-6.31,10.33-5.09,23.15,2.09,32.06
				c1.96,2.44,4.37,4.58,7.19,6.31c4.55,2.78,9.58,4.09,14.54,4.09v-27.91v0V98.91C421.66,98.91,418.1,99.61,414.77,100.96z"/>
		</g>
	</g>
	<circle class="st15" cx="18.82" cy="71.26" r="12.93"/>
	<g>
		<g>
			<path class="st26" d="M418.06,48.54c0,2.2,1.79,3.99,3.99,3.99s3.99-1.79,3.99-3.99c0-0.23-0.03-0.45-0.07-0.67h-7.84
				C418.09,48.09,418.06,48.31,418.06,48.54z"/>
			<path class="st26" d="M435.23,42.82l-0.35-0.22c-1.58-0.99-2.54-2.72-2.54-4.59v-7.82h-0.01c-0.27-5.54-4.85-9.94-10.45-9.94
				s-10.18,4.41-10.45,9.94h-0.01v8.04c0,1.87-0.96,3.6-2.54,4.59s-2.54,2.72-2.54,4.59v0.47h11.8h7.84h11.8V47.4
				C437.77,45.54,436.81,43.8,435.23,42.82z"/>
		</g>
		<circle class="st26" cx="422.05" cy="17.28" r="2.44"/>
	</g>
	<circle class="st2" cx="9.71" cy="122.75" r="9.71"/>
	<circle class="st0" cx="462.94" cy="54.64" r="6.74"/>
	<circle class="st1" cx="233.28" cy="7.36" r="6.74"/>
	<g>
		<g>
			<path class="st0" d="M265.06,165.48h-30.88c-1.73,0-3.14-1.41-3.14-3.14V99.45c0-1.73,1.41-3.14,3.14-3.14h30.88
				c1.73,0,3.14,1.41,3.14,3.14v62.89C268.2,164.07,266.79,165.48,265.06,165.48z"/>
			<rect x="233.74" y="99.7" class="st6" width="31.75" height="56.05"/>
		</g>
		<g>
			<circle class="st1" cx="249.62" cy="128.6" r="10.73"/>
			<g>
				<path class="st6" d="M247.58,121.73h4.08v3.13l-0.79,6.29h-2.52l-0.77-6.29V121.73z M247.72,132.1h3.81v3.36h-3.81V132.1z"/>
			</g>
		</g>
	</g>
	<g>
		<g>
			<circle class="st0" cx="80.58" cy="56.68" r="22.32"/>
			<polygon class="st0" points="64.55,67.45 62.77,82.74 76.37,75.53 			"/>
		</g>
		<g>
			<path class="st6" d="M91.93,57.56h-22.7c-0.48,0-0.88-0.39-0.88-0.88c0-0.48,0.39-0.88,0.88-0.88h22.7
				c0.48,0,0.88,0.39,0.88,0.88C92.81,57.17,92.42,57.56,91.93,57.56z"/>
			<path class="st6" d="M91.93,50.9h-22.7c-0.48,0-0.88-0.39-0.88-0.88c0-0.48,0.39-0.88,0.88-0.88h22.7c0.48,0,0.88,0.39,0.88,0.88
				C92.81,50.5,92.42,50.9,91.93,50.9z"/>
			<path class="st6" d="M91.93,64.22h-22.7c-0.48,0-0.88-0.39-0.88-0.88c0-0.48,0.39-0.88,0.88-0.88h22.7
				c0.48,0,0.88,0.39,0.88,0.88C92.81,63.83,92.42,64.22,91.93,64.22z"/>
		</g>
	</g>
</g>
</svg>
