<svg id="Layer_1" data-name="Layer 1" xmlns="http://www.w3.org/2000/svg" viewBox="0 0 393 2485.35"><defs><style>.cls-contact-1{fill:#e5e6e7;}.cls-contact-2{fill:#35bec4;}.cls-contact-3{fill:#603917;}.cls-contact-4{fill:#e27a25;}.cls-contact-5{fill:#f49020;}.cls-contact-10,.cls-contact-6,.cls-contact-7{fill:none;}.cls-contact-6{stroke:#2e3e79;}.cls-contact-10,.cls-contact-6{stroke-miterlimit:10;}.cls-contact-6,.cls-contact-7{stroke-width:11.31px;}.cls-contact-7{stroke:#414141;stroke-linecap:round;stroke-linejoin:round;}.cls-contact-8{fill:#fff;}.cls-contact-9{fill:#2e3e79;}.cls-contact-10{stroke:#fff;stroke-width:8.72px;}</style></defs><title>contactnew</title><circle class="cls-contact-1" cx="242.31" cy="1625.53" r="103.05"/><path class="cls-contact-2" d="M129.71,2152.48H263.29a124.85,124.85,0,0,1,124.85,124.85v93.25a44.76,44.76,0,0,1-44.76,44.76H49.62a44.76,44.76,0,0,1-44.76-44.76v-93.25A124.85,124.85,0,0,1,129.71,2152.48Z"/><path class="cls-contact-3" d="M196.5,1781.67c-73.95,0-134.1,57.48-134.1,128.36l4.11,112,260,.21,4.12-112.46C330.6,1839.15,270.44,1781.67,196.5,1781.67Z"/><rect class="cls-contact-4" x="147.51" y="2052.78" width="97.98" height="152.97" rx="48.99"/><path class="cls-contact-4" d="M95.34,2001c4.18,23-4.42,43.76-19.21,46.45S46,2033.69,41.8,2010.72s-3.67-42.29,11.12-45S91.17,1978,95.34,2001Z"/><path class="cls-contact-4" d="M297.66,2001c-4.18,23,4.42,43.76,19.21,46.45s30.15-13.75,34.33-36.72,3.67-42.29-11.12-45S301.83,1978,297.66,2001Z"/><path class="cls-contact-5" d="M196.5,1787.5h0c-70.55,0-128.27,55-128.27,122.31l4.11,112.25c0,67.27,69.35,122.31,124.16,122.31h0c54.81,0,124.16-55,124.16-122.31l4.11-112.25C324.77,1842.54,267.05,1787.5,196.5,1787.5Z"/><line class="cls-contact-6" x1="185.49" y1="1969.53" x2="207.51" y2="1969.53"/><path class="cls-contact-7" d="M99,1994.42a28.37,28.37,0,0,1,56.74,0"/><path class="cls-contact-7" d="M237.29,1994.42a28.37,28.37,0,1,1,56.74,0"/><path class="cls-contact-8" d="M146.71,2052.78a49.79,49.79,0,0,0,99.58,0Z"/><path class="cls-contact-3" d="M196.5,1776.15c-76.34,0-138.45,62.11-138.45,138.67l1.28,36.62c138.23-20.74,191.76-118.81,191.76-118.81s13.09,81.51,82.74,113.95l1.12-32C335,1838.26,272.84,1776.15,196.5,1776.15Z"/><circle class="cls-contact-6" cx="121.67" cy="1978.27" r="63.69"/><circle class="cls-contact-6" cx="271.33" cy="1978.27" r="63.69"/><circle class="cls-contact-1" cx="269.34" cy="1197.56" r="48.24"/><circle class="cls-contact-1" cx="278.35" cy="307.58" r="90.02"/><circle class="cls-contact-1" cx="113.02" cy="991.64" r="73.98"/><circle class="cls-contact-9" cx="137.07" cy="1434.93" r="138.11"/><polygon class="cls-contact-9" points="149.82 1553.76 228.38 1607.59 228.12 1512.35 149.82 1553.76"/><path class="cls-contact-8" d="M208.35,1440.31H67.87a5.42,5.42,0,0,1,0-10.84H208.35a5.42,5.42,0,1,1,0,10.84Z"/><path class="cls-contact-8" d="M208.35,1399.09H67.87a5.43,5.43,0,0,1,0-10.85H208.35a5.43,5.43,0,1,1,0,10.85Z"/><path class="cls-contact-8" d="M208.35,1481.54H67.87a5.43,5.43,0,0,1,0-10.85H208.35a5.43,5.43,0,1,1,0,10.85Z"/><circle class="cls-contact-2" cx="137.07" cy="428.07" r="138.11"/><polygon class="cls-contact-2" points="149.82 546.9 228.38 600.73 228.12 505.5 149.82 546.9"/><path class="cls-contact-8" d="M179.78,512.1c-10.46-.28-21.6-4.31-32.27-9.82-19.71-10.18-36.58-24.09-51.86-40-14.13-14.72-26.46-30.77-35.09-49.4-4.35-9.39-7.46-19.14-7.5-29.63,0-9.52,3-17.76,10-24.45,2.43-2.34,4.74-4.79,7.16-7.14,10.45-10.2,25.54-10.13,35.94.17q7.08,7,14.11,14.11c10.52,10.55,11,24.63,1.16,35.74-3.63,4.08-4.1,8.64-2.62,13.54,3.38,11.18,10.85,19.26,20.13,25.86A31.09,31.09,0,0,0,153.12,447a12.13,12.13,0,0,0,10.06-3c11.51-10.17,25.44-9.68,36.32,1.21q6.87,6.87,13.74,13.74c10.41,10.47,10.47,25.61.16,36.15-2.3,2.34-4.68,4.61-7,7C199.63,509.1,191.22,512.21,179.78,512.1Zm1.43-8.76c6.65.09,12.66-1.66,17.59-6.28,3.09-2.89,6.1-5.88,9-9a15.82,15.82,0,0,0-.16-22.23q-7.75-8-15.77-15.76c-6.28-6.06-15.43-6-22.07-.27a28.46,28.46,0,0,1-7.78,4.95c-5.92,2.35-12,1.4-17.68-.95a59.52,59.52,0,0,1-31.76-30.14c-5-10.37-5.19-20.26,3.46-29.4,5.42-5.73,4.67-15.2-.94-21q-7.75-8-15.77-15.75c-6.57-6.31-16-6.19-22.6.14-2.5,2.39-4.86,4.92-7.35,7.31a24.19,24.19,0,0,0-7.52,17.86c-.12,8.4,2.28,16.19,5.54,23.78,6.42,14.9,15.66,28,26.19,40.21,16.21,18.78,34.57,35,56.52,46.88C159.8,499,170,503,181.21,503.34Z"/><circle class="cls-contact-5" cx="254.89" cy="925.02" r="138.11"/><polygon class="cls-contact-5" points="245.92 1044.2 169.1 1100.49 166.34 1005.3 245.92 1044.2"/><rect class="cls-contact-10" x="168.16" y="863.65" width="173.46" height="122.73" rx="10.46"/><path class="cls-contact-10" d="M331.15,863.66H178.62a10.46,10.46,0,0,0-9.34,5.85l78.62,78.62a9.89,9.89,0,0,0,14,0l78.62-78.62A10.44,10.44,0,0,0,331.15,863.66Z"/><path class="cls-contact-10" d="M247.9,948.13l-20-20L172,984a10.39,10.39,0,0,0,6.61,2.43H331.15a10.37,10.37,0,0,0,6.61-2.43L281.9,928.1l-20,20A9.89,9.89,0,0,1,247.9,948.13Z"/><circle class="cls-contact-1" cx="189.38" cy="694.13" r="42.8"/></svg>