<svg id="Layer_1" data-name="Layer 1" xmlns="http://www.w3.org/2000/svg" viewBox="0 0 112.624 112.624"><defs><style>.cls-1{fill:none;stroke:#f39200;stroke-miterlimit:10;}.cls-2{fill:#f39200;}</style></defs><circle class="cls-1" cx="56.312" cy="56.312" r="56.312"/><path class="cls-2" d="M92.956,75.133V32.276a4.985,4.985,0,0,0-4.985-4.985H23.241a4.985,4.985,0,0,0-4.986,4.985V75.133h-5.47v2.291a4.986,4.986,0,0,0,4.986,4.986h75.67a4.985,4.985,0,0,0,4.985-4.986V75.133ZM22.965,31.052H88.246v41.81H22.965Z"/><rect class="cls-2" x="66.913" y="30.858" width="1.418" height="43.016"/><path class="cls-2" d="M45.58,53.256a8.8,8.8,0,1,1,8.8-8.8A8.815,8.815,0,0,1,45.58,53.256Zm0-16.189a7.385,7.385,0,1,0,7.384,7.385A7.394,7.394,0,0,0,45.58,37.067Z"/><path class="cls-2" d="M57.79,70.417H33.369a3.045,3.045,0,0,1-2.359-1.112,3.084,3.084,0,0,1-.649-2.562,15.506,15.506,0,0,1,30.438,0,3.1,3.1,0,0,1-.651,2.564A3.05,3.05,0,0,1,57.79,70.417ZM45.58,55.625A14.1,14.1,0,0,0,31.754,67.013a1.673,1.673,0,0,0,.35,1.39,1.632,1.632,0,0,0,1.265.6H57.79a1.628,1.628,0,0,0,1.263-.6,1.669,1.669,0,0,0,.352-1.39A14.1,14.1,0,0,0,45.58,55.625Z"/><circle class="cls-2" cx="27.033" cy="34.529" r="1.27"/><rect class="cls-2" x="71.099" y="34.085" width="3.683" height="3.683"/><rect class="cls-2" x="71.099" y="40.46" width="3.683" height="3.683"/><rect class="cls-2" x="71.099" y="46.835" width="3.683" height="3.683"/><rect class="cls-2" x="71.099" y="53.209" width="3.683" height="3.683"/><rect class="cls-2" x="71.099" y="59.584" width="3.683" height="3.683"/><rect class="cls-2" x="71.099" y="65.959" width="3.683" height="3.683"/><rect class="cls-2" x="76.432" y="35.153" width="9.652" height="1.418"/><rect class="cls-2" x="76.432" y="41.529" width="9.652" height="1.418"/><rect class="cls-2" x="76.432" y="47.903" width="9.652" height="1.418"/><rect class="cls-2" x="76.432" y="54.278" width="9.652" height="1.418"/><rect class="cls-2" x="76.432" y="60.653" width="9.652" height="1.418"/><rect class="cls-2" x="76.432" y="67.028" width="9.652" height="1.418"/></svg>