<svg id="Layer_1" data-name="Layer 1" xmlns="http://www.w3.org/2000/svg" viewBox="0 0 112.624 112.624"><defs><style>.cls-1{fill:none;stroke:#f39200;stroke-miterlimit:10;}.cls-2{fill:#f39200;}</style></defs><circle class="cls-1" cx="56.312" cy="56.312" r="56.312"/><path class="cls-2" d="M81.778,18.5H30.846a5.419,5.419,0,0,0-5.419,5.419V89.766a5.419,5.419,0,0,0,5.419,5.418H81.778A5.419,5.419,0,0,0,87.2,89.766V23.923A5.419,5.419,0,0,0,81.778,18.5ZM56.312,92.947a2.15,2.15,0,1,1,2.149-2.15A2.15,2.15,0,0,1,56.312,92.947Zm27.416-9.2A2.728,2.728,0,0,1,81,86.479H31.625A2.728,2.728,0,0,1,28.9,83.751V24.541a2.728,2.728,0,0,1,2.729-2.728H81a2.728,2.728,0,0,1,2.729,2.728Z"/><polygon class="cls-2" points="77.479 72.722 34.502 72.722 34.502 27.424 35.788 27.424 35.788 71.436 77.479 71.436 77.479 72.722"/><polygon class="cls-2" points="35.684 72.542 34.606 71.616 44.751 59.795 50.962 62.806 60.475 52.513 63.281 42.275 71.96 34.389 76.507 27.655 77.684 28.45 72.979 35.382 64.542 43.048 61.754 53.222 51.29 64.543 45.116 61.55 35.684 72.542"/><rect class="cls-2" x="35.814" y="77.113" width="3.395" height="3.395"/><rect class="cls-2" x="40.96" y="78.196" width="13.712" height="1.229"/><rect class="cls-2" x="58.179" y="77.113" width="3.395" height="3.395"/><rect class="cls-2" x="63.325" y="78.196" width="13.712" height="1.229"/></svg>