<svg id="Layer_1" data-name="Layer 1" xmlns="http://www.w3.org/2000/svg" viewBox="0 0 112.624 112.624"><defs><style>.cls-1{fill:none;stroke:#f39200;stroke-miterlimit:10;}.cls-2{fill:#f39200;}</style></defs><circle class="cls-1" cx="56.312" cy="56.312" r="56.312"/><path class="cls-2" d="M47.774,72.6a24.828,24.828,0,1,1,17.554-7.272A24.659,24.659,0,0,1,47.774,72.6Zm0-48.231a23.406,23.406,0,1,0,16.551,6.855h0A23.253,23.253,0,0,0,47.774,24.369Z"/><path class="cls-2" d="M47.774,68.881A21.106,21.106,0,1,1,62.7,32.85h0A21.107,21.107,0,0,1,47.774,68.881Zm0-40.785A19.679,19.679,0,1,0,61.7,33.853h0A19.633,19.633,0,0,0,47.774,28.1Z"/><path class="cls-2" d="M85.592,89.676a4.071,4.071,0,0,1-2.889-1.2L64.845,70.623a4.09,4.09,0,0,1,0-5.778,4.193,4.193,0,0,1,5.779,0L88.481,82.7a4.1,4.1,0,0,1,0,5.779h0A4.071,4.071,0,0,1,85.592,89.676ZM67.734,65.07a2.664,2.664,0,0,0-1.886,4.55L83.706,87.478a2.67,2.67,0,0,0,3.772,0h0a2.676,2.676,0,0,0,0-3.773L69.621,65.848A2.649,2.649,0,0,0,67.734,65.07Z"/><path class="cls-2" d="M47.774,59.359a4.682,4.682,0,0,1-3.334-1.381l-7.292-7.293A7.207,7.207,0,1,1,47.34,40.493l.434.434.434-.434a7.217,7.217,0,0,1,10.193,0h0a7.223,7.223,0,0,1,0,10.192l-7.292,7.293A4.684,4.684,0,0,1,47.774,59.359Z"/></svg>




