<svg id="Layer_1" data-name="Layer 1" xmlns="http://www.w3.org/2000/svg" viewBox="0 0 111.386 111.386"><defs><style>.cls-1{fill:none;stroke:#f39200;stroke-miterlimit:10;}.cls-2{fill:#f39200;}</style></defs><path class="cls-1"  d="M55.693,0a55.693,55.693,0,1,0,55.693,55.693A55.756,55.756,0,0,0,55.693,0Zm0,109.386a53.693,53.693,0,1,1,53.693-53.693A53.753,53.753,0,0,1,55.693,109.386Z"/><path class="cls-1"  d="M22.558,54.481a7.933,7.933,0,1,0,7.934,7.933A7.943,7.943,0,0,0,22.558,54.481Zm0,14.073a6.14,6.14,0,1,1,6.139-6.14A6.147,6.147,0,0,1,22.558,68.554Z"/><path class="cls-1" d="M91.186,70.347a7.933,7.933,0,1,0-7.935-7.933A7.942,7.942,0,0,0,91.186,70.347Zm0-14.072a6.14,6.14,0,1,1-6.14,6.139A6.146,6.146,0,0,1,91.186,56.275Z"/><path class="cls-1" d="M101.953,43.157c-2.354-8.546-6.821-11.725-8.872-12.77l.749-1.566a1,1,0,0,0-.624-1.392c-8.06-2.334-25.946-2.714-38.686-1.89C42.979,26.288,27.9,38.107,26.3,39.39c-1.29.519-11.222,4.516-14.364,5.833C8.175,46.8,7.285,52.382,6.64,58.458c-.595,5.581,1.875,7.75,1.98,7.839a1,1,0,0,0,.648.238l3.627,0a1,1,0,0,0,.942-1.308,9.164,9.164,0,1,1,17.489-.15,1,1,0,0,0,.156.889.912.912,0,0,0,.809.4l49.07-.422a1,1,0,0,0,.96-1.25,9.075,9.075,0,0,1-.3-2.278,9.165,9.165,0,1,1,18.085,2.062,1,1,0,0,0,1.566,1.032,8.705,8.705,0,0,0,2.907-4.87C105.173,58.022,104.954,54.048,101.953,43.157Zm-88.8,5.952a21.178,21.178,0,0,1,5.376-2.226,43.952,43.952,0,0,1-6.764,5.274A4.78,4.78,0,0,1,13.155,49.109Zm89.473,11.085a7.54,7.54,0,0,1-.335,1.093,11.165,11.165,0,0,0-22.272,1.127,10.716,10.716,0,0,0,.113,1.538l-46.583.4a11.164,11.164,0,1,0-22.158-1.939,11.024,11.024,0,0,0,.205,2.121H9.709c-.463-.6-1.456-2.341-1.081-5.866a40.878,40.878,0,0,1,1.343-7.75,11.05,11.05,0,0,0-.285,2.909,1,1,0,0,0,1.329.886c4.2-1.475,11.51-8.86,11.818-9.174a1,1,0,0,0-.951-1.673c-.394.1-2.33.583-4.442,1.258,4.364-1.773,9.662-3.9,9.739-3.934a.987.987,0,0,0,.256-.151c.158-.127,15.905-12.772,27.214-13.5,11.989-.778,28.547-.486,36.855,1.513l-.677,1.415a1,1,0,0,0,.616,1.389c.237.074,5.846,1.9,8.583,11.836C103.094,54.825,103.064,58.282,102.628,60.194Z"/><path class="cls-1" d="M87.782,30.269a129.7,129.7,0,0,0-20.868-2.114.98.98,0,0,0-.72.285,1,1,0,0,0-.3.715V41.614a1,1,0,0,0,1,1,.888.888,0,0,0,.115-.007c8.093-.938,15.193-1.939,17.869-2.325a3.651,3.651,0,0,0,2.893-2.326l1.736-4.608a2.3,2.3,0,0,0-1.724-3.079Zm-.147,2.374L85.9,37.25A1.65,1.65,0,0,1,84.592,38.3c-2.545.368-9.1,1.292-16.7,2.188V30.18a127.332,127.332,0,0,1,19.519,2.055.289.289,0,0,1,.2.146A.312.312,0,0,1,87.635,32.643Z"/><path class="cls-1" d="M62.962,28.132a69.444,69.444,0,0,0-11.075.8c-8.635,1.685-21.227,8.89-22.612,12.143a1.636,1.636,0,0,0,.067,1.581c.466.722,1.33,2.063,9.979,2.063A232.546,232.546,0,0,0,63.08,43.049a1,1,0,0,0,.892-.994V29.132a1,1,0,0,0-.3-.711A1.017,1.017,0,0,0,62.962,28.132Zm-.99,13.025c-25.4,2.713-29.978,1.2-30.8.566C32.237,39.7,43.476,32.612,52.27,30.9a63.7,63.7,0,0,1,9.7-.75Z"/><path class="cls-1" d="M61.411,44.937l-4.206.369a2.127,2.127,0,0,0,.182,4.245q.095,0,.189-.009h0l4.208-.369a2.126,2.126,0,1,0-.373-4.236Zm.2,2.244L57.4,47.55a.15.15,0,0,1-.137-.116.143.143,0,0,1,.115-.136l4.206-.369H61.6a.126.126,0,0,1,.01.252Z"/><path class="cls-1" d="M14.392,72.342c-2.46,0-4.091,2.166-4.091,4.839v.027c0,2.673,1.605,4.811,4.064,4.811s4.091-2.165,4.091-4.838v-.027C18.456,74.481,16.837,72.342,14.392,72.342Zm2.365,4.866c0,1.844-.909,3.328-2.365,3.328S12,79.025,12,77.181v-.027c0-1.858.922-3.328,2.366-3.328s2.392,1.51,2.392,3.355Z"/><path class="cls-1" d="M23.8,72.342c-2.46,0-4.091,2.166-4.091,4.839v.027c0,2.673,1.605,4.811,4.064,4.811s4.091-2.165,4.091-4.838v-.027C27.868,74.481,26.25,72.342,23.8,72.342Zm2.366,4.866c0,1.844-.91,3.328-2.366,3.328s-2.393-1.511-2.393-3.355v-.027c0-1.858.923-3.328,2.366-3.328s2.393,1.51,2.393,3.355Z"/><polygon fill="#f39200" points="28.175 73.238 28.523 74.575 30.207 74.106 30.207 81.859 31.837 81.859 31.837 72.436 30.688 72.436 28.175 73.238"/><path class="cls-1" d="M37.439,72.342c-2.46,0-4.091,2.166-4.091,4.839v.027c0,2.673,1.605,4.811,4.064,4.811S41.5,79.854,41.5,77.181v-.027C41.5,74.481,39.884,72.342,37.439,72.342ZM39.8,77.208c0,1.844-.909,3.328-2.365,3.328s-2.394-1.511-2.394-3.355v-.027c0-1.858.923-3.328,2.367-3.328s2.392,1.51,2.392,3.355Z"/><polygon fill="#f39200" points="42.079 73.238 42.426 74.575 44.11 74.106 44.11 81.859 45.741 81.859 45.741 72.436 44.591 72.436 42.079 73.238"/><path class="cls-1" d="M51.342,72.342c-2.46,0-4.09,2.166-4.09,4.839v.027c0,2.673,1.6,4.811,4.063,4.811s4.091-2.165,4.091-4.838v-.027C55.406,74.481,53.788,72.342,51.342,72.342Zm2.366,4.866c0,1.844-.909,3.328-2.366,3.328s-2.392-1.511-2.392-3.355v-.027c0-1.858.922-3.328,2.365-3.328s2.393,1.51,2.393,3.355Z"/><path class="cls-1" d="M60.753,72.342c-2.459,0-4.09,2.166-4.09,4.839v.027c0,2.673,1.6,4.811,4.063,4.811s4.091-2.165,4.091-4.838v-.027C64.817,74.481,63.2,72.342,60.753,72.342Zm2.366,4.866c0,1.844-.909,3.328-2.366,3.328s-2.393-1.511-2.393-3.355v-.027c0-1.858.923-3.328,2.366-3.328s2.393,1.51,2.393,3.355Z"/><polygon fill="#f39200" points="65.392 73.238 65.74 74.575 67.423 74.106 67.423 81.859 69.054 81.859 69.054 72.436 67.905 72.436 65.392 73.238"/><path class="cls-1" d="M74.657,72.342c-2.46,0-4.091,2.166-4.091,4.839v.027c0,2.673,1.6,4.811,4.063,4.811s4.091-2.165,4.091-4.838v-.027C78.72,74.481,77.1,72.342,74.657,72.342Zm2.365,4.866c0,1.844-.908,3.328-2.365,3.328s-2.393-1.511-2.393-3.355v-.027c0-1.858.922-3.328,2.365-3.328s2.393,1.51,2.393,3.355Z"/><polygon fill="#f39200" points="79.028 73.238 79.376 74.575 81.059 74.106 81.059 81.859 82.69 81.859 82.69 72.436 81.541 72.436 79.028 73.238"/><polygon fill="#f39200"  points="83.787 73.238 84.134 74.575 85.818 74.106 85.818 81.859 87.449 81.859 87.449 72.436 86.299 72.436 83.787 73.238"/><path class="cls-1" d="M92.784,72.342c-2.46,0-4.091,2.166-4.091,4.839v.027c0,2.673,1.6,4.811,4.063,4.811s4.091-2.165,4.091-4.838v-.027C96.847,74.481,95.229,72.342,92.784,72.342Zm2.365,4.866c0,1.844-.908,3.328-2.365,3.328s-2.393-1.511-2.393-3.355v-.027c0-1.858.922-3.328,2.365-3.328s2.393,1.51,2.393,3.355Z"/><polygon fill="#f39200"  points="97.422 73.238 97.77 74.575 99.454 74.106 99.454 81.859 101.085 81.859 101.085 72.436 99.935 72.436 97.422 73.238"/></svg>