<svg id="Layer_1" data-name="Layer 1" xmlns="http://www.w3.org/2000/svg" viewBox="0 0 111.386 111.386"><path d="M101.17,61.5A48.894,48.894,0,0,0,86.391,41.306l6.12-9.071a1,1,0,0,0-.829-1.56H82.739l3.908-16.416a1,1,0,0,0-1.8-.79l-13.222,19.6a48.512,48.512,0,0,0-13.941-2.632V26.955a1.989,1.989,0,0,0-3.978,0v3.48A48.486,48.486,0,0,0,10.215,61.5a1,1,0,0,0,.932,1.363h.1a1,1,0,0,0,.674-.262,19.864,19.864,0,0,1,13.5-5.381c5.161,0,11.113,2.747,13.435,5.314l.011.008a.989.989,0,0,0,.323.234.559.559,0,0,0,.056.012.952.952,0,0,0,.329.074H39.8a1,1,0,0,0,.725-.311A19.4,19.4,0,0,1,53.7,56.727V85.1a.986.986,0,0,0-.729.945V93.3a3.671,3.671,0,0,1-3.918,3.657,3.783,3.783,0,0,1-3.411-3.892,2.718,2.718,0,0,0-5.435,0,9.214,9.214,0,0,0,8.643,9.324c.154.008.309.012.462.012a9.109,9.109,0,0,0,9.095-9.1V86.044a.986.986,0,0,0-.729-.945V56.727a19.4,19.4,0,0,1,13.18,5.825,1,1,0,0,0,.724.311h.223a.957.957,0,0,0,.329-.074.488.488,0,0,0,.055-.012.993.993,0,0,0,.324-.234l.011-.008C74.85,59.967,80.8,57.22,85.962,57.22a19.862,19.862,0,0,1,13.5,5.381,1,1,0,0,0,.675.262h.1a1,1,0,0,0,.931-1.363ZM83.428,19.146,80.5,31.444a1,1,0,0,0,.972,1.231H89.8L84.23,40.934h0l-6.258,9.277,2.928-12.3a1,1,0,0,0-.973-1.232H71.6ZM38.716,59.739A23.839,23.839,0,0,0,25.423,55.22a21.342,21.342,0,0,0-11.85,3.569A46.42,46.42,0,0,1,49.907,32.751c-3.965,2.762-7.037,7.705-9.026,14.629A63.857,63.857,0,0,0,38.716,59.739Zm17.7,33.56a7.109,7.109,0,0,1-7.459,7.091h0a7.214,7.214,0,0,1-6.742-7.326.718.718,0,0,1,1.435.07,5.766,5.766,0,0,0,5.278,5.817A5.67,5.67,0,0,0,54.975,93.3V87.044h1.436Zm.312-38.612c-.03,0-.056-.018-.086-.019-.136,0-.275,0-.413,0-.179,0-.35-.02-.531-.02s-.352.017-.531.02c-.138,0-.277,0-.413,0v.016l-.077,0v-.016c-.03,0-.055.016-.085.019a22.1,22.1,0,0,0-13.846,4.95c.539-6.48,3.115-24.943,14.954-27.22C67.532,34.7,70.107,53.16,70.647,59.64A22.125,22.125,0,0,0,56.723,54.687Zm29.239.533A23.838,23.838,0,0,0,72.67,59.739,63.8,63.8,0,0,0,70.5,47.38c-1.988-6.924-5.061-11.868-9.026-14.629a46.386,46.386,0,0,1,8.992,2.027l-1.583,2.346a1,1,0,0,0-.169.507,1,1,0,0,0,1,1.052h8.945L74.752,55.1a.987.987,0,0,0,.944,1.226c.009,0,.018.006.028.006a1.013,1.013,0,0,0,.263-.038c.017-.005.032-.013.048-.019a.974.974,0,0,0,.232-.112c.023-.015.044-.029.066-.045a1.01,1.01,0,0,0,.22-.227l8.728-12.938A47,47,0,0,1,97.8,58.783,21.329,21.329,0,0,0,85.962,55.22Z"/><path d="M55.693,0a55.693,55.693,0,1,0,55.693,55.693A55.756,55.756,0,0,0,55.693,0Zm0,109.386a53.693,53.693,0,1,1,53.693-53.693A53.754,53.754,0,0,1,55.693,109.386Z"/></svg>