<svg id="Layer_1" data-name="Layer 1" xmlns="http://www.w3.org/2000/svg" viewBox="0 0 112.624 112.624"><defs><style>.cls-1{fill:none;stroke:#f39200;stroke-miterlimit:10;}.cls-2{fill:#f39200;}</style></defs><circle class="cls-1" cx="56.312" cy="56.312" r="56.312"/><path class="cls-2" d="M52.4,55.885H15.278a3.5,3.5,0,0,1-3.491-3.491V31.283a3.5,3.5,0,0,1,3.491-3.491H52.4a3.5,3.5,0,0,1,3.49,3.491V52.394A3.5,3.5,0,0,1,52.4,55.885ZM15.278,29.21a2.075,2.075,0,0,0-2.073,2.073V52.394a2.075,2.075,0,0,0,2.073,2.073H52.4a2.075,2.075,0,0,0,2.072-2.073V31.283A2.075,2.075,0,0,0,52.4,29.21Z"/><path class="cls-2" d="M97.346,55.885H60.23a3.5,3.5,0,0,1-3.491-3.491V31.283a3.5,3.5,0,0,1,3.491-3.491H97.346a3.5,3.5,0,0,1,3.491,3.491V52.394A3.5,3.5,0,0,1,97.346,55.885ZM60.23,29.21a2.075,2.075,0,0,0-2.073,2.073V52.394a2.075,2.075,0,0,0,2.073,2.073H97.346a2.075,2.075,0,0,0,2.072-2.073V31.283a2.075,2.075,0,0,0-2.072-2.073Z"/><path class="cls-2" d="M52.4,84.832H15.278a3.5,3.5,0,0,1-3.491-3.491V60.229a3.5,3.5,0,0,1,3.491-3.49H52.4a3.494,3.494,0,0,1,3.49,3.49V81.341A3.5,3.5,0,0,1,52.4,84.832ZM15.278,58.157a2.075,2.075,0,0,0-2.073,2.072V81.341a2.075,2.075,0,0,0,2.073,2.072H52.4a2.074,2.074,0,0,0,2.072-2.072V60.229A2.075,2.075,0,0,0,52.4,58.157Z"/><path class="cls-2" d="M97.346,84.832H60.23a3.5,3.5,0,0,1-3.491-3.491V60.229a3.5,3.5,0,0,1,3.491-3.49H97.346a3.5,3.5,0,0,1,3.491,3.49V81.341A3.5,3.5,0,0,1,97.346,84.832ZM60.23,58.157a2.075,2.075,0,0,0-2.073,2.072V81.341a2.075,2.075,0,0,0,2.073,2.072H97.346a2.074,2.074,0,0,0,2.072-2.072V60.229a2.074,2.074,0,0,0-2.072-2.072Z"/><path class="cls-2" d="M42.18,31.942A9.873,9.873,0,1,0,52.222,41.81H42.18Z"/><path class="cls-2" d="M42.346,31.933c-.056,0-.11.008-.166.009V41.81H52.222A9.876,9.876,0,0,0,42.346,31.933Z"/><rect class="cls-2" x="15.45" y="32.217" width="12.577" height="1.965"/><rect class="cls-2" x="15.45" y="41.582" width="12.577" height="1.965"/><polygon class="cls-2" points="79.63 33.2 63.232 33.2 63.232 40.179 64.698 40.179 66.146 42.006 67.593 40.179 79.63 40.179 79.63 33.2"/><polygon class="cls-2" points="94.389 43.458 75.367 43.458 75.367 50.51 76.552 50.51 77.869 52.173 79.187 50.51 94.389 50.51 94.389 43.458"/><rect class="cls-2" x="16.022" y="76.419" width="4.591" height="4.591"/><rect class="cls-2" x="22.286" y="76.419" width="4.591" height="4.591"/><rect class="cls-2" x="22.286" y="60.348" width="13.347" height="13.347"/><rect class="cls-2" x="28.55" y="76.419" width="4.591" height="4.591"/><rect class="cls-2" x="34.814" y="76.419" width="4.591" height="4.591"/><rect class="cls-2" x="41.078" y="76.419" width="4.591" height="4.591"/><rect class="cls-2" x="47.342" y="76.419" width="4.591" height="4.591"/><path class="cls-2" d="M78.788,65.128a12.3,12.3,0,0,0-12.3,12.3h8.2a4.1,4.1,0,1,1,8.2,0h8.2A12.3,12.3,0,0,0,78.788,65.128Z"/><path class="cls-2" d="M77.826,77.205c0-.531.962-11.791.962-11.7,0,.531.961,11.169.961,11.7a.962.962,0,0,1-1.923,0Z"/></svg>