<svg id="Layer_1" data-name="Layer 1" xmlns="http://www.w3.org/2000/svg" viewBox="0 0 111.386 111.386"><defs><style>.cls-1{fill:none;stroke:#f39200;stroke-miterlimit:10;}.cls-2{fill:#f39200;}</style></defs><path class="cls-1" d="M55.693,0a55.693,55.693,0,1,0,55.693,55.693A55.756,55.756,0,0,0,55.693,0Zm0,109.386a53.693,53.693,0,1,1,53.693-53.693A53.754,53.754,0,0,1,55.693,109.386Z"/><path class="cls-1" d="M90.148,23.808a.959.959,0,0,0-.767-.291c-10.869.645-21.7,6.477-30.2,12.549A10.364,10.364,0,0,0,50.2,32.727a10.541,10.541,0,0,0-20.679-.11A10.526,10.526,0,0,0,18.553,47.455a1,1,0,0,0,.909.582h9.9l-3.781,3.782a2.221,2.221,0,0,0,1.069,3.735l10.367,2.4L55.978,76.92l2.405,10.37a2.222,2.222,0,0,0,3.735,1.069l7.668-7.668a6.814,6.814,0,0,0,1.983-5.174l-.215-4.032h16.81a1,1,0,0,0,.961-.723,9.322,9.322,0,0,0-8.768-11.924,10.535,10.535,0,0,0-2.715-3.99c6.09-8.513,11.951-19.375,12.6-30.274A1,1,0,0,0,90.148,23.808ZM20.127,46.037a8.4,8.4,0,0,1-.541-2.976,8.513,8.513,0,0,1,10.537-8.3,1,1,0,0,0,1.228-.875,8.5,8.5,0,0,1,8.5-7.706,8.59,8.59,0,0,1,8.5,7.792,1,1,0,0,0,1.215.889,8.41,8.41,0,0,1,7.987,2.373c-.173.129-.348.265-.522.4-.218.164-.432.327-.647.491q-.495.378-.991.765c-.329.257-.651.512-.971.767q-.334.267-.669.538c-.181.146-.371.3-.548.441s-.344.288-.518.432q-.363.3-.726.605-.507.429-1,.853c-.115.1-.23.194-.344.293l-3.7-.2-8.492-.453h0a6.784,6.784,0,0,0-5.174,1.984L31.36,46.037ZM27.1,53.606a.221.221,0,0,1-.106-.373l5.487-5.487,0,0,2.178-2.178a4.673,4.673,0,0,1,.771-.621c.059-.039.127-.064.188-.1a4.969,4.969,0,0,1,.687-.347c.084-.032.172-.05.258-.078a4.772,4.772,0,0,1,.673-.18c.118-.021.24-.024.36-.036a4.76,4.76,0,0,1,.716-.039l10.162.543-.27.246-.237.216A135.67,135.67,0,0,0,37.317,55.975ZM68.372,79.277,60.7,86.945a.215.215,0,0,1-.218.056.21.21,0,0,1-.154-.163L57.969,76.649a134.018,134.018,0,0,0,10.86-10.707l.144-.158c.086-.1.171-.187.258-.284l.269,5.038v0l.27,5.082A4.81,4.81,0,0,1,68.372,79.277ZM78.886,60.142a1.021,1.021,0,0,0,1.023.719l.129-.009c.107-.007.214-.016.323-.016A7.344,7.344,0,0,1,87.7,68.172a7.218,7.218,0,0,1-.122,1.313H71.447l-.326-6.125c.1-.116.2-.233.3-.349q.439-.512.88-1.036c.18-.215.36-.43.538-.645.162-.2.324-.384.486-.582s.31-.387.465-.578.292-.362.437-.544q.432-.54.868-1.1.333-.427.658-.853c.2-.259.4-.517.595-.782.108-.143.221-.287.328-.43A8.5,8.5,0,0,1,78.886,60.142ZM56.853,74.966,38.989,57.1c3.945-4.494,26.741-29.38,49.366-31.5C86.234,48.215,61.347,71.019,56.853,74.966Z"/><path class="cls-1" d="M70.386,49.29a6.016,6.016,0,1,0-4.254-1.762A5.973,5.973,0,0,0,70.386,49.29Zm-2.839-8.855a4.016,4.016,0,1,1,0,5.679A3.988,3.988,0,0,1,67.547,40.435Z"/><path class="cls-1" d="M45.947,67.806a1,1,0,0,0-1.414,0L22.7,89.643a1,1,0,1,0,1.414,1.414L45.947,69.221A1,1,0,0,0,45.947,67.806Z"/><path class="cls-1" d="M37.749,65.135a1,1,0,0,0-1.414,0L19.294,82.176a1,1,0,1,0,1.414,1.414L37.749,66.549A1,1,0,0,0,37.749,65.135Z"/><path class="cls-1" d="M49.079,74.991a1,1,0,0,0-1.414,0L33.3,89.361a1,1,0,1,0,1.414,1.414l14.37-14.37A1,1,0,0,0,49.079,74.991Z"/><path class="cls-1" d="M49.783,83.373l-6.908,6.909A1,1,0,1,0,44.289,91.7L51.2,84.787a1,1,0,0,0-1.414-1.414Z"/><path class="cls-1" d="M24.392,69.221l6.448-6.448a1,1,0,0,0-1.414-1.414l-6.448,6.447a1,1,0,0,0,1.414,1.415Z"/></svg>
