<svg id="Layer_1" data-name="Layer 1" xmlns="http://www.w3.org/2000/svg" viewBox="0 0 111.386 111.386"><defs><style>.cls-1{fill:none;stroke:#f39200;stroke-miterlimit:10;}.cls-2{fill:#f39200;}</style></defs><path class="cls-1" d="M55.693,0a55.693,55.693,0,1,0,55.693,55.693A55.756,55.756,0,0,0,55.693,0Zm0,109.386a53.693,53.693,0,1,1,53.693-53.693A53.754,53.754,0,0,1,55.693,109.386Z"/><path class="cls-1" d="M105.751,58.98,96.436,32.934a1,1,0,0,0-1.307-.594L77.141,39.388,72.728,36.8l-.38-5.5a1,1,0,0,0-1.171-.916L63.925,31.66a13.548,13.548,0,0,0-14.531,1.011.97.97,0,0,0-.245.024L36.031,36.688c-.008,0-.013.008-.021.011l-.933-.219a1,1,0,0,0-1.082.454l-1.614,2.653-3.616-2.225L29.8,35.7a1,1,0,0,0-.293-1.363l-6.845-4.562a1,1,0,0,0-1.4.291L6.25,53.453a1,1,0,0,0,.308,1.386L13.783,59.4a1,1,0,0,0,.534.154.988.988,0,0,0,.222-.025,1,1,0,0,0,.625-.444l.429-.684,3.918,2.379a.992.992,0,0,0,.146,1.105l6.755,7.506a6.432,6.432,0,0,0,.842,6.27,5.847,5.847,0,0,0,4.074,1.675,6.676,6.676,0,0,0,1.88,4,6.215,6.215,0,0,0,4.347,1.624c.178,0,.339-.008.491-.018A5.852,5.852,0,0,0,41.2,86.468a6.743,6.743,0,0,0,2.615.441,13.374,13.374,0,0,0,1.788-.127,4.751,4.751,0,0,0,.394.572,4.269,4.269,0,0,0,3.036,1.477q.421.032.814.032a4.809,4.809,0,0,0,4.486-2.18l5.808,2.38a.993.993,0,0,0,.481.267l6.7,1.568a.972.972,0,0,0,.227.027,1,1,0,0,0,.521-.146l3.9-2.377a.773.773,0,0,0,.077-.062c.014-.01.031-.014.045-.026l5.323-4.467,0,0,0,0,5.608-4.752a.94.94,0,0,0,.07-.086c.018-.018.042-.025.058-.045l3.8-4.657a1,1,0,0,0,.2-.862l-.89-3.78,18.992-9.449A1,1,0,0,0,105.751,58.98ZM70.429,32.547l.209,3.028-4.022-2.357ZM46.352,35.636l-2.6,2.875L39.883,37.6ZM14.419,56.509l-.007.007,0,.008L14,57.175,8.478,53.686,22.4,32.006l5.189,3.459Zm3.019-1.054L27.7,39.057,31.342,41.3,21.33,57.762Zm9.936,12.018L21.641,61.1l13.686-22.51,6.891,1.613-1.051,1.162a5.744,5.744,0,0,0,8.168,8.063l4.823-4.478a3.169,3.169,0,0,1,2.054-.847l2.843-.095a.615.615,0,0,1,.609.449,18.39,18.39,0,0,0,6.046,9.283L48.675,70.513a4.852,4.852,0,0,0-3.752-1.165,5.261,5.261,0,0,0-.735.128,4.5,4.5,0,0,0-1.907-3.268c-1.333-.969-3.337-1.446-5.96.633a5.522,5.522,0,0,0-3.838-2.2,5.4,5.4,0,0,0-4.585,2.12C27.706,67,27.535,67.233,27.374,67.473ZM31.3,75.332a3.825,3.825,0,0,1-2.543-.993c-1.119-1.268-1.174-4.04.689-6.308a3.375,3.375,0,0,1,2.876-1.4,3.619,3.619,0,0,1,2.542,1.579c-.415.446-.841.944-1.283,1.522A10.973,10.973,0,0,0,31.3,75.332Zm7.09,1.864a9.161,9.161,0,0,0-.7,3.764,4.293,4.293,0,0,1-3.1-1.075,4.944,4.944,0,0,1-1.326-3.5,1.017,1.017,0,0,0,.015-.147c0-.022-.015-.04-.019-.062a8.829,8.829,0,0,1,1.911-5.223c2.425-3.177,4.421-4.225,5.937-3.125a2.7,2.7,0,0,1,1.079,2.665C40.512,71.889,39.508,74.394,38.387,77.2Zm6.206,1.576a20.183,20.183,0,0,0,.225,6.084,6.614,6.614,0,0,1-2.82-.22c-1.816-.8-3.14-3.229-1.722-6.776,1.562-3.9,2.632-6.308,4.841-6.522A3.169,3.169,0,0,1,48.282,73.2a4.261,4.261,0,0,0-1.261.539C45.6,74.649,44.786,76.342,44.593,78.772Zm8.649,4.807a6.462,6.462,0,0,1-.3,1.442l-.006.01a.143.143,0,0,0,0,.022c-.463,1.272-1.469,1.959-3.746,1.783a2.276,2.276,0,0,1-1.67-.782c-1.209-1.413-1.131-4.55-.927-7.125.14-1.772.649-2.951,1.512-3.5a2.542,2.542,0,0,1,1.387-.376,3.87,3.87,0,0,1,1.271.225c1.35.5,2.154,1.927,2.393,4.249A34.952,34.952,0,0,1,53.242,83.579Zm-2.427-10.37c-.119-.028-.252-.052-.391-.076a5.8,5.8,0,0,0-.48-1.064l17.466-17.2c.371.208.753.406,1.157.585ZM67.389,59.464l3.283-3.283a15.9,15.9,0,0,0,2.494.484L83.174,67.107l-4.148,4.279ZM77.536,72.725l-5.432,4.3L60.64,66.213l5.334-5.334Zm-18.311-5.1L70.567,78.319,65.539,82.8,53.97,72.882Zm1.3,19.432-5.468-2.24a9.523,9.523,0,0,0,.18-1.061c0-.022,0-.044,0-.067a36.478,36.478,0,0,0-.1-4.372,8.866,8.866,0,0,0-1.154-3.789l10.022,8.59Zm6.855,1.8L62.77,87.78l2.889-2.435,3.832,2.224Zm3.963-2.527-4.092-2.376,4.757-4.239,3.286,3.3Zm5.486-4.609-3.28-3.292,5.215-4.124,2.317,3.812ZM82.5,76.6l-2.212-3.639,3.783-3.9,1.026,4.361Zm3.3-8.939-.161-.683a.964.964,0,0,0-.3-.48c-.02-.025-.028-.055-.05-.079L74.353,55.013a1,1,0,0,0-.638-.3,13.781,13.781,0,0,1-2.854-.539.966.966,0,0,0-.248-.088c-5.96-1.946-8.268-7.579-9.029-10.183a2.625,2.625,0,0,0-2.6-1.887l-2.843.094a5.184,5.184,0,0,0-3.35,1.381l-4.822,4.478a3.744,3.744,0,0,1-5.324-5.255l6.277-6.939a11.534,11.534,0,0,1,14.329-2.2l13.292,7.791a1,1,0,0,0,.871.069L94.9,34.578l8.669,24.239Z"/></svg>