<?xml version="1.0" encoding="utf-8"?>
<!-- Generator: Adobe Illustrator 19.2.1, SVG Export Plug-In . SVG Version: 6.00 Build 0)  -->
<svg version="1.1" id="Layer_1" xmlns="http://www.w3.org/2000/svg" xmlns:xlink="http://www.w3.org/1999/xlink" x="0px" y="0px"
	 viewBox="0 0 787.5 787.4" style="enable-background:new 0 0 787.5 787.4;" xml:space="preserve">
<style type="text/css">
	.st0{fill:#F6921E;}
	.st1{fill:#404040;}
	.st2{fill:#FFFFFF;}
	.st3{fill:#77C0B2;}
	.st4{fill:#EB8023;}
</style>
<g>
	<g>
		<g>
			<g>
				<g>
					<path class="st0" d="M746,348.3C723.7,173.5,574.5,38.4,393.7,38.4c-196.2,0-355.3,159.1-355.3,355.3
						c0,177.6,130.3,324.8,300.6,351.1c17.8,2.8,36.1,4.2,54.7,4.2C589.9,749,749,589.9,749,393.7C749,378.3,747.9,363.1,746,348.3z
						"/>
				</g>
			</g>
			<path class="st1" d="M393.7,787.4c-20.2,0-40.6-1.6-60.6-4.7C140.1,753,0,589.3,0,393.7C0,176.6,176.6,0,393.7,0
				c197.5,0,365.4,147.6,390.4,343.4c2.2,17.1,3.3,34.1,3.3,50.3C787.5,610.8,610.8,787.4,393.7,787.4z M393.7,20.1
				c-206,0-373.7,167.6-373.7,373.7c0,185.6,133,340.9,316.2,369.3c18.9,2.9,38.3,4.4,57.5,4.4c206,0,373.7-167.6,373.7-373.7
				c0-15.5-1.1-31.5-3.1-47.8C740.5,160.1,581.2,20.1,393.7,20.1z"/>
		</g>
		<g>
			<g>
				<rect x="176.5" y="243.2" class="st2" width="434.4" height="340.6"/>
				<rect x="176.5" y="203.7" class="st1" width="434.4" height="39.5"/>
			</g>
			<g>
				<path class="st1" d="M573.5,553.9H208.4c-4.7,0-8.4-3.8-8.4-8.4V276.9c0-4.7,3.8-8.4,8.4-8.4c4.6,0,8.4,3.8,8.4,8.4v260h356.7
					c4.7,0,8.4,3.8,8.4,8.4C582,550,578.2,553.9,573.5,553.9z"/>
				<path class="st3" d="M233.9,490.8c-2.4,0-4.7-1-6.4-2.9c-3-3.5-2.7-8.9,0.8-11.9l51-44.3c2.8-2.5,7-2.8,10.2-0.7l21.4,14
					l93.2-83c2.9-2.6,7.1-2.8,10.4-0.7l30.3,20.1l90.4-95.5c3.3-3.4,8.6-3.6,12-0.3c3.4,3.3,3.6,8.6,0.3,12l-95.3,100.7
					c-2.8,3-7.4,3.5-10.9,1.2l-30.8-20.5l-93.1,83c-2.8,2.6-7.1,2.8-10.2,0.8l-21.5-14L239.4,489
					C237.9,490.1,235.8,490.8,233.9,490.8z"/>
				<path class="st3" d="M550.1,363.9c-4.7,0-8.4-3.8-8.4-8.4v-62.7H479c-4.7,0-8.4-3.8-8.4-8.4c0-4.6,3.8-8.4,8.4-8.4h71.1
					c4.7,0,8.4,3.8,8.4,8.4v71.1C558.5,360.1,554.7,363.9,550.1,363.9z"/>
			</g>
		</g>
	</g>
	<path class="st4" d="M749,393.7c0-15.4-1.1-30.6-3-45.5c-0.2-1.8-0.6-3.6-0.8-5.4L610.9,208.6v34.6v340.6H180.2l161.3,161.3
		c17,2.5,34.4,3.9,52.2,3.9C589.9,749,749,589.9,749,393.7z"/>
</g>
</svg>
