<?xml version="1.0" encoding="utf-8"?>
<!-- Generator: Adobe Illustrator 19.2.1, SVG Export Plug-In . SVG Version: 6.00 Build 0)  -->
<svg version="1.1" id="Layer_1" xmlns="http://www.w3.org/2000/svg" xmlns:xlink="http://www.w3.org/1999/xlink" x="0px" y="0px"
	 viewBox="0 0 787.5 787.5" style="enable-background:new 0 0 787.5 787.5;" xml:space="preserve">
<style type="text/css">
	.st0{fill:#F6921E;}
	.st1{fill:#FFFFFF;}
	.st2{fill:#EB8023;}
	.st3{fill:#2E3191;}
	.st4{fill:#404040;}
</style>
<g>
	<g>
		<path class="st0" d="M746,348.2C723.7,173.5,574.5,38.4,393.7,38.4c-196.2,0-355.3,159.1-355.3,355.3
			c0,177.6,130.3,324.8,300.6,351.1c17.8,2.8,36.1,4.2,54.7,4.2C590,749,749,589.9,749,393.7C749,378.3,747.9,363.1,746,348.2z"/>
		<g>
			<path class="st1" d="M576.5,446c0,100.7-81.6,182.4-182.4,182.4S211.7,546.8,211.7,446c0,0-7.4-45.9,24.8-115.4
				c16.9-36.4,17.4-52.1,19.8-81.9c0,0,62,22.3,57.1,76.9c0,0,83.1-99.2,74.4-153.8c0,0,62,49.6,62,81.9c0,0,12.7-39.7,69.6-49.6
				c0,0,0.2,62,17.4,96.8S576.5,385.3,576.5,446z"/>
			<path class="st0" d="M468.5,312.1c-30.2,6.3-44.9,45-50.5,64.5c2.8-26.6-15.4-61.6-15.4-61.6s-49.2,78.4-98.4,94.7l-4.3-13.8
				c-0.1-0.2-6-17.6-17.3-27.7c-1.3,10.3-3.6,23.8-7.9,40.3c-8.7,33.5-6.5,49.7-3.6,63.3l0.2,0.8c9.1,57.7,60,101.2,118.5,101.2
				c66.1,0,119.9-53.8,119.9-120c0-45.7-16.4-85.3-34.2-121.3C472.9,327.9,469.9,320.9,468.5,312.1z"/>
		</g>
		<path class="st2" d="M519.6,205.2c0.1,7.9,1.4,63.5,17.4,95.7c17.2,34.7,39.5,84.4,39.5,145.1c0,100.7-81.6,182.4-182.4,182.4
			c-47.7,0-91.1-18.3-123.6-48.4l166.3,166.3c163.2-19.7,292.4-150,310.1-313.9L519.6,205.2z"/>
		<path class="st1" d="M270.5,580l-10.4-10.4C263.4,573.3,266.9,576.7,270.5,580z"/>
		<path class="st3" d="M519.6,204.1c-0.3,0.1-0.5,0.1-0.8,0.2l0.8,0.8C519.6,204.5,519.6,204.1,519.6,204.1z"/>
	</g>
	<path class="st4" d="M393.7,787.5c-20.2,0-40.6-1.6-60.6-4.7C140.1,753,0,589.3,0,393.7C0,176.6,176.6,0,393.7,0
		c197.5,0,365.4,147.6,390.4,343.4c2.2,17.2,3.3,34.2,3.3,50.4C787.5,610.8,610.8,787.5,393.7,787.5z M393.7,20.1
		c-206,0-373.7,167.6-373.7,373.7c0,185.7,133,340.9,316.2,369.3c18.9,2.9,38.3,4.4,57.5,4.4c206,0,373.7-167.6,373.7-373.7
		c0-15.3-1.1-31.4-3.2-47.8C740.5,160.1,581.2,20.1,393.7,20.1z"/>
</g>
</svg>
