<?xml version="1.0" encoding="utf-8"?>
<!-- Generator: Adobe Illustrator 19.2.1, SVG Export Plug-In . SVG Version: 6.00 Build 0)  -->
<svg version="1.1" id="Layer_1" xmlns="http://www.w3.org/2000/svg" xmlns:xlink="http://www.w3.org/1999/xlink" x="0px" y="0px"
	 viewBox="0 0 787.5 787.5" style="enable-background:new 0 0 787.5 787.5;" xml:space="preserve">
<style type="text/css">
	.st0{fill:#F6921E;}
	.st1{fill:#404040;}
	.st2{fill:#EB8023;}
	.st3{fill:#FFFFFF;}
	.st4{fill:#77C0B2;}
</style>
<g>
	<g>
		<g>
			<g>
				<path class="st0" d="M746,348.3C723.7,173.5,574.5,38.4,393.7,38.4c-196.2,0-355.3,159.1-355.3,355.3
					c0,177.6,130.3,324.8,300.6,351.1c17.8,2.8,36.1,4.2,54.7,4.2C590,749,749,590,749,393.7C749,378.3,747.9,363.2,746,348.3z"/>
			</g>
		</g>
		<path class="st1" d="M393.8,787.5c-20.2,0-40.6-1.6-60.6-4.7C140.1,753,0,589.3,0,393.7C0,176.6,176.6,0,393.8,0
			c197.5,0,365.4,147.6,390.4,343.4c2.2,17.1,3.3,34.1,3.3,50.4C787.5,610.8,610.9,787.5,393.8,787.5z M393.8,20.1
			c-206.1,0-373.7,167.6-373.7,373.7c0,185.7,133,341,316.2,369.3c18.9,2.9,38.3,4.4,57.5,4.4c206.1,0,373.7-167.6,373.7-373.7
			c0-15.5-1.1-31.5-3.1-47.8C740.5,160.2,581.2,20.1,393.8,20.1z"/>
	</g>
	<path class="st2" d="M393.7,749C590,749,749,590,749,393.7c0-15.4-1.1-30.6-3-45.5c-1.8-13.8-4.4-27.4-7.7-40.6l-79.6-79.6V388
		H548.2L388.3,228.1V388H131.9l174.5,174.5H131.9L308,738.6c10.2,2.5,20.5,4.6,31,6.2C356.9,747.6,375.1,749,393.7,749z"/>
	<g>
		<g>
			<g>
				<rect x="131.1" y="227.2" class="st3" width="257.2" height="160.8"/>
			</g>
			<g>
				<rect x="402" y="227.2" class="st3" width="257.2" height="160.8"/>
			</g>
			<g>
				<rect x="131.1" y="401.7" class="st3" width="257.2" height="160.8"/>
			</g>
			<g>
				<rect x="402" y="401.7" class="st3" width="257.2" height="160.8"/>
			</g>
		</g>
		<g>
			<path class="st1" d="M310,247.9c-32.4,0.5-58.5,26.9-58.5,59.5c0,32.9,26.6,59.5,59.5,59.5s59.5-26.6,59.5-59.5H310V247.9z"/>
			<path class="st0" d="M311,247.9c-0.3,0-0.7,0-1,0.1v59.5h60.5C370.5,274.5,343.8,247.9,311,247.9z"/>
		</g>
		<rect x="148.9" y="249.6" class="st0" width="75.8" height="11.8"/>
		<rect x="148.9" y="306" class="st0" width="75.8" height="11.8"/>
		<polygon class="st4" points="535.7,255.5 436.8,255.5 436.8,297.6 445.7,297.6 454.4,308.6 463.1,297.6 535.7,297.6 		"/>
		<polygon class="st4" points="624.6,317.4 510,317.4 510,359.8 517.1,359.8 525,369.9 533,359.8 624.6,359.8 		"/>
		<rect x="152.3" y="516" class="st1" width="27.7" height="27.7"/>
		<rect x="190.1" y="516" class="st1" width="27.7" height="27.7"/>
		<rect x="190.1" y="419.1" class="st4" width="80.4" height="80.4"/>
		<rect x="227.8" y="516" class="st1" width="27.7" height="27.7"/>
		<rect x="265.6" y="516" class="st1" width="27.7" height="27.7"/>
		<rect x="303.3" y="516" class="st1" width="27.7" height="27.7"/>
		<rect x="341.1" y="516" class="st1" width="27.7" height="27.7"/>
	</g>
</g>
<path class="st1" d="M668,619.6c-17.7-14.4-42.9-24.5-64.8-27.5c-29.6-4.1-29.9-27.7-29.9-27.7v-14.2c4.5-4.4,8.8-10,13.1-17.3
	c12.6-21.2,20.2-56.1,20.2-82.1c0-58.1-30-92.5-76.8-92.5s-76.8,34.4-76.8,92.5c0,24.8,6.9,58.5,18.5,79.2c5,9,10.1,15.7,15.6,20.8
	v13.5c0,0-0.2,23.5-29.9,27.7c-38.4,5.4-87.2,32.3-87.2,66.8c0,0-1.1,39.8,13.9,89.9c3.2,0.1,6.5,0.1,9.8,0.1
	C504.2,749,602.8,698.7,668,619.6z"/>
</svg>
