<?xml version="1.0" encoding="utf-8"?>
<!-- Generator: Adobe Illustrator 19.2.1, SVG Export Plug-In . SVG Version: 6.00 Build 0)  -->
<svg version="1.1" id="Layer_1" xmlns="http://www.w3.org/2000/svg" xmlns:xlink="http://www.w3.org/1999/xlink" x="0px" y="0px"
	 viewBox="0 0 787.6 787.6" style="enable-background:new 0 0 787.6 787.6;" xml:space="preserve">
<style type="text/css">
	.st0{fill:#F6921E;}
	.st1{fill:#404040;}
	.st2{fill:#FFFFFF;}
	.st3{opacity:0.6;fill:#FFFFFF;enable-background:new    ;}
	.st4{fill:#EB8023;}
</style>
<g>
	<g>
		<g>
			<path class="st0" d="M746.1,348.3C723.8,173.6,574.6,38.5,393.8,38.5c-196.2,0-355.3,159.1-355.3,355.3
				c0,177.6,130.4,324.8,300.6,351.1c17.8,2.8,36.1,4.2,54.7,4.2c196.2,0,355.3-159.1,355.3-355.3
				C749.1,378.4,748,363.2,746.1,348.3z"/>
		</g>
		<path class="st1" d="M694.7,351.5c-3-11.1-16.8-10.1-27.8-13c-6.2-1.6-26.7-9.4-45.9-13.7c-39.8-9-114.3-16.6-168.8,7.2
			c0,0-8.6,4.5-15.9,7.8c-4.8,2.2-10.1,3.1-15.4,2.4c-6.7-0.8-16.9-1.8-24.8-2.2l0-0.1c-0.7,0-1.5,0-2.3,0c-0.8,0-1.6,0-2.3,0l0,0.1
			c-7.9,0.4-18.1,1.4-24.8,2.2c-5.2,0.6-10.5-0.2-15.4-2.4c-7.2-3.3-15.9-7.8-15.9-7.8c-54.6-23.8-130.3-16-168.8-7.2
			c-19.2,4.4-39.7,12-45.9,13.7c-11,2.9-24.8,1.9-27.8,13c-1.3,4.6-2,18.5,5.6,24.8c7.6,6.3,17,9.5,18.5,17.4s2.7,64.6,21.8,100.3
			c8.6,16.1,28.5,23.6,67.4,29.3c24.2,3.5,83,6.8,118.8-2.9c16.5-4.5,27.2-21.8,31.2-33.7c4.7-14.3,8.5-41.3,9.4-47l7.7-49
			c0,0,3.1-13.9,20.7-15.1c17.6,1.2,20.7,15.1,20.7,15.1l7.7,49c0.9,5.7,4.7,32.7,9.4,47c3.9,12,14.6,29.3,31.2,33.7
			c35.7,9.7,94.5,6.4,118.8,2.9c38.9-5.7,58.8-13.1,67.4-29.3c19-35.6,20.2-92.3,21.8-100.3c1.5-7.9,10.9-11.1,18.5-17.4
			C696.7,369.9,696,356.1,694.7,351.5z"/>
		<path class="st0" d="M140.6,394.8c0,0,2.7,63.4,14.8,81.6c12.1,18.2,43.8,25.6,62,26.6s75.8,6.1,101.1-9.1
			c25.3-15.2,30.3-95,25.3-111.2c-5.1-16.2-15.2-36.4-47.5-40.4s-67.7-6-102.1,0C158.6,348.4,140.6,362.5,140.6,394.8z"/>
		<path class="st0" d="M647.7,394.8c0,0-2.7,63.4-14.8,81.6c-12.1,18.2-43.8,25.6-62,26.6s-75.8,6.1-101.1-9.1
			c-25.3-15.2-30.3-95-25.3-111.2c5.1-16.2,15.2-36.4,47.5-40.4c32.3-4,67.7-6,102.1,0C629.8,348.4,647.7,362.5,647.7,394.8z"/>
		<ellipse class="st2" cx="115.4" cy="362.5" rx="10.1" ry="6.1"/>
		<ellipse class="st2" cx="668.2" cy="362.5" rx="10.1" ry="6.1"/>
		<path class="st3" d="M343.8,382.7c-5.1-16.2-15.2-36.4-47.5-40.4c-8.5-1.1-17.2-2-26-2.6L149.2,460.7c1.7,6.5,3.8,12,6.2,15.7
			c12.1,18.2,43.8,25.6,62,26.6c4.8,0.3,12.5,0.8,21.6,1.2l106.5-106.5C345.3,391,344.7,385.7,343.8,382.7z"/>
		<path class="st3" d="M594.2,342.3c-10.2-1.8-20.6-2.8-30.9-3.4L448.7,453.4c4.3,18.3,11.1,34.4,21.1,40.4
			c14.3,8.6,39,10.7,61,10.7l116.5-116.5C645,360.5,627.2,348,594.2,342.3z"/>
		<path class="st4" d="M748.8,407.1l-53.7-53.7c0.9,5.7,0.8,17.3-5.9,22.9c-7.6,6.3-17,9.5-18.5,17.4c-1.5,7.9-2.7,64.6-21.8,100.3
			c-8.6,16.1-28.5,23.6-67.4,29.3c-24.2,3.5-83,6.8-118.8-2.9c-16.5-4.5-27.2-21.8-31.2-33.7c-4.7-14.3-8.5-41.3-9.4-47l-7.7-49
			c0,0-3.1-13.9-20.7-15.1c-17.6,1.2-20.7,15.1-20.7,15.1l-7.7,49c-0.9,5.7-4.7,32.7-9.4,47c-3.9,12-14.6,29.3-31.2,33.7
			c-35.7,9.7-94.5,6.4-118.8,2.9c-22.7-3.3-38.8-7.2-50.1-13.1l238.9,238.9C586.1,748.5,741.8,596.8,748.8,407.1z"/>
	</g>
	<path class="st1" d="M393.8,787.6c-20.2,0-40.6-1.6-60.6-4.7C140.1,753.1,0,589.4,0,393.8C0,176.6,176.7,0,393.8,0
		c197.6,0,365.4,147.6,390.5,343.4c2.2,17.1,3.3,34.1,3.3,50.4C787.6,610.9,610.9,787.6,393.8,787.6z M393.8,20.1
		c-206.1,0-373.7,167.6-373.7,373.7c0,185.7,133,341,316.2,369.3c18.9,2.9,38.3,4.4,57.5,4.4c206.1,0,373.7-167.6,373.7-373.7
		c0-15.5-1.1-31.5-3.1-47.8C740.6,160.2,581.3,20.1,393.8,20.1z"/>
</g>
</svg>
