<svg id="Layer_1" data-name="Layer 1" xmlns="http://www.w3.org/2000/svg" viewBox="0 0 109.382 96.184"><path d="M100.858,0H8.523A8.533,8.533,0,0,0,0,8.524V71.343a8.533,8.533,0,0,0,8.523,8.524H38.48l-2.725,7.98h-2.4a3.234,3.234,0,0,0-3.231,3.231v1.875a3.234,3.234,0,0,0,3.231,3.231H76.022a3.234,3.234,0,0,0,3.232-3.231V91.078a3.234,3.234,0,0,0-3.232-3.231h-2.4L70.9,79.867h29.956a8.533,8.533,0,0,0,8.524-8.524V8.524A8.533,8.533,0,0,0,100.858,0ZM3,8.524A5.53,5.53,0,0,1,8.523,3h92.335a5.53,5.53,0,0,1,5.524,5.524V60.64H3ZM76.254,91.078v1.875a.231.231,0,0,1-.232.231H33.359a.23.23,0,0,1-.231-.231V91.078a.231.231,0,0,1,.231-.231H76.022A.232.232,0,0,1,76.254,91.078Zm-5.8-3.231H38.926l2.725-7.98H67.73Zm35.926-16.5a5.53,5.53,0,0,1-5.524,5.524H8.523A5.53,5.53,0,0,1,3,71.343v-7.7H106.382Z"/><path d="M95.775,9.469a5.454,5.454,0,0,0-5.448,5.449,5.4,5.4,0,0,0,.553,2.375L71.307,34.848A5.424,5.424,0,0,0,63.743,36.6l-17.314-5.72c.006-.109.016-.217.016-.327a5.449,5.449,0,1,0-10.735,1.3L16.942,45.591a5.478,5.478,0,1,0,1.772,2.42l18.5-13.539a5.432,5.432,0,0,0,8.213-.759L62.94,39.5a5.448,5.448,0,1,0,10.357-2.4L92.883,19.527A5.446,5.446,0,1,0,95.775,9.469ZM13.606,52.338a2.449,2.449,0,1,1,1.958-3.9l.009.016c.01.013.022.022.032.034a2.442,2.442,0,0,1-2,3.854ZM41,33a2.449,2.449,0,1,1,2.449-2.448A2.451,2.451,0,0,1,41,33Zm27.39,8.885a2.449,2.449,0,1,1,1.348-4.49,1.438,1.438,0,0,0,.845.973,2.416,2.416,0,0,1,.256,1.068A2.452,2.452,0,0,1,68.386,41.889ZM95.775,17.367a2.433,2.433,0,0,1-1.8-.8c0-.007-.006-.015-.012-.021s-.014-.012-.02-.018a2.439,2.439,0,1,1,1.832.842Z"/></svg>