<svg id="Layer_1" data-name="Layer 1" xmlns="http://www.w3.org/2000/svg" viewBox="0 0 109.007 92.102"><path d="M107.507,25h-2.362L90.784,7.7,99.619,5.44a1.5,1.5,0,0,0-.744-2.906L88.007,5.316a1.578,1.578,0,0,0-.643.165L56,13.508v-4.6a4.591,4.591,0,1,0-3,0v5.367L9.389,25.441a1.5,1.5,0,1,0,.744,2.906L17.338,26.5,3.863,42.738H1.5a1.5,1.5,0,0,0-1.5,1.5v32.92a1.5,1.5,0,0,0,1.5,1.5H40.373a1.5,1.5,0,0,0,1.5-1.5V44.238a1.5,1.5,0,0,0-1.5-1.5H38.01L23.274,24.983,53,17.373V72.007a5.686,5.686,0,0,0-2.75,9.286,27.4,27.4,0,0,0-12.867,5.675A2.88,2.88,0,0,0,39.175,92.1H69.833a2.88,2.88,0,0,0,1.787-5.134,27.4,27.4,0,0,0-12.867-5.675A5.685,5.685,0,0,0,56,72.007v-55.4L83.9,9.465,71,25H68.635a1.5,1.5,0,0,0-1.5,1.5V59.425a1.5,1.5,0,0,0,1.5,1.5h38.872a1.5,1.5,0,0,0,1.5-1.5V26.5A1.5,1.5,0,0,0,107.507,25ZM54.5,3a1.591,1.591,0,1,1-1.591,1.591A1.593,1.593,0,0,1,54.5,3ZM3,70.816l8.952-8.952,6.863,6.863-6.93,6.931H3Zm35.873,4.842H16.127L22,69.788l7.924-7.924,8.952,8.952Zm0-9.085-7.892-7.891a1.545,1.545,0,0,0-2.121,0l-7.924,7.924-7.923-7.924a1.5,1.5,0,0,0-2.121,0L3,66.573V45.738H38.873ZM7.762,42.738,20.937,26.865,34.111,42.738ZM39.524,89.1a24.332,24.332,0,0,1,29.958,0ZM57.207,77.5a2.7,2.7,0,1,1-2.7-2.7A2.706,2.706,0,0,1,57.207,77.5ZM88.071,9.131,101.246,25H74.9ZM106.007,28V48.84l-7.891-7.891a1.543,1.543,0,0,0-2.121,0l-7.924,7.923-7.925-7.923a1.5,1.5,0,0,0-2.121,0l-7.89,7.891V28ZM70.135,53.082l8.951-8.952,6.864,6.864-6.641,6.64-.29.291H70.135Zm35.872,4.843H83.261l5.871-5.871,7.924-7.923,8.951,8.951Z"/><path d="M88.071,42.245a6.077,6.077,0,1,0-6.077-6.077A6.083,6.083,0,0,0,88.071,42.245Zm0-9.154a3.077,3.077,0,1,1-3.077,3.077A3.079,3.079,0,0,1,88.071,33.091Z"/><path d="M20.937,47.824A6.078,6.078,0,1,0,27.014,53.9,6.085,6.085,0,0,0,20.937,47.824Zm0,9.155A3.078,3.078,0,1,1,24.014,53.9,3.082,3.082,0,0,1,20.937,56.979Z"/></svg>