<svg id="Layer_1" data-name="Layer 1" xmlns="http://www.w3.org/2000/svg" viewBox="0 0 104.549 106.265"><path d="M45,53.99a7.27,7.27,0,1,0,7.271-7.269A7.279,7.279,0,0,0,45,53.99Z"/><path d="M64.212,3.113a12.736,12.736,0,0,1,.831,3.3,49.274,49.274,0,1,1-25.538,0,12.736,12.736,0,0,1,.831-3.3,52.275,52.275,0,1,0,23.876,0Z"/><path d="M11.014,53.991A41.261,41.261,0,1,0,64.4,14.561L64.059,17.6a38.26,38.26,0,1,1-23.57,0l-.338-3.039A41.327,41.327,0,0,0,11.014,53.991Z"/><path d="M22.027,53.991A30.247,30.247,0,1,0,63.146,25.8L62.8,28.873a27.248,27.248,0,1,1-21.059,0L41.4,25.8A30.2,30.2,0,0,0,22.027,53.991Z"/><path d="M33.042,53.991A19.233,19.233,0,1,0,61.86,37.346L61.72,38.6a9.311,9.311,0,0,1-.294,2.009,16.233,16.233,0,1,1-18.3,0,9.321,9.321,0,0,1-.294-2.01l-.14-1.253A19.1,19.1,0,0,0,33.042,53.991Z"/><path d="M47.822,38.271a4.452,4.452,0,0,0,8.9,0l3.185-28.6a7.856,7.856,0,1,0-15.274,0Z"/></svg>