<svg id="Layer_1" data-name="Layer 1" xmlns="http://www.w3.org/2000/svg" viewBox="0 0 109.585 109.558"><path d="M107.091,94.594,92.126,79.629a8.494,8.494,0,0,0-11.1-.8,46.812,46.812,0,1,0-2.163,2.163,8.522,8.522,0,0,0,.792,11.11l14.966,14.965a8.523,8.523,0,0,0,12.041,0l.434-.434a8.514,8.514,0,0,0,0-12.04ZM15.842,77.821a43.842,43.842,0,1,1,62,0A43.557,43.557,0,0,1,15.842,77.821Zm89.128,26.692h0l-.433.433a5.521,5.521,0,0,1-7.8,0L81.772,89.982a5.522,5.522,0,0,1,0-7.8l.436-.435a5.514,5.514,0,0,1,7.8,0L104.97,96.715a5.514,5.514,0,0,1,0,7.8Z"/><path d="M68.96,47.979A11.073,11.073,0,1,0,57.887,36.905,11.086,11.086,0,0,0,68.96,47.979Zm0-19.146a8.073,8.073,0,1,1-8.073,8.072A8.081,8.081,0,0,1,68.96,28.833Z"/><path d="M79.534,70.805l.059-.085q.572-.78,1.1-1.584l.014-.021a40.3,40.3,0,0,0,3.637-6.879c.006-.014,0-.031.009-.046A40.542,40.542,0,1,0,16.781,74.024q.677.747,1.394,1.464c.649.649,1.321,1.262,2,1.858.18.158.361.313.543.467.637.537,1.284,1.058,1.945,1.55.067.049.13.1.2.152.7.514,1.417.993,2.141,1.457.239.153.479.3.72.449q.94.574,1.9,1.094c.239.129.479.254.72.378q.941.481,1.9.909.457.205.921.4.984.411,1.985.771c.336.12.677.231,1.017.342q.852.279,1.714.521c.339.095.679.189,1.022.275.747.188,1.5.358,2.251.5.106.02.207.05.313.069a40.535,40.535,0,0,0,14.744,0c.1-.019.207-.049.312-.069.755-.145,1.506-.316,2.253-.5.342-.086.68-.18,1.018-.274q.867-.243,1.725-.525c.331-.108.662-.215.99-.332.676-.241,1.345-.5,2.01-.781.3-.127.606-.259.907-.393q.975-.436,1.931-.924.339-.174.674-.354.981-.526,1.935-1.112.354-.216.7-.439c.729-.466,1.45-.948,2.154-1.465.059-.044.115-.091.174-.135.669-.5,1.323-1.024,1.968-1.568.179-.152.358-.3.535-.459.683-.6,1.356-1.211,2.007-1.862q.734-.734,1.423-1.5c.072-.079.137-.161.208-.241.388-.435.769-.874,1.136-1.323.046-.056.088-.114.133-.17C78.8,71.779,79.172,71.3,79.534,70.805Zm1.281-8.01q-.292.624-.61,1.237c-.069.133-.136.267-.206.4-.217.408-.444.813-.677,1.215-.073.126-.145.254-.22.38-.239.4-.489.8-.745,1.193-.079.122-.155.245-.236.366-.258.389-.528.773-.8,1.154-.088.122-.173.247-.263.369-.275.371-.561.736-.851,1.1-.1.125-.2.253-.3.376-.3.363-.607.717-.919,1.071-.1.116-.2.236-.306.352q-.627.691-1.292,1.36c-.561.56-1.141,1.094-1.731,1.614-.147.131-.3.257-.445.385-.526.45-1.06.886-1.607,1.3-.076.058-.15.119-.226.177q-.993.747-2.031,1.426c-.034.022-.069.043-.1.066q-1.032.669-2.1,1.268l-.073.041a37.294,37.294,0,0,1-9.629,3.715v-16.3c0-.4.026-.8.061-1.2.011-.119.022-.238.036-.356.038-.333.089-.662.151-.987.035-.18.077-.357.119-.535.049-.207.1-.413.159-.616s.116-.4.182-.592c.042-.125.09-.247.136-.371.144-.388.3-.769.481-1.141.041-.086.081-.172.124-.258.114-.226.232-.449.359-.668.021-.038.045-.074.067-.111a13.6,13.6,0,0,1,.8-1.2c.058-.08.116-.16.177-.237.146-.189.3-.375.454-.556.072-.083.148-.163.221-.244q.4-.441.842-.848c.1-.094.2-.19.309-.281.164-.143.333-.282.505-.417.114-.09.232-.175.349-.261q.461-.339.953-.641a13.465,13.465,0,0,1,19.4,6.1c-.108.253-.214.506-.328.756C80.937,62.529,80.877,62.663,80.815,62.8ZM43.928,84.241c-.9-.07-1.792-.168-2.686-.3V67.067c0-.5-.03-.987-.075-1.475-.01-.123-.021-.246-.034-.368-.05-.435-.115-.867-.2-1.294-.035-.18-.078-.357-.118-.535q-.093-.4-.2-.792c-.095-.336-.2-.667-.317-.994-.069-.2-.137-.39-.213-.582-.1-.25-.2-.5-.312-.739-.059-.129-.123-.254-.184-.381-.2-.421-.423-.832-.661-1.232q-.113-.192-.231-.381c-.215-.341-.442-.671-.681-.995-.123-.167-.243-.336-.373-.5-.154-.194-.314-.38-.477-.567-.137-.158-.279-.312-.422-.464q-.328-.35-.674-.678c-.2-.189-.4-.375-.61-.554q-.248-.213-.5-.415c-.208-.165-.423-.323-.64-.479-.115-.082-.223-.175-.34-.254a13.5,13.5,0,0,1,25.737,0c-.106.072-.2.156-.308.23-.232.166-.461.335-.683.512-.164.129-.324.261-.482.4-.231.2-.454.4-.673.611q-.306.294-.6.6c-.157.167-.312.336-.462.509s-.308.355-.454.539q-.3.38-.581.775c-.163.232-.317.469-.469.708-.089.141-.174.283-.259.427-.221.374-.426.758-.618,1.15-.073.149-.148.3-.216.449q-.16.354-.3.717c-.082.207-.156.416-.229.625-.11.314-.211.63-.3.951q-.114.4-.209.81c-.04.175-.082.348-.116.524-.084.429-.149.862-.2,1.3-.014.121-.024.243-.035.365-.044.489-.075.981-.075,1.477V83.938c-.894.135-1.791.233-2.688.3l-.229.017a37.54,37.54,0,0,1-5.366,0ZM28.529,79.6q-1.057-.591-2.076-1.252l-.125-.08q-1.03-.673-2.019-1.417c-.082-.063-.162-.129-.244-.192-.541-.413-1.069-.844-1.588-1.288-.152-.131-.3-.26-.455-.393-.588-.519-1.167-1.052-1.726-1.611q-.651-.651-1.264-1.327c-.158-.174-.307-.355-.461-.531-.244-.279-.491-.556-.726-.841-.206-.249-.4-.507-.6-.761-.168-.215-.341-.427-.5-.645-.248-.332-.485-.671-.721-1.01-.1-.142-.2-.282-.3-.426q-.429-.636-.831-1.29c-.036-.057-.074-.114-.109-.171a37.269,37.269,0,0,1-2.429-4.7,13.464,13.464,0,0,1,19.405-6.116q.5.3.96.645c.115.084.23.167.341.255q.261.206.51.421c.1.089.2.181.3.273q.45.416.86.867c.069.076.14.15.207.228.158.183.311.371.459.562.058.075.114.151.17.227a13.76,13.76,0,0,1,.816,1.228c.018.03.037.06.055.091.128.221.247.447.362.675.041.082.08.164.119.247.181.378.344.766.489,1.161.044.118.091.236.131.356.066.2.126.4.183.6s.109.405.158.611c.042.18.085.359.12.54.062.324.112.653.151.985.013.118.025.237.035.356.035.4.061.794.061,1.2v16.3a37.323,37.323,0,0,1-9.622-3.711ZM20.3,20.273A37.533,37.533,0,0,1,82.7,57.911,16.474,16.474,0,0,0,62.372,51.93a16.486,16.486,0,0,0-31.059,0A16.476,16.476,0,0,0,10.97,57.941,37.621,37.621,0,0,1,20.3,20.273Z"/><path d="M24.726,47.979A11.073,11.073,0,1,0,13.652,36.905,11.086,11.086,0,0,0,24.726,47.979Zm0-19.146a8.073,8.073,0,1,1-8.074,8.072A8.081,8.081,0,0,1,24.726,28.833Z"/><path d="M46.843,38.405A11.073,11.073,0,1,0,35.77,27.333,11.085,11.085,0,0,0,46.843,38.405Zm0-19.146a8.073,8.073,0,1,1-8.073,8.074A8.082,8.082,0,0,1,46.843,19.259Z"/></svg>