<svg id="Layer_1" data-name="Layer 1" xmlns="http://www.w3.org/2000/svg" viewBox="0 0 109.563 109.559"><path d="M46.82,87.344A40.535,40.535,0,1,1,75.489,18.152h0A40.524,40.524,0,0,1,46.82,87.344Zm0-78.049A37.525,37.525,0,1,0,73.368,20.273,37.432,37.432,0,0,0,46.821,9.3Z"/><path d="M46.82,93.64A46.833,46.833,0,1,1,79.943,13.7h0A46.82,46.82,0,0,1,46.82,93.64ZM46.82,3a43.821,43.821,0,1,0,31,12.82h0A43.709,43.709,0,0,0,46.82,3Z"/><path d="M100.615,109.559a8.485,8.485,0,0,1-6.02-2.49L79.629,92.1a8.514,8.514,0,0,1,0-12.041l.433-.433a8.515,8.515,0,0,1,12.041,0L107.069,94.6a8.513,8.513,0,0,1,0,12.04l-.434.434A8.485,8.485,0,0,1,100.615,109.559ZM86.083,80.136a5.481,5.481,0,0,0-3.9,1.614l-.433.434a5.513,5.513,0,0,0,0,7.8l14.966,14.966a5.52,5.52,0,0,0,7.8,0l.434-.434a5.514,5.514,0,0,0,0-7.8L89.982,81.75A5.478,5.478,0,0,0,86.083,80.136Z"/><path d="M39.913,58.138a1.5,1.5,0,0,1-1.479-1.754l.983-5.721-4.158-4.052a1.5,1.5,0,0,1,.831-2.559l5.745-.835,2.57-5.2a1.5,1.5,0,0,1,2.689,0l2.57,5.2,5.745.835a1.5,1.5,0,0,1,.831,2.559l-4.157,4.052.981,5.721a1.5,1.5,0,0,1-2.177,1.581l-5.137-2.7-5.139,2.7A1.493,1.493,0,0,1,39.913,58.138ZM39.53,46.584l2.545,2.481a1.5,1.5,0,0,1,.431,1.328l-.6,3.5,3.146-1.654a1.5,1.5,0,0,1,1.4,0L49.593,53.9l-.6-3.5a1.5,1.5,0,0,1,.431-1.328l2.545-2.481-3.517-.511a1.5,1.5,0,0,1-1.129-.821L45.75,42.065l-1.574,3.187a1.5,1.5,0,0,1-1.129.821Z"/><path d="M62.841,21.782a1.508,1.508,0,1,1,1.5-1.532v.032A1.5,1.5,0,0,1,62.841,21.782Z"/><path d="M61.151,24.723a1.449,1.449,0,0,1-.648-.152,1.471,1.471,0,0,1-.687-1.981l.032-.064a1.5,1.5,0,1,1,2.684,1.342A1.558,1.558,0,0,1,61.151,24.723Z"/><path d="M51.831,41.558A1.5,1.5,0,0,1,50.52,39.33l7.437-13.4a1.5,1.5,0,1,1,2.623,1.456l-7.437,13.4A1.5,1.5,0,0,1,51.831,41.558Z"/><path d="M56.409,42.767a1.5,1.5,0,0,1-.85-2.738l9.067-6.217a1.5,1.5,0,0,1,1.7,2.474L57.256,42.5A1.489,1.489,0,0,1,56.409,42.767Z"/><path d="M60.784,46.205a1.5,1.5,0,0,1-.294-2.971L77.572,39.8a1.5,1.5,0,0,1,.592,2.941L61.082,46.175A1.521,1.521,0,0,1,60.784,46.205Z"/><path d="M72.213,52.957c-.043,0-.085,0-.128-.006l-15.8-1.335a1.5,1.5,0,1,1,.252-2.989l15.8,1.335a1.5,1.5,0,0,1-.124,2.995Z"/><path d="M66.166,65.219a1.491,1.491,0,0,1-.88-.286l-9.759-7.081a1.5,1.5,0,1,1,1.762-2.428l9.758,7.081a1.5,1.5,0,0,1-.881,2.714Z"/><path d="M65.336,75.388a1.5,1.5,0,0,1-1.148-.534,1.537,1.537,0,0,1,.154-2.146,1.463,1.463,0,0,1,2.086.148l.055.065a1.5,1.5,0,0,1-1.147,2.467Z"/><path d="M63.037,72.7a1.5,1.5,0,0,1-1.177-.569A1.529,1.529,0,0,1,62.083,70a1.469,1.469,0,0,1,2.085.217l.043.054A1.5,1.5,0,0,1,63.037,72.7Z"/><path d="M61.017,70.147a1.5,1.5,0,0,1-1.177-.568l-5.823-7.346a1.5,1.5,0,0,1,2.352-1.863l5.823,7.345a1.5,1.5,0,0,1-1.175,2.432Z"/><path d="M51.211,80.18a1.5,1.5,0,0,1-1.473-1.23L46.556,61.571a1.5,1.5,0,0,1,2.951-.54L52.689,78.41a1.5,1.5,0,0,1-1.478,1.77Z"/><path d="M40.261,74.028a1.467,1.467,0,0,1-.27-.025,1.5,1.5,0,0,1-1.207-1.744L41.029,59.91a1.5,1.5,0,0,1,2.951.537L41.735,72.8A1.5,1.5,0,0,1,40.261,74.028Z"/><path d="M30.76,68.933a1.5,1.5,0,0,1-1.112-2.507L35.194,60.3a1.5,1.5,0,1,1,2.224,2.013l-5.545,6.131A1.5,1.5,0,0,1,30.76,68.933Z"/><path d="M23.249,61.636a1.5,1.5,0,0,1-.6-2.875L35,53.364a1.5,1.5,0,0,1,1.2,2.749l-12.349,5.4A1.5,1.5,0,0,1,23.249,61.636Z"/><path d="M18.411,55.375a1.5,1.5,0,0,1-.346-2.96l15.8-3.753a1.5,1.5,0,0,1,.693,2.919l-15.8,3.753A1.481,1.481,0,0,1,18.411,55.375Z"/><path d="M30.072,47.257c-.038,0-.076,0-.115,0L20.8,46.562a1.5,1.5,0,1,1,.227-2.991l9.154.691a1.5,1.5,0,0,1-.111,2.995Z"/><path d="M19.792,29.4a1.493,1.493,0,0,1-.892-.295l-.087-.065a1.5,1.5,0,1,1,1.787-2.41l.087.065a1.5,1.5,0,0,1-.895,2.7Z"/><path d="M22.685,31.605a1.491,1.491,0,0,1-.825-.248l-.1-.065a1.5,1.5,0,1,1,1.653-2.5l.1.064a1.5,1.5,0,0,1-.827,2.752Z"/><path d="M35.6,41.558a1.5,1.5,0,0,1-.913-.311l-9.738-7.49a1.5,1.5,0,1,1,1.828-2.378l9.738,7.49a1.5,1.5,0,0,1-.915,2.689Z"/><path d="M40.26,40.176a1.5,1.5,0,0,1-1.265-.693L30.619,26.357a1.5,1.5,0,1,1,2.529-1.614l8.376,13.126a1.5,1.5,0,0,1-1.264,2.307Z"/><path d="M44.057,34.822A1.5,1.5,0,0,1,42.585,33.6L39.228,16.08a1.5,1.5,0,0,1,2.947-.564L45.533,33.04A1.5,1.5,0,0,1,44.341,34.8,1.525,1.525,0,0,1,44.057,34.822Z"/><path d="M48.033,34.822a1.5,1.5,0,0,1-1.464-1.83l2.024-8.981a1.5,1.5,0,1,1,2.926.66L49.5,33.652A1.5,1.5,0,0,1,48.033,34.822Z"/><path d="M71.088,30.59a1.5,1.5,0,0,1-1.06-.439l-3.54-3.541a1.5,1.5,0,1,1,2.121-2.121l3.54,3.541a1.5,1.5,0,0,1-1.061,2.56Z"/><path d="M67.548,30.59a1.5,1.5,0,0,1-1.06-2.56l3.54-3.541a1.5,1.5,0,1,1,2.121,2.121l-3.54,3.541A1.5,1.5,0,0,1,67.548,30.59Z"/><path d="M23.248,41.428a1.5,1.5,0,0,1-1.061-.439l-3.541-3.541a1.5,1.5,0,0,1,2.121-2.121l3.541,3.541a1.5,1.5,0,0,1-1.06,2.56Z"/><path d="M19.707,41.428a1.5,1.5,0,0,1-1.061-2.56l3.541-3.541a1.5,1.5,0,0,1,2.121,2.121l-3.541,3.541A1.5,1.5,0,0,1,19.707,41.428Z"/><path d="M25.018,70.7a1.492,1.492,0,0,1-1.06-.44l-3.541-3.54A1.5,1.5,0,1,1,22.538,64.6l3.541,3.54A1.5,1.5,0,0,1,25.018,70.7Z"/><path d="M21.477,70.7a1.5,1.5,0,0,1-1.06-2.561l3.541-3.54a1.5,1.5,0,1,1,2.121,2.121l-3.541,3.54A1.5,1.5,0,0,1,21.477,70.7Z"/><path d="M72.859,61.635A1.5,1.5,0,0,1,71.8,61.2l-3.541-3.541a1.5,1.5,0,1,1,2.121-2.121l3.541,3.541a1.5,1.5,0,0,1-1.06,2.56Z"/><path d="M69.318,61.635a1.5,1.5,0,0,1-1.061-2.56L71.8,55.534a1.5,1.5,0,0,1,2.121,2.121L70.378,61.2A1.493,1.493,0,0,1,69.318,61.635Z"/></svg>