<svg id="Layer_1" data-name="Layer 1" xmlns="http://www.w3.org/2000/svg" viewBox="0 0 100.316 107.246"><path d="M74.64,64.25q.375-.614.72-1.244l.177-.322c.26-.489.5-.987.733-1.489l.168-.38c.226-.51.44-1.026.663-1.622.2-.542.378-1.094.545-1.65l.112-.381c.158-.553.3-1.111.429-1.688l.057-.283q.163-.782.282-1.572l.048-.306c.082-.583.144-1.171.19-1.761l.026-.392c.039-.61.064-1.224.066-1.85,0-.019,0-.054,0-.082a28.34,28.34,0,0,0-24.28-28.191c-.026-.006-.085-.015-.112-.018-.441-.065-.886-.121-1.333-.165l-.47-.037c-.312-.026-.626-.051-.944-.068-.163-.008-.327-.012-.491-.015l-.379-.011c-.152,0-.3-.011-.427-.011h-.169l-.126,0c-.152,0-.3.007-.454.012l-.378.011c-.165,0-.329.007-.495.016-.317.016-.629.041-.946.067l-.464.037c-.448.044-.893.1-1.369.169a28.338,28.338,0,0,0-24.355,28.15c0,.027,0,.112,0,.139,0,.622.028,1.237.067,1.847l.025.392c.047.592.108,1.18.191,1.769l.046.291q.119.8.285,1.583l.02.1.038.187c.125.565.269,1.122.429,1.687l.11.371c.167.557.346,1.11.57,1.718.2.526.412,1.043.632,1.544l.173.39c.231.5.474,1,.734,1.492l.175.317c.232.424.472.839.748,1.292.035.06.069.12.1.177l.225.357c1.018,1.626,2.072,3.307,3,5l2.5,4.578A31.118,31.118,0,0,1,35.3,85.794a4.79,4.79,0,0,0-2.043,7.873,4.793,4.793,0,0,0,1.86,7.815,4.2,4.2,0,0,0-.288,1.5,4.267,4.267,0,0,0,4.262,4.262H61.423a4.268,4.268,0,0,0,4.262-4.262,4.225,4.225,0,0,0-.288-1.5,4.792,4.792,0,0,0,1.859-7.814,4.79,4.79,0,0,0-2.043-7.873A31.112,31.112,0,0,1,68.788,74.41l2.5-4.58c.924-1.693,1.978-3.374,3-5ZM61.423,104.178H39.091a1.194,1.194,0,1,1,0-2.387H61.423a1.194,1.194,0,0,1,0,2.387Zm2.323-5.455H36.768a1.761,1.761,0,1,1,0-3.522H63.746a1.761,1.761,0,0,1,0,3.522Zm0-6.59H36.768a1.762,1.762,0,1,1,0-3.523H63.746a1.762,1.762,0,0,1,0,3.523Zm9.859-32.494-.124.279c-.206.449-.422.893-.657,1.335l-.154.28q-.311.567-.646,1.113l-.337.555c-1.043,1.664-2.123,3.386-3.09,5.159l-2.5,4.58a34.2,34.2,0,0,0-3.948,12.6H38.365a34.206,34.206,0,0,0-3.948-12.6l-2.5-4.578c-.969-1.774-2.048-3.5-3.091-5.16l-.338-.555c-.224-.366-.439-.736-.646-1.115l-.158-.285c-.232-.436-.448-.881-.65-1.32l-.153-.347c-.2-.455-.393-.915-.591-1.446-.179-.484-.336-.977-.485-1.473l-.1-.337c-.141-.495-.268-.994-.381-1.5l-.052-.255c-.1-.464-.181-.933-.253-1.415l-.042-.26c-.073-.522-.128-1.048-.168-1.569l-.025-.358c-.035-.545-.058-1.1-.056-1.706a25.32,25.32,0,0,1,21.762-25.2c.4-.057.795-.107,1.2-.147l.418-.033c.282-.022.563-.046.845-.061.135-.006.271-.009.405-.012l.426-.013c.118,0,.237-.009.359-.01l.116,0,.118,0c.12,0,.238,0,.356.009l.426.013c.136,0,.271.006.4.011.285.016.567.04.842.062l.425.033c.4.04.8.09,1.225.152a25.313,25.313,0,0,1,21.735,25.2l1.534,0-1.532.056c0,.555-.023,1.107-.059,1.654l-.024.349c-.04.53-.1,1.056-.167,1.57l-.044.272c-.072.476-.157.947-.251,1.4l-.055.265c-.111.505-.239,1-.38,1.5l-.1.339c-.149.5-.309.991-.509,1.532C74.024,58.662,73.832,59.123,73.605,59.639Z"/><path d="M69.341,44.83l-3.92-.788a16.264,16.264,0,0,0-.675-1.64l2.212-3.324a1.535,1.535,0,0,0-.192-1.934L62.421,32.8a1.538,1.538,0,0,0-1.935-.193l-3.324,2.212a16.163,16.163,0,0,0-1.64-.674l-.788-3.92a1.534,1.534,0,0,0-1.5-1.232H47.086a1.535,1.535,0,0,0-1.5,1.232l-.788,3.92a16.258,16.258,0,0,0-1.64.674L39.83,32.606A1.535,1.535,0,0,0,37.9,32.8l-4.345,4.345a1.534,1.534,0,0,0-.193,1.934L35.57,42.4a16.258,16.258,0,0,0-.674,1.64l-3.92.788a1.536,1.536,0,0,0-1.232,1.5v6.145a1.534,1.534,0,0,0,1.232,1.5l3.92.789a16.241,16.241,0,0,0,.674,1.639l-2.212,3.324a1.535,1.535,0,0,0,.193,1.935L37.9,66.014a1.537,1.537,0,0,0,1.934.192l3.324-2.212a16.264,16.264,0,0,0,1.64.675l.788,3.92a1.534,1.534,0,0,0,1.5,1.231H53.23a1.534,1.534,0,0,0,1.5-1.231l.788-3.92a16.169,16.169,0,0,0,1.64-.675l3.324,2.212a1.54,1.54,0,0,0,1.935-.192l4.345-4.345a1.537,1.537,0,0,0,.192-1.935L64.746,56.41a16.247,16.247,0,0,0,.675-1.639l3.92-.789a1.533,1.533,0,0,0,1.231-1.5V46.334A1.535,1.535,0,0,0,69.341,44.83ZM67.5,51.223l-3.573.717a1.537,1.537,0,0,0-1.172,1.081,13.075,13.075,0,0,1-1.13,2.743,1.536,1.536,0,0,0,.063,1.594l2.016,3.03L61.14,62.956,58.11,60.94a1.538,1.538,0,0,0-1.594-.063,13.075,13.075,0,0,1-2.743,1.13,1.537,1.537,0,0,0-1.081,1.172l-.717,3.573H48.342l-.718-3.573a1.534,1.534,0,0,0-1.081-1.172,13.044,13.044,0,0,1-2.742-1.13,1.54,1.54,0,0,0-1.595.063l-3.029,2.016-2.569-2.568,2.016-3.03a1.536,1.536,0,0,0,.064-1.594,13.022,13.022,0,0,1-1.13-2.743,1.54,1.54,0,0,0-1.172-1.081l-3.574-.717V47.59l3.574-.718a1.537,1.537,0,0,0,1.172-1.081,12.991,12.991,0,0,1,1.13-2.742,1.538,1.538,0,0,0-.064-1.595l-2.016-3.029,2.569-2.569,3.029,2.016a1.538,1.538,0,0,0,1.595.064,12.991,12.991,0,0,1,2.742-1.13,1.537,1.537,0,0,0,1.081-1.172l.718-3.573h3.633l.717,3.573a1.54,1.54,0,0,0,1.081,1.172,13.022,13.022,0,0,1,2.743,1.13,1.536,1.536,0,0,0,1.594-.064l3.03-2.016,2.568,2.569-2.016,3.029a1.538,1.538,0,0,0-.063,1.595,13.044,13.044,0,0,1,1.13,2.742,1.534,1.534,0,0,0,1.172,1.081l3.573.718Z"/><path d="M50.158,41.069A8.337,8.337,0,1,0,58.5,49.406,8.348,8.348,0,0,0,50.158,41.069Zm0,13.606a5.269,5.269,0,1,1,5.269-5.269A5.274,5.274,0,0,1,50.158,54.675Z"/><path d="M17.136,49.406A1.536,1.536,0,0,0,15.6,47.872H1.534a1.534,1.534,0,0,0,0,3.068H15.6A1.535,1.535,0,0,0,17.136,49.406Z"/><path d="M98.782,47.872H84.911a1.534,1.534,0,0,0,0,3.068H98.782a1.534,1.534,0,1,0,0-3.068Z"/><path d="M76.588,73.666a1.534,1.534,0,0,0-2.17,2.17l9.038,9.038a1.534,1.534,0,0,0,2.17-2.17Z"/><path d="M24.511,25.929a1.534,1.534,0,1,0,2.17-2.17L16.86,13.938a1.534,1.534,0,1,0-2.17,2.17Z"/><path d="M74.82,26.278a1.532,1.532,0,0,0,1.085-.449l9.721-9.721a1.534,1.534,0,0,0-2.17-2.17l-9.721,9.721a1.534,1.534,0,0,0,1.085,2.619Z"/><path d="M23.855,73.539,14.69,82.7a1.534,1.534,0,0,0,2.17,2.17l9.165-9.165a1.534,1.534,0,1,0-2.17-2.17Z"/><path d="M19.861,62.461a1.529,1.529,0,0,0-2.014-.8L4.9,67.238A1.534,1.534,0,0,0,5.5,70.181a1.51,1.51,0,0,0,.605-.126L19.06,64.476A1.532,1.532,0,0,0,19.861,62.461Z"/><path d="M80.745,36.227a1.531,1.531,0,0,0,2.015.8l12.66-5.454a1.533,1.533,0,1,0-1.213-2.816l-12.66,5.454A1.533,1.533,0,0,0,80.745,36.227Z"/><path d="M95.906,65.952,82.969,60.807a1.533,1.533,0,1,0-1.133,2.849L94.773,68.8a1.533,1.533,0,1,0,1.133-2.85Z"/><path d="M4.41,32.86,17.4,38.026a1.508,1.508,0,0,0,.567.11,1.534,1.534,0,0,0,.566-2.959L5.543,30.011A1.533,1.533,0,0,0,4.41,32.86Z"/><path d="M50.793,17.136A1.535,1.535,0,0,0,52.327,15.6V1.534a1.534,1.534,0,0,0-3.068,0V15.6A1.535,1.535,0,0,0,50.793,17.136Z"/><path d="M35.725,18.111a1.533,1.533,0,0,0,1.409.928,1.51,1.51,0,0,0,.6-.126,1.532,1.532,0,0,0,.8-2.015l-5.58-12.95a1.533,1.533,0,1,0-2.816,1.213Z"/><path d="M63.031,18.442a1.508,1.508,0,0,0,.567.11,1.531,1.531,0,0,0,1.424-.968L70.188,4.6a1.533,1.533,0,1,0-2.849-1.133L62.173,16.451A1.531,1.531,0,0,0,63.031,18.442Z"/></svg>