<svg id="Layer_1" data-name="Layer 1" xmlns="http://www.w3.org/2000/svg" viewBox="0 0 105.378 105.561"><path d="M92.516,43.327a1.7,1.7,0,0,0,1.7-1.7V36.562h7.538a3.628,3.628,0,0,0,3.624-3.624v-8.28a3.627,3.627,0,0,0-2.15-3.31L57.668,1.057a12.26,12.26,0,0,0-9.959,0L2.149,21.348A3.628,3.628,0,0,0,0,24.658v8.28a3.628,3.628,0,0,0,3.623,3.624h7.538v5.065a1.7,1.7,0,0,0,1.7,1.7h2.867V84.92h-5.7a3.628,3.628,0,0,0-3.624,3.624v4.43c0,.077.018.149.023.224H3.623A3.628,3.628,0,0,0,0,96.822v5.115a3.628,3.628,0,0,0,3.623,3.624h98.131a3.628,3.628,0,0,0,3.624-3.624V96.822a3.628,3.628,0,0,0-3.624-3.624H98.946c0-.075.023-.147.023-.224v-4.43a3.628,3.628,0,0,0-3.624-3.624h-5.7V43.327Zm-1.7-3.4H73.922V36.562H90.815ZM3.4,32.938v-8.28a.224.224,0,0,1,.132-.2L49.092,4.163a8.858,8.858,0,0,1,7.193,0l45.56,20.291a.224.224,0,0,1,.133.2v8.28a.225.225,0,0,1-.224.224H3.623A.224.224,0,0,1,3.4,32.938Zm53.169,51.8H48.808V43.5h7.761ZM44.242,39.927V36.562H61.136v3.365Zm-29.68-3.365H31.455v3.365H14.562ZM26.89,43.5V84.742H19.128V43.5Zm3.4-.169h2.865a1.7,1.7,0,0,0,1.7-1.7V36.562h5.987v5.065a1.7,1.7,0,0,0,1.7,1.7h2.865V84.92H30.29Zm71.688,53.5v5.115a.225.225,0,0,1-.224.224H3.623a.224.224,0,0,1-.223-.224V96.822a.224.224,0,0,1,.223-.224h98.131A.225.225,0,0,1,101.978,96.822Zm-6.41-8.278v4.43a.224.224,0,0,1-.223.224H10.032a.224.224,0,0,1-.223-.224v-4.43a.224.224,0,0,1,.223-.224H95.345A.224.224,0,0,1,95.568,88.544Zm-17.08-3.8V43.5h7.761V84.742Zm-3.4.178H59.97V43.327h2.866a1.7,1.7,0,0,0,1.7-1.7V36.562h5.985v5.065a1.7,1.7,0,0,0,1.7,1.7h2.866Z"/><path d="M52.688,28.782a9.733,9.733,0,1,0-9.733-9.733A9.744,9.744,0,0,0,52.688,28.782Zm0-16.065a6.333,6.333,0,1,1-6.333,6.332A6.339,6.339,0,0,1,52.688,12.717Z"/></svg>