<svg id="Layer_1" data-name="Layer 1" xmlns="http://www.w3.org/2000/svg" viewBox="0 0 107 84.831"><path d="M105.318,69.816l-9-9a5.533,5.533,0,0,0-4.957-1.6A28.8,28.8,0,0,0,85.73,18.339V1.534A1.535,1.535,0,0,0,84.2,0H23.547a1.535,1.535,0,0,0-1.534,1.534V8.678h-10.5A1.535,1.535,0,0,0,9.98,10.212v5.767H1.534A1.535,1.535,0,0,0,0,17.513v49.8a1.536,1.536,0,0,0,1.534,1.535H9.98v5.766a1.535,1.535,0,0,0,1.535,1.534h10.5V83.3a1.534,1.534,0,0,0,1.534,1.534H84.2A1.534,1.534,0,0,0,85.73,83.3V64.71c.2-.148.395-.3.592-.458a5.736,5.736,0,0,0,1.6,4.96l9,9a5.753,5.753,0,0,0,8.137,0l.26-.261A5.761,5.761,0,0,0,105.318,69.816ZM86.83,59.727a25.738,25.738,0,0,1-3.553,2.958q-.906.628-1.846,1.168l-.194.108q-.891.5-1.808.93c-.131.06-.264.114-.4.172-.442.2-.89.375-1.34.545-.354.132-.709.257-1.068.374q-.45.147-.905.278a25.93,25.93,0,0,1-14.264-.021c-.3-.087-.6-.182-.9-.28-.392-.128-.78-.267-1.166-.414s-.743-.294-1.109-.455c-.238-.1-.476-.209-.711-.321q-.719-.342-1.418-.731c-.151-.084-.3-.166-.454-.253q-.8-.463-1.566-.99c-.119-.081-.237-.164-.355-.247-.53-.376-1.051-.77-1.557-1.189-.078-.065-.154-.133-.231-.2-.537-.455-1.062-.928-1.567-1.433a25.771,25.771,0,0,1,0-36.4c.5-.5,1.027-.975,1.562-1.429.08-.068.158-.139.239-.205.5-.418,1.022-.809,1.549-1.183.121-.086.242-.171.365-.254q.764-.522,1.558-.986c.153-.088.308-.171.461-.257q.7-.385,1.41-.726c.235-.112.473-.218.712-.322q.553-.243,1.116-.458t1.129-.4c.311-.1.623-.2.937-.293a25.809,25.809,0,0,1,3.442-.744L65,16.05q1.182-.167,2.373-.225l.043,0q.606-.029,1.213-.029a25.946,25.946,0,0,1,4.907.468c.064.013.128.029.192.042q.986.2,1.955.473c.348.1.695.206,1.04.321q.467.153.927.326c.48.18.957.37,1.428.581.112.049.226.1.338.146q.933.434,1.84.947c.055.03.111.06.165.091q.948.546,1.863,1.179A25.714,25.714,0,0,1,86.83,59.727ZM3.068,65.784V19.047H9.98V65.784Zm9.981,7.3V11.746h8.964V73.085Zm69.613-6.4V81.763H25.081V3.068H82.662v13.3c-.047-.026-.1-.046-.143-.072-.607-.334-1.221-.65-1.846-.937-.166-.077-.335-.144-.5-.217q-.635-.277-1.28-.522c-.436-.167-.874-.319-1.315-.463-.283-.092-.566-.186-.852-.269-.408-.12-.817-.229-1.229-.331l-.02,0a28.741,28.741,0,0,0-13.689,0c-.039.009-.078.021-.116.03q-1.115.278-2.208.645-.359.12-.715.249c-.331.121-.662.241-.989.374-.492.2-.977.417-1.459.645-.242.114-.481.233-.719.354-.525.267-1.045.544-1.556.844-.133.079-.264.164-.4.245q-.732.447-1.443.943c-.134.093-.269.183-.4.279q-.814.588-1.6,1.242c-.115.1-.227.2-.341.293-.542.466-1.075.949-1.589,1.462a28.843,28.843,0,0,0,0,40.744c.514.515,1.048,1,1.591,1.465.112.1.224.194.337.289q.783.654,1.6,1.245c.131.094.264.183.4.275q.716.5,1.453.95c.125.077.249.158.375.232.517.3,1.044.586,1.575.855.236.12.471.237.709.35.491.232.986.454,1.487.657.317.129.638.243.96.361q.363.132.729.254,1.078.363,2.18.637l.14.037a28.773,28.773,0,0,0,13.657,0L75.5,69.5q.611-.15,1.216-.327c.3-.089.606-.188.908-.287.421-.138.839-.284,1.255-.443q.654-.248,1.3-.529c.163-.072.328-.138.491-.213.626-.287,1.242-.6,1.85-.938C82.567,66.732,82.615,66.712,82.662,66.686Zm20.486,9.1-.26.262a2.749,2.749,0,0,1-3.8,0l-9-9a2.691,2.691,0,0,1,0-3.8l.259-.259a2.683,2.683,0,0,1,3.8,0l9,9a2.681,2.681,0,0,1,0,3.8Z"/><path d="M61.1,27.979H54.9a1.65,1.65,0,0,0-1.65,1.65V53.42a1.65,1.65,0,0,0,1.65,1.65h6.2a1.65,1.65,0,0,0,1.65-1.65V29.629A1.65,1.65,0,0,0,61.1,27.979ZM59.446,51.77H56.553V31.279h2.893Z"/><path d="M71.726,34.383H65.531a1.65,1.65,0,0,0-1.65,1.65V53.42a1.65,1.65,0,0,0,1.65,1.65h6.195a1.65,1.65,0,0,0,1.65-1.65V36.033A1.65,1.65,0,0,0,71.726,34.383ZM70.075,51.77H67.182V37.684h2.893Z"/><path d="M82.354,42.267H76.16a1.65,1.65,0,0,0-1.65,1.65v9.5a1.65,1.65,0,0,0,1.65,1.65h6.194a1.651,1.651,0,0,0,1.651-1.65v-9.5A1.651,1.651,0,0,0,82.354,42.267Zm-1.65,9.5H77.811v-6.2H80.7Z"/></svg>