<svg id="Layer_1" data-name="Layer 1" xmlns="http://www.w3.org/2000/svg" xmlns:xlink="http://www.w3.org/1999/xlink" viewBox="0 0 1076.945 1076.945"><defs><style>.cls-1{fill:url(#linear-gradient);}.cls-2{fill:url(#linear-gradient-2);}.cls-3{fill:#fff;}.cls-4{fill:url(#linear-gradient-3);}.cls-5{fill:url(#linear-gradient-4);}.cls-6{fill:url(#linear-gradient-5);}.cls-7{fill:url(#linear-gradient-6);}.cls-8{fill:url(#linear-gradient-7);}.cls-9{fill:url(#linear-gradient-8);}.cls-10{fill:url(#linear-gradient-9);}.cls-11{fill:url(#linear-gradient-10);}.cls-12{fill:url(#linear-gradient-11);}.cls-13{fill:url(#linear-gradient-12);}.cls-14{fill:url(#linear-gradient-13);}.cls-15{fill:url(#linear-gradient-14);}.cls-16{fill:url(#linear-gradient-15);}.cls-17{fill:url(#linear-gradient-16);}.cls-18{fill:url(#linear-gradient-17);}.cls-19{fill:url(#linear-gradient-18);}.cls-20{fill:url(#linear-gradient-19);}.cls-21{fill:url(#linear-gradient-20);}.cls-22{fill:url(#linear-gradient-21);}.cls-23{fill:url(#linear-gradient-22);}.cls-24{fill:url(#linear-gradient-23);}.cls-25{fill:url(#linear-gradient-24);}.cls-26{fill:url(#linear-gradient-25);}.cls-27{fill:url(#linear-gradient-26);}.cls-28{fill:url(#linear-gradient-27);}.cls-29{fill:url(#linear-gradient-28);}</style><linearGradient id="linear-gradient" x1="81.754" y1="995.191" x2="971.742" y2="105.203" gradientUnits="userSpaceOnUse"><stop offset="0.08" stop-color="#dee13d"/><stop offset="0.377" stop-color="#7cbd99"/><stop offset="0.71" stop-color="#599fd9"/><stop offset="0.95" stop-color="#7cc6f2"/></linearGradient><linearGradient id="linear-gradient-2" x1="188.709" y1="888.236" x2="859.197" y2="217.749" gradientUnits="userSpaceOnUse"><stop offset="0" stop-color="#020f15"/><stop offset="1" stop-color="#0d2233"/></linearGradient><linearGradient id="linear-gradient-3" x1="-167.244" y1="779.786" x2="755.475" y2="-142.932" xlink:href="#linear-gradient"/><linearGradient id="linear-gradient-4" x1="100.166" y1="1047.197" x2="1022.885" y2="124.478" xlink:href="#linear-gradient"/><linearGradient id="linear-gradient-5" x1="329.074" y1="747.871" x2="723.743" y2="353.202" xlink:href="#linear-gradient"/><linearGradient id="linear-gradient-6" x1="329.073" y1="747.87" x2="723.742" y2="353.201" xlink:href="#linear-gradient"/><linearGradient id="linear-gradient-7" x1="313.285" y1="732.081" x2="707.954" y2="337.413" xlink:href="#linear-gradient"/><linearGradient id="linear-gradient-8" x1="331.725" y1="750.521" x2="726.394" y2="355.853" xlink:href="#linear-gradient"/><linearGradient id="linear-gradient-9" x1="276.37" y1="695.167" x2="671.039" y2="300.498" xlink:href="#linear-gradient"/><linearGradient id="linear-gradient-10" x1="271.598" y1="690.394" x2="666.266" y2="295.725" xlink:href="#linear-gradient"/><linearGradient id="linear-gradient-11" x1="313.442" y1="732.238" x2="708.111" y2="337.569" xlink:href="#linear-gradient"/><linearGradient id="linear-gradient-12" x1="317.502" y1="736.299" x2="712.171" y2="341.63" xlink:href="#linear-gradient"/><linearGradient id="linear-gradient-13" x1="325.934" y1="744.73" x2="720.602" y2="350.061" xlink:href="#linear-gradient"/><linearGradient id="linear-gradient-14" x1="334.365" y1="753.162" x2="729.034" y2="358.493" xlink:href="#linear-gradient"/><linearGradient id="linear-gradient-15" x1="399.133" y1="817.93" x2="793.802" y2="423.261" xlink:href="#linear-gradient"/><linearGradient id="linear-gradient-16" x1="413.996" y1="832.792" x2="808.664" y2="438.123" xlink:href="#linear-gradient"/><linearGradient id="linear-gradient-17" x1="381.004" y1="799.801" x2="775.673" y2="405.132" xlink:href="#linear-gradient"/><linearGradient id="linear-gradient-18" x1="243.404" y1="662.2" x2="638.072" y2="267.531" xlink:href="#linear-gradient"/><linearGradient id="linear-gradient-19" x1="262.665" y1="681.462" x2="657.334" y2="286.793" xlink:href="#linear-gradient"/><linearGradient id="linear-gradient-20" x1="229.674" y1="648.47" x2="624.343" y2="253.802" xlink:href="#linear-gradient"/><linearGradient id="linear-gradient-21" x1="418.963" y1="837.76" x2="813.632" y2="443.091" xlink:href="#linear-gradient"/><linearGradient id="linear-gradient-22" x1="242.473" y1="661.269" x2="637.141" y2="266.6" xlink:href="#linear-gradient"/><linearGradient id="linear-gradient-23" x1="440.328" y1="859.125" x2="834.997" y2="464.456" xlink:href="#linear-gradient"/><linearGradient id="linear-gradient-24" x1="388.103" y1="806.9" x2="782.772" y2="412.231" xlink:href="#linear-gradient"/><linearGradient id="linear-gradient-25" x1="348.264" y1="767.06" x2="742.933" y2="372.392" xlink:href="#linear-gradient"/><linearGradient id="linear-gradient-26" x1="215.535" y1="634.331" x2="610.203" y2="239.662" xlink:href="#linear-gradient"/><linearGradient id="linear-gradient-27" x1="353.012" y1="771.808" x2="747.68" y2="377.139" xlink:href="#linear-gradient"/><linearGradient id="linear-gradient-28" x1="280.764" y1="699.56" x2="675.433" y2="304.892" xlink:href="#linear-gradient"/></defs><circle class="cls-1" cx="538.473" cy="538.473" r="538.473"/><circle class="cls-2" cx="538.473" cy="538.473" r="432.5"/><path class="cls-3" d="M165.238,545.484l62.373-1.839-.664-22.491,7.6-.224,1.574,53.377-7.6.224-.663-22.49-62.374,1.839Z"/><path class="cls-3" d="M168.643,595.2l68.349-15.112,1.814,8.2-30.366,6.714,7.08,32.027,30.367-6.714,1.813,8.2-68.349,15.111-1.814-8.2,30.562-6.757-7.08-32.027L170.456,603.4Z"/><path class="cls-3" d="M187.153,666.515l64.369-27.51,16.937,39.633-6.988,2.986-13.637-31.908-21.517,9.2,12.537,29.334-6.99,2.986L219.328,661.9l-21.885,9.353,13.833,32.368-6.988,2.987Z"/><path class="cls-3" d="M244.105,770.3q-7.71-9.841-6.566-20.136t12.085-18.869l12.6-9.867q10.941-8.572,21.213-7.219t17.98,11.194q7.646,9.76,6.317,19.251T296.952,761.54l-.393.309-5.119-6.534.629-.494q6.217-4.871,7.574-11.332t-4.135-13.466q-5.49-7.007-12.862-7.58t-15.089,5.469l-12.909,10.114q-7.716,6.045-8.921,13.341t4.282,14.3q5.487,7.007,12.085,7.238t12.814-4.641l1.26-.987,5.119,6.533-1.023.8q-9.447,7.4-18.98,6.422T244.105,770.3Z"/><path class="cls-3" d="M291.252,820.018q-9.393-8.251-10.2-18.614t8.362-20.806l10.56-12.02q9.174-10.442,19.556-10.973t19.773,7.721q9.465,8.316,10.277,18.68t-8.362,20.806l-10.561,12.02Q321.481,827.275,311.1,827.8T291.252,820.018Zm4.95-5.635q6.836,6.006,14.19,5.212t13.756-8.081L335.1,799.042q6.4-7.284,6.243-14.681t-7-13.4q-6.762-5.94-14.115-5.145T306.481,773.9l-10.956,12.471q-6.4,7.289-6.244,14.682T296.2,814.383Z"/><path class="cls-3" d="M331.562,850.222l34.751-60.765,14.149,8.091-10.938,68.278,1.128.645,32.12-56.164,7.2,4.12-34.751,60.765-14.15-8.091,11.075-68.315-1.215-.695-32.169,56.251Z"/><path class="cls-3" d="M413.965,890.5,434.1,831.443l-21.3-7.261,2.453-7.194L465.8,834.223l-2.452,7.193-21.3-7.262-20.139,59.061Z"/><path class="cls-3" d="M461.241,904.306,471.9,835.123l42.6,6.564-1.157,7.512-34.295-5.285-3.564,23.127,31.528,4.858-1.158,7.512-31.528-4.859L470.7,898.074l34.789,5.362-1.157,7.511Z"/><path class="cls-3" d="M525.057,912.347,522.89,842.38l16.292-.5,26.391,63.914,1.3-.04-2-64.669,8.3-.257,2.168,69.966-16.293.5-26.295-64.017-1.4.044,2.006,64.768Z"/><path class="cls-3" d="M616.308,903.646,602.67,842.754l-21.956,4.918-1.66-7.417,52.108-11.67L632.823,836l-21.956,4.917,13.638,60.892Z"/><path class="cls-3" d="M711.874,870.7q-11.1,5.758-21,2.73t-16.309-15.364l-7.37-14.2q-6.4-12.336-3.173-22.181t14.324-15.6q11-5.712,20.087-2.65t14.607,13.713l.231.443-7.368,3.824-.368-.711q-3.638-7.011-9.737-9.536t-14,1.574q-7.9,4.1-9.827,11.24t2.586,15.838l7.553,14.558q4.515,8.7,11.462,11.232t14.849-1.564q7.9-4.1,9.346-10.54t-2.193-13.452l-.737-1.42L722.2,834.8l.6,1.154q5.527,10.652,2.8,19.839T711.874,870.7Z"/><path class="cls-3" d="M752.057,845.546l-43.545-54.807,22.157-17.605a27.422,27.422,0,0,1,10.365-5.361,18.181,18.181,0,0,1,10.049.19,17.37,17.37,0,0,1,8.382,6.049l.685.861q4.291,5.4,4.2,10.587a16.293,16.293,0,0,1-2.747,9.08l.87,1.1a8.627,8.627,0,0,1,6.121-1.861q3.237.3,6.039,3.823L789.247,816l-6.5,5.163-14-17.617a6.113,6.113,0,0,0-4.153-2.575,6.858,6.858,0,0,0-4.871,1.826L740.78,817.85l17.854,22.47Zm-16-33.647,14.954-11.881q5.4-4.293,6.255-9.248t-2.881-9.654l-.436-.548q-3.732-4.7-8.712-5.019t-10.462,4.033l-14.954,11.882Z"/><path class="cls-3" d="M804.421,801.168l-52.363-46.455,28.6-32.241,5.686,5.044-23.029,25.957L780.821,769l21.171-23.862,5.685,5.044-21.17,23.862,17.8,15.795,23.36-26.331,5.686,5.044Z"/><path class="cls-3" d="M840.074,760.349l-47.963-55.373,7.832-12.558,70.826,18.718-4.605,7.382-17.876-4.785-15.77,25.285,12.161,13.949Zm-12.893-27.135,13.5-21.636L800.726,700.8l-.742,1.188Z"/><path class="cls-3" d="M879.676,690.138l-57.29-24.731-8.917,20.658-6.978-3.012,21.163-49.027,6.978,3.012L825.715,657.7l57.29,24.731Z"/><path class="cls-3" d="M903.714,622.391q-2.787,12.188-11.515,17.832T869.92,642.77l-15.6-3.566q-13.549-3.1-18.957-11.977t-2.62-21.065q2.808-12.282,11.537-17.929t22.279-2.547l15.6,3.566q13.549,3.1,18.957,11.977T903.714,622.391Zm-7.312-1.672q2.029-8.87-2.169-14.96t-13.654-8.251l-16.182-3.7q-9.454-2.162-15.884,1.5t-8.456,12.53q-2.005,8.774,2.192,14.863t13.654,8.251l16.182,3.7q9.457,2.163,15.884-1.5T896.4,620.719Z"/><path class="cls-3" d="M910.5,577.255l-69.943-2.811,1.136-28.277a27.427,27.427,0,0,1,2.708-11.351,18.18,18.18,0,0,1,6.706-7.486,17.371,17.371,0,0,1,10.054-2.4l1.1.044q6.894.277,10.759,3.735a16.292,16.292,0,0,1,5.082,8.01l1.4.056a8.631,8.631,0,0,1,2.587-5.85q2.345-2.258,6.84-2.077l23.48.943-.333,8.293-22.482-.9a6.117,6.117,0,0,0-4.662,1.464,6.859,6.859,0,0,0-1.8,4.882l-.972,24.18,28.677,1.153ZM874.564,567.4l.767-19.085q.277-6.894-2.92-10.776t-9.192-4.122l-.7-.028q-6-.242-9.492,3.321t-3.776,10.557l-.768,19.085Z"/><path class="cls-3" d="M358.511,320.609,338.67,295.736,283.3,273.9l8.942-7.134,42.482,17.33,1.3-1.04-7.455-45.271,8.943-7.134,8.98,58.84,19.841,24.872Z"/><path class="cls-3" d="M420.9,283.333q-13.529,6.242-25.206,2.115t-18.62-19.166l-7.986-17.313q-6.939-15.038-2.5-26.6t17.967-17.8q13.635-6.29,25.314-2.164t18.619,19.166l7.987,17.312q6.939,15.042,2.5,26.6T420.9,283.333Zm-3.745-8.115q9.846-4.542,12.537-12.935t-2.153-18.889l-8.287-17.962q-4.841-10.492-12.973-13.9T388.3,212.677q-9.738,4.493-12.428,12.886t2.153,18.889l8.287,17.961q4.842,10.5,12.972,13.9T417.152,275.218Z"/><path class="cls-3" d="M491.217,261.572a36.917,36.917,0,0,1-16.536-.583,24.283,24.283,0,0,1-12.236-8.019q-4.866-5.883-6.477-15.4l-9.276-54.75,9.752-1.652,9.295,54.867q1.713,10.105,7.973,14.241t16.012,2.484q9.752-1.651,14.3-7.62t2.835-16.072l-9.3-54.867,9.869-1.672,9.276,54.75q1.612,9.517-1.043,16.674a24.22,24.22,0,0,1-8.971,11.612A37.3,37.3,0,0,1,491.217,261.572Z"/><path class="cls-3" d="M555.689,254.351l40.339-77.415,17.348,3.176,10.3,86.686-10.2-1.867-2.532-21.906-34.929-6.4-10.128,19.588Zm24.418-26.179L610,233.645l-5.567-48.993-1.642-.3Z"/><path class="cls-3" d="M630.831,269.907l34.835-75.792L696.308,208.2a32.657,32.657,0,0,1,11.277,8.135,21.652,21.652,0,0,1,5.206,10.786,20.7,20.7,0,0,1-1.92,12.166l-.547,1.192q-3.433,7.47-9,10.159a19.412,19.412,0,0,1-11.133,1.965l-.7,1.516a10.278,10.278,0,0,1,5.274,5.506q1.422,3.6-.815,8.478l-11.7,25.444-8.986-4.13,11.2-24.362a7.289,7.289,0,0,0,.5-5.8q-.99-2.551-4.564-4.2l-26.2-12.043-14.282,31.075Zm27.159-35.123,20.681,9.5q7.47,3.434,13.2,1.672t8.713-8.257l.349-.758q2.985-6.5.646-11.965t-9.918-8.952l-20.68-9.5Z"/><path class="cls-3" d="M693.98,301.339l51.529-65.595L785.9,267.471l-5.6,7.122-32.517-25.544-17.224,21.928,29.892,23.482-5.594,7.122L724.966,278.1l-17.52,22.3,32.985,25.912-5.6,7.122Z"/><circle class="cls-4" cx="271.062" cy="341.48" r="7.535"/><circle class="cls-5" cx="805.883" cy="341.48" r="7.535"/><path class="cls-6" d="M538.473,305.335c-128.552,0-233.138,104.586-233.138,233.138S409.921,771.61,538.473,771.61,771.61,667.024,771.61,538.473,667.024,305.335,538.473,305.335Zm0,459.677c-124.914,0-226.54-101.626-226.54-226.539s101.626-226.54,226.54-226.54,226.539,101.626,226.539,226.54S663.386,765.012,538.473,765.012Z"/><path class="cls-7" d="M538.473,337.836c-110.633,0-200.637,90-200.637,200.637s90,200.634,200.637,200.634,200.634-90,200.634-200.634S649.1,337.836,538.473,337.836Zm0,394.673c-106.994,0-194.038-87.045-194.038-194.036s87.044-194.038,194.038-194.038,194.036,87.044,194.036,194.038S645.464,732.509,538.473,732.509Z"/><path class="cls-8" d="M638.808,441.351H438.135a3.3,3.3,0,0,0-3.3,3.3V569.14a3.3,3.3,0,0,0,3.3,3.3H638.808a3.3,3.3,0,0,0,3.3-3.3V444.65A3.3,3.3,0,0,0,638.808,441.351Zm-3.3,124.49H441.434V447.949H635.509Z"/><path class="cls-9" d="M655.77,581.587V429.071A12.387,12.387,0,0,0,643.4,416.7H433.545a12.387,12.387,0,0,0-12.372,12.372V581.587l-33.1,38.784a7.762,7.762,0,0,0,5.905,12.8h288.98a7.762,7.762,0,0,0,5.9-12.8Zm-228-152.516a5.78,5.78,0,0,1,5.773-5.773H643.4a5.78,5.78,0,0,1,5.773,5.773V579.5h-221.4ZM684.021,625.9a1.119,1.119,0,0,1-1.059.677H393.982a1.166,1.166,0,0,1-.888-1.92l32.9-38.552H650.95l32.9,38.552A1.117,1.117,0,0,1,684.021,625.9Z"/><path class="cls-10" d="M538.472,436.986a3.921,3.921,0,1,0-3.921-3.92A3.92,3.92,0,0,0,538.472,436.986Z"/><path class="cls-11" d="M481.473,497.842a17.323,17.323,0,1,0-17.323-17.323A17.342,17.342,0,0,0,481.473,497.842Zm0-28.047a10.724,10.724,0,1,1-10.725,10.724A10.736,10.736,0,0,1,481.473,469.8Z"/><path class="cls-12" d="M515.853,494.465h98.618a3.3,3.3,0,0,0,3.3-3.3v-21.3a3.3,3.3,0,0,0-3.3-3.3H515.853a3.3,3.3,0,0,0-3.3,3.3v21.3A3.3,3.3,0,0,0,515.853,494.465Zm3.3-21.3h92.018v14.7H519.153Z"/><path class="cls-13" d="M467.449,515.235H616.281a3.3,3.3,0,1,0,0-6.6H467.449a3.3,3.3,0,0,0,0,6.6Z"/><path class="cls-14" d="M467.449,532.1H616.281a3.3,3.3,0,1,0,0-6.6H467.449a3.3,3.3,0,0,0,0,6.6Z"/><path class="cls-15" d="M467.449,548.961H616.281a3.3,3.3,0,0,0,0-6.6H467.449a3.3,3.3,0,0,0,0,6.6Z"/><path class="cls-16" d="M711.85,519.563h-35.3a3.3,3.3,0,0,0,0,6.6h35.3a3.3,3.3,0,0,0,0-6.6Z"/><path class="cls-17" d="M707.376,560.667,674.746,547.2a3.3,3.3,0,1,0-2.517,6.1l32.63,13.462a3.3,3.3,0,1,0,2.517-6.1Z"/><path class="cls-18" d="M673.49,501.033a3.285,3.285,0,0,0,1.256-.249l32.63-13.463a3.3,3.3,0,1,0-2.517-6.1l-32.63,13.463a3.3,3.3,0,0,0,1.261,6.349Z"/><path class="cls-19" d="M403.69,522.862a3.3,3.3,0,0,0-3.3-3.3h-35.3a3.3,3.3,0,0,0,0,6.6h35.3A3.3,3.3,0,0,0,403.69,522.862Z"/><path class="cls-20" d="M406.506,549A3.3,3.3,0,0,0,402.2,547.2l-32.628,13.463a3.3,3.3,0,1,0,2.517,6.1L404.714,553.3A3.3,3.3,0,0,0,406.506,549Z"/><path class="cls-21" d="M369.569,487.321,402.2,500.784a3.3,3.3,0,1,0,2.517-6.1l-32.628-13.463a3.3,3.3,0,0,0-2.517,6.1Z"/><path class="cls-22" d="M590.269,681.686l-5.923-1.435a10.692,10.692,0,0,1-7.874-7.873l-1.434-5.924a.909.909,0,0,0-1.766,0l-1.434,5.924a10.69,10.69,0,0,1-7.873,7.873l-5.924,1.435a.908.908,0,0,0,0,1.765l5.924,1.435a10.689,10.689,0,0,1,7.873,7.873l1.434,5.924a.909.909,0,0,0,1.766,0l1.434-5.924a10.69,10.69,0,0,1,7.874-7.873l5.923-1.435A.908.908,0,0,0,590.269,681.686Z"/><path class="cls-23" d="M503.545,384.965l5.924,1.434a10.69,10.69,0,0,1,7.873,7.874l1.435,5.924a.908.908,0,0,0,1.765,0l1.435-5.924a10.69,10.69,0,0,1,7.873-7.874l5.924-1.434a.908.908,0,0,0,0-1.765l-5.924-1.435a10.688,10.688,0,0,1-7.873-7.874l-1.435-5.923a.908.908,0,0,0-1.765,0l-1.435,5.923a10.688,10.688,0,0,1-7.873,7.874l-5.924,1.435A.908.908,0,0,0,503.545,384.965Z"/><circle class="cls-24" cx="634.224" cy="665.229" r="5.367"/><circle class="cls-25" cx="501.701" cy="693.302" r="5.367"/><circle class="cls-26" cx="455.05" cy="660.275" r="5.367"/><circle class="cls-27" cx="458.352" cy="391.513" r="5.367"/><circle class="cls-28" cx="681.288" cy="443.532" r="5.367"/><circle class="cls-29" cx="593.765" cy="386.559" r="5.367"/></svg>