<svg id="Layer_1" data-name="Layer 1" xmlns="http://www.w3.org/2000/svg" xmlns:xlink="http://www.w3.org/1999/xlink" viewBox="0 0 1076.945 1076.945"><defs><style>.cls-1{fill:url(#linear-gradient);}.cls-2{fill:url(#linear-gradient-2);}.cls-3{fill:#fff;}.cls-4{fill:url(#linear-gradient-3);}.cls-5{fill:url(#linear-gradient-4);}.cls-6{fill:url(#linear-gradient-5);}.cls-7{fill:url(#linear-gradient-6);}.cls-8{fill:url(#linear-gradient-7);}.cls-9{fill:url(#linear-gradient-8);}.cls-10{fill:url(#linear-gradient-9);}.cls-11{fill:url(#linear-gradient-10);}.cls-12{fill:url(#linear-gradient-11);}.cls-13{fill:url(#linear-gradient-12);}.cls-14{fill:url(#linear-gradient-13);}.cls-15{fill:url(#linear-gradient-14);}.cls-16{fill:url(#linear-gradient-15);}.cls-17{fill:url(#linear-gradient-16);}.cls-18{fill:url(#linear-gradient-17);}.cls-19{fill:url(#linear-gradient-18);}.cls-20{fill:url(#linear-gradient-19);}</style><linearGradient id="linear-gradient" x1="81.754" y1="995.191" x2="971.742" y2="105.203" gradientUnits="userSpaceOnUse"><stop offset="0.08" stop-color="#dee13d"/><stop offset="0.377" stop-color="#7cbd99"/><stop offset="0.71" stop-color="#599fd9"/><stop offset="0.95" stop-color="#7cc6f2"/></linearGradient><linearGradient id="linear-gradient-2" x1="188.709" y1="888.236" x2="859.197" y2="217.749" gradientUnits="userSpaceOnUse"><stop offset="0" stop-color="#020f15"/><stop offset="1" stop-color="#0d2233"/></linearGradient><linearGradient id="linear-gradient-3" x1="-167.244" y1="779.786" x2="755.475" y2="-142.932" xlink:href="#linear-gradient"/><linearGradient id="linear-gradient-4" x1="100.166" y1="1047.197" x2="1022.885" y2="124.478" xlink:href="#linear-gradient"/><linearGradient id="linear-gradient-5" x1="324.796" y1="752.149" x2="736.985" y2="339.96" xlink:href="#linear-gradient"/><linearGradient id="linear-gradient-6" x1="324.795" y1="752.149" x2="736.985" y2="339.959" xlink:href="#linear-gradient"/><linearGradient id="linear-gradient-7" x1="330.001" y1="757.354" x2="742.19" y2="345.165" xlink:href="#linear-gradient"/><linearGradient id="linear-gradient-8" x1="349.265" y1="776.619" x2="761.455" y2="364.429" xlink:href="#linear-gradient"/><linearGradient id="linear-gradient-9" x1="323.656" y1="751.01" x2="735.846" y2="338.82" xlink:href="#linear-gradient"/><linearGradient id="linear-gradient-10" x1="250.783" y1="678.136" x2="662.972" y2="265.947" xlink:href="#linear-gradient"/><linearGradient id="linear-gradient-11" x1="424.938" y1="852.292" x2="837.128" y2="440.102" xlink:href="#linear-gradient"/><linearGradient id="linear-gradient-12" x1="366.371" y1="793.725" x2="778.561" y2="381.535" xlink:href="#linear-gradient"/><linearGradient id="linear-gradient-13" x1="376.87" y1="804.224" x2="789.06" y2="392.034" xlink:href="#linear-gradient"/><linearGradient id="linear-gradient-14" x1="242.034" y1="669.387" x2="654.223" y2="257.198" xlink:href="#linear-gradient"/><linearGradient id="linear-gradient-15" x1="211.773" y1="639.126" x2="623.962" y2="226.937" xlink:href="#linear-gradient"/><linearGradient id="linear-gradient-16" x1="294.321" y1="721.675" x2="706.511" y2="309.485" xlink:href="#linear-gradient"/><linearGradient id="linear-gradient-17" x1="243.063" y1="670.417" x2="655.253" y2="258.227" xlink:href="#linear-gradient"/><linearGradient id="linear-gradient-18" x1="391.898" y1="819.252" x2="804.088" y2="407.062" xlink:href="#linear-gradient"/><linearGradient id="linear-gradient-19" x1="437.186" y1="864.54" x2="849.376" y2="452.35" xlink:href="#linear-gradient"/></defs><circle class="cls-1" cx="538.473" cy="538.473" r="538.473"/><circle class="cls-2" cx="538.473" cy="538.473" r="432.5"/><path class="cls-3" d="M202.172,700.7l55.873-27.786-10.019-20.146,6.8-3.384L278.609,697.2l-6.805,3.384-10.019-20.147-55.873,27.786Z"/><path class="cls-3" d="M226.12,744.417l55.727-42.361,5.083,6.687-24.759,18.82,19.85,26.112,24.758-18.821,5.084,6.687L256.137,783.9l-5.084-6.687,24.918-18.942-19.85-26.112L231.2,751.105Z"/><path class="cls-3" d="M272.7,801.35l47.057-51.823L351.668,778.5l-5.108,5.626L320.87,760.8l-15.73,17.324,23.616,21.445-5.109,5.626L300.03,783.75l-16,17.621,26.061,23.663-5.109,5.626Z"/><path class="cls-3" d="M345.835,859.192l32.112-62.2,19.283,9.955q12.35,6.375,15.848,16.06t-3.154,22.567l-5.964,11.552q-6.7,12.974-16.595,15.685t-22.248-3.665Zm10.95-2.9,11.907,6.147q8.975,4.633,15.889,2.576t11.732-11.387l6.284-12.173q4.908-9.509,2.536-16.248t-11.347-11.373l-11.907-6.147Z"/><path class="cls-3" d="M411.572,890.206l20.149-67.039L473,835.573l-2.187,7.278-33.232-9.987-6.734,22.409,30.55,9.182-2.188,7.278-30.55-9.181-6.85,22.793,33.71,10.131-2.188,7.278Z"/><path class="cls-3" d="M465.929,905.851,495.5,838.827l14.7,1.715,13.339,72.033-8.64-1.009-3.313-18.207-29.6-3.455-7.416,16.955ZM484.952,882.6l25.328,2.957-7.328-40.725-1.39-.162Z"/><path class="cls-3" d="M537.248,912.238l-3.33-69.921,8.391-.4,2.967,62.33,35.361-1.684.361,7.591Z"/><path class="cls-3" d="M626.935,902.926l-22.828-66.174,15.125-5.217,38.683,55.1,1.229-.424-3.517-67.229,15.125-5.218,22.828,66.174-7.657,2.641L664.889,821.6l-1.323.457,3.545,67.007L653.4,893.794l-38.523-54.94-1.323.457,21.034,60.973Z"/><path class="cls-3" d="M709.854,871.434l-18.445-70.9L704,792.753l55.187,48.177-7.4,4.575-13.9-12.214-25.346,15.673,4.716,17.894Zm.472-30.039,21.689-13.411-31.034-27.369-1.191.736Z"/><path class="cls-3" d="M771.984,830.569l-46.936-51.933L731.279,773l20.452,22.628,1.039-.939,1.508-42.475,8.31-7.51-2.1,48.534,49.925,2.594-8.532,7.711L758.4,800.925l-1.039.939,20.854,23.073Z"/><path class="cls-3" d="M821.365,782.839l-55.332-42.876,26.4-34.068,6.007,4.655-21.254,27.428,18.5,14.334L815.222,727.1l6.007,4.655L801.69,756.967,820.5,771.544l21.561-27.824,6.006,4.655Z"/><path class="cls-3" d="M860.357,729.062,798.023,697.21l12.877-25.2a27.418,27.418,0,0,1,7.214-9.172,18.175,18.175,0,0,1,9.226-3.989,17.381,17.381,0,0,1,10.134,2.034l.979.5q6.145,3.139,8.205,7.9a16.284,16.284,0,0,1,1.259,9.4l1.247.637a8.624,8.624,0,0,1,4.8-4.229q3.072-1.068,7.08.979l20.926,10.693-3.777,7.391-20.036-10.238a6.113,6.113,0,0,0-4.846-.624,6.858,6.858,0,0,0-3.677,3.68l-11.012,21.549,25.557,13.06Zm-28.5-24,8.69-17.008q3.141-6.144,1.863-11.008t-6.619-7.594l-.624-.318q-5.341-2.731-10.009-.96t-7.852,8l-8.692,17.007Z"/><path class="cls-3" d="M358.511,320.609,338.67,295.736,283.3,273.9l8.942-7.134,42.482,17.33,1.3-1.04-7.455-45.271,8.943-7.134,8.98,58.84,19.841,24.872Z"/><path class="cls-3" d="M420.9,283.333q-13.529,6.242-25.206,2.115t-18.62-19.166l-7.986-17.313q-6.939-15.038-2.5-26.6t17.967-17.8q13.635-6.29,25.314-2.164t18.619,19.166l7.987,17.312q6.939,15.042,2.5,26.6T420.9,283.333Zm-3.745-8.115q9.846-4.542,12.537-12.935t-2.153-18.889l-8.287-17.962q-4.841-10.492-12.973-13.9T388.3,212.677q-9.738,4.493-12.428,12.886t2.153,18.889l8.287,17.961q4.842,10.5,12.972,13.9T417.152,275.218Z"/><path class="cls-3" d="M491.217,261.572a36.917,36.917,0,0,1-16.536-.583,24.283,24.283,0,0,1-12.236-8.019q-4.866-5.883-6.477-15.4l-9.276-54.75,9.752-1.652,9.295,54.867q1.713,10.105,7.973,14.241t16.012,2.484q9.752-1.651,14.3-7.62t2.835-16.072l-9.3-54.867,9.869-1.672,9.276,54.75q1.612,9.517-1.043,16.674a24.22,24.22,0,0,1-8.971,11.612A37.3,37.3,0,0,1,491.217,261.572Z"/><path class="cls-3" d="M555.689,254.351l40.339-77.415,17.348,3.176,10.3,86.686-10.2-1.867-2.532-21.906-34.929-6.4-10.128,19.588Zm24.418-26.179L610,233.645l-5.567-48.993-1.642-.3Z"/><path class="cls-3" d="M630.831,269.907l34.835-75.792L696.308,208.2a32.657,32.657,0,0,1,11.277,8.135,21.652,21.652,0,0,1,5.206,10.786,20.7,20.7,0,0,1-1.92,12.166l-.547,1.192q-3.433,7.47-9,10.159a19.412,19.412,0,0,1-11.133,1.965l-.7,1.516a10.278,10.278,0,0,1,5.274,5.506q1.422,3.6-.815,8.478l-11.7,25.444-8.986-4.13,11.2-24.362a7.289,7.289,0,0,0,.5-5.8q-.99-2.551-4.564-4.2l-26.2-12.043-14.282,31.075Zm27.159-35.123,20.681,9.5q7.47,3.434,13.2,1.672t8.713-8.257l.349-.758q2.985-6.5.646-11.965t-9.918-8.952l-20.68-9.5Z"/><path class="cls-3" d="M693.98,301.339l51.529-65.595L785.9,267.471l-5.6,7.122-32.517-25.544-17.224,21.928,29.892,23.482-5.594,7.122L724.966,278.1l-17.52,22.3,32.985,25.912-5.6,7.122Z"/><circle class="cls-4" cx="271.062" cy="341.48" r="7.535"/><circle class="cls-5" cx="805.883" cy="341.48" r="7.535"/><path class="cls-6" d="M538.473,305.973c-128.2,0-232.5,104.3-232.5,232.5s104.3,232.5,232.5,232.5,232.5-104.3,232.5-232.5S666.673,305.973,538.473,305.973Zm0,458.419c-124.572,0-225.92-101.348-225.92-225.919s101.348-225.92,225.92-225.92S764.392,413.9,764.392,538.473,663.044,764.392,538.473,764.392Z"/><path class="cls-7" d="M538.473,338.387c-110.33,0-200.088,89.758-200.088,200.086s89.758,200.085,200.088,200.085S738.558,648.8,738.558,538.473,648.8,338.387,538.473,338.387Zm0,393.591c-106.7,0-193.508-86.806-193.508-193.5s86.807-193.5,193.508-193.5,193.505,86.806,193.505,193.5S645.172,731.978,538.473,731.978Z"/><path class="cls-8" d="M576.764,459.992h.6a3.29,3.29,0,0,0,0-6.58h-1.272c11.746-21.3,17.707-38.284,17.707-50.542,0-7.973-1.737-13.12-5.471-16.2-5.744-4.738-14.246-3.087-25-1C556.493,387,548.75,388.5,540.645,388.5s-15.849-1.5-22.682-2.827c-10.753-2.087-19.254-3.738-25,1-3.734,3.078-5.471,8.225-5.471,16.2,0,12.132,6,28.713,18.281,50.542h-1.847a3.29,3.29,0,0,0,0,6.58h1.02c-33.184,39.069-71.166,114.1-71.4,155.532-.158,27.67,10.532,47.67,31.779,59.438,17.136,9.5,40.937,14.007,74.9,14.2.822,0,1.643.006,2.47.006,49.263,0,104.683-8.761,105.049-72.418.116-20.249-8.769-49.836-25.018-83.317C609.289,505.743,592.4,478.82,576.764,459.992Zm-82.69-57.122c0-5.7,1.034-9.438,3.075-11.121,1.356-1.119,3.393-1.545,5.917-1.545,3.71,0,8.467.923,13.644,1.928,7.124,1.382,15.2,2.947,23.935,2.947s16.812-1.565,23.936-2.947c8.7-1.688,16.209-3.147,19.561-.383,2.041,1.683,3.076,5.425,3.076,11.121,0,11.559-6.46,29.011-18.673,50.542H556.158c8.551-12.731,7.888-29.842,7.847-30.677a3.289,3.289,0,0,0-6.571.308c.008.2.732,19.722-9.726,30.369H533.581c-10.458-10.647-9.734-30.167-9.725-30.369a3.29,3.29,0,0,0-6.572-.308c-.041.835-.7,17.946,7.847,30.677h-11.78C500.571,431.27,494.074,414.263,494.074,402.87Zm48.293,279.72c-.694,0-1.4,0-2.1-.007-32.819-.188-55.618-4.438-71.754-13.376-19.246-10.663-28.531-28.21-28.386-53.644.237-41.661,40.315-118.869,73.57-155.571h12.171c-4.721,7.151-12.678,20.747-16.417,36.082a3.289,3.289,0,1,0,6.391,1.559c4.289-17.589,14.853-33.221,18.022-37.641h13.565c3.169,4.42,13.733,20.052,18.022,37.641a3.29,3.29,0,1,0,6.392-1.559c-3.739-15.335-11.7-28.931-16.418-36.082h12.685c33.4,37.9,73.29,115.923,73.058,156.721C640.9,662.824,611.33,682.592,542.367,682.59Z"/><path class="cls-9" d="M567.58,564.834l11.043-18.044a61.3,61.3,0,0,0-28.418-10.51V528.2H536.2v7.674c-20.608,1.48-32.189,12.531-32.189,28.423v.263c0,16.705,11.043,24.108,32.728,29.1v16.162c-8.349-1.347-16.43-4.987-25.049-11.043l-12.12,17.913c10.1,7.271,23.163,11.98,36.36,13.327v13.468h14.009v-13.2c19.125-1.75,31.783-11.848,31.783-28.282v-.271c0-16.7-10.772-24.38-32.19-29.359v-15.62A53.986,53.986,0,0,1,567.58,564.834Zm-30.707,5.25c-7.272-2.013-9.157-4.034-9.157-7.534v-.272c0-3.5,2.559-6.2,9.157-6.737Zm21.549,33.4v.271c0,3.9-2.827,6.2-9.022,6.869V595.811C556.4,597.833,558.422,599.854,558.422,603.486Z"/><path class="cls-10" d="M625.92,433.556l5.907,1.431a10.659,10.659,0,0,1,7.852,7.851l1.431,5.908a.905.905,0,0,0,1.76,0l1.431-5.908a10.661,10.661,0,0,1,7.852-7.851l5.908-1.431a.906.906,0,0,0,0-1.761l-5.908-1.43a10.662,10.662,0,0,1-7.852-7.852l-1.431-5.908a.905.905,0,0,0-1.76,0l-1.431,5.908a10.661,10.661,0,0,1-7.852,7.852l-5.907,1.43A.906.906,0,0,0,625.92,433.556Z"/><path class="cls-11" d="M411.032,533.077l-5.908-1.431a10.66,10.66,0,0,1-7.851-7.851l-1.431-5.908a.906.906,0,0,0-1.761,0l-1.43,5.908a10.661,10.661,0,0,1-7.852,7.851l-5.908,1.431a.906.906,0,0,0,0,1.761l5.908,1.43a10.662,10.662,0,0,1,7.852,7.852l1.43,5.908a.906.906,0,0,0,1.761,0l1.431-5.908a10.661,10.661,0,0,1,7.851-7.852l5.908-1.43A.906.906,0,0,0,411.032,533.077Z"/><path class="cls-12" d="M701.291,591.129l-5.908-1.431a10.661,10.661,0,0,1-7.852-7.852l-1.43-5.907a.906.906,0,0,0-1.761,0l-1.43,5.907a10.662,10.662,0,0,1-7.852,7.852l-5.908,1.431a.905.905,0,0,0,0,1.76l5.908,1.431a10.664,10.664,0,0,1,7.852,7.852l1.43,5.907a.906.906,0,0,0,1.761,0l1.43-5.907a10.662,10.662,0,0,1,7.852-7.852l5.908-1.431A.905.905,0,0,0,701.291,591.129Z"/><circle class="cls-13" cx="684.191" cy="475.906" r="5.352"/><circle class="cls-14" cx="657.43" cy="523.665" r="5.352"/><circle class="cls-15" cx="441.691" cy="469.73" r="5.352"/><circle class="cls-16" cx="436.339" cy="414.56" r="5.352"/><circle class="cls-17" cx="401.755" cy="614.242" r="5.352"/><circle class="cls-18" cx="548.737" cy="364.743" r="5.352"/><circle class="cls-19" cx="504.272" cy="706.878" r="5.352"/><circle class="cls-20" cx="603.495" cy="698.232" r="5.352"/></svg>