<svg id="Layer_1" data-name="Layer 1" xmlns="http://www.w3.org/2000/svg" xmlns:xlink="http://www.w3.org/1999/xlink" viewBox="0 0 1076.945 1076.945"><defs><style>.cls-1{fill:url(#linear-gradient);}.cls-2{fill:url(#linear-gradient-2);}.cls-3{fill:#fff;}.cls-4{fill:url(#linear-gradient-3);}.cls-5{fill:url(#linear-gradient-4);}.cls-6{fill:url(#linear-gradient-5);}.cls-7{fill:url(#linear-gradient-6);}.cls-8{fill:url(#linear-gradient-7);}.cls-9{fill:url(#linear-gradient-8);}.cls-10{fill:url(#linear-gradient-9);}.cls-11{fill:url(#linear-gradient-10);}.cls-12{fill:url(#linear-gradient-11);}.cls-13{fill:url(#linear-gradient-12);}.cls-14{fill:url(#linear-gradient-13);}.cls-15{fill:url(#linear-gradient-14);}.cls-16{fill:url(#linear-gradient-15);}.cls-17{fill:url(#linear-gradient-16);}</style><linearGradient id="linear-gradient" x1="81.754" y1="995.191" x2="971.742" y2="105.203" gradientUnits="userSpaceOnUse"><stop offset="0.08" stop-color="#dee13d"/><stop offset="0.377" stop-color="#7cbd99"/><stop offset="0.71" stop-color="#599fd9"/><stop offset="0.95" stop-color="#7cc6f2"/></linearGradient><linearGradient id="linear-gradient-2" x1="188.709" y1="888.236" x2="859.197" y2="217.749" gradientUnits="userSpaceOnUse"><stop offset="0" stop-color="#020f15"/><stop offset="1" stop-color="#0d2233"/></linearGradient><linearGradient id="linear-gradient-3" x1="-167.244" y1="779.786" x2="755.475" y2="-142.932" xlink:href="#linear-gradient"/><linearGradient id="linear-gradient-4" x1="100.166" y1="1047.197" x2="1022.885" y2="124.478" xlink:href="#linear-gradient"/><linearGradient id="linear-gradient-5" x1="349.966" y1="726.979" x2="743.875" y2="333.07" xlink:href="#linear-gradient"/><linearGradient id="linear-gradient-6" x1="349.967" y1="726.979" x2="743.875" y2="333.071" xlink:href="#linear-gradient"/><linearGradient id="linear-gradient-7" x1="265.181" y1="642.194" x2="659.09" y2="248.285" xlink:href="#linear-gradient"/><linearGradient id="linear-gradient-8" x1="349.925" y1="726.937" x2="743.833" y2="333.029" xlink:href="#linear-gradient"/><linearGradient id="linear-gradient-9" x1="349.925" y1="726.937" x2="743.833" y2="333.029" xlink:href="#linear-gradient"/><linearGradient id="linear-gradient-10" x1="349.924" y1="726.936" x2="743.832" y2="333.028" xlink:href="#linear-gradient"/><linearGradient id="linear-gradient-11" x1="259.781" y1="636.793" x2="653.689" y2="242.885" xlink:href="#linear-gradient"/><linearGradient id="linear-gradient-12" x1="440.068" y1="817.081" x2="833.977" y2="423.172" xlink:href="#linear-gradient"/><linearGradient id="linear-gradient-13" x1="434.923" y1="811.935" x2="828.831" y2="418.027" xlink:href="#linear-gradient"/><linearGradient id="linear-gradient-14" x1="433.283" y1="810.295" x2="827.191" y2="416.387" xlink:href="#linear-gradient"/><linearGradient id="linear-gradient-15" x1="262.932" y1="639.944" x2="656.84" y2="246.036" xlink:href="#linear-gradient"/><linearGradient id="linear-gradient-16" x1="349.967" y1="726.979" x2="743.875" y2="333.071" xlink:href="#linear-gradient"/></defs><circle class="cls-1" cx="538.473" cy="538.473" r="538.473"/><circle class="cls-2" cx="538.473" cy="538.473" r="432.5"/><path class="cls-3" d="M200.922,698.088l56.087-27.349-9.861-20.224,6.831-3.331,23.4,48-6.831,3.331-9.861-20.224L204.6,705.638Z"/><path class="cls-3" d="M224.538,742.008l56.05-41.933,5.032,6.726-24.9,18.63,19.649,26.263,24.9-18.63,5.031,6.726-56.049,41.934L249.22,775l25.061-18.751-19.648-26.263-25.063,18.75Z"/><path class="cls-3" d="M272.261,800.9,319.4,749.158l31.86,29.027-5.118,5.618L320.5,760.433l-15.76,17.3,23.582,21.484-5.12,5.619-23.58-21.485-16.029,17.593,26.02,23.707-5.119,5.618Z"/><path class="cls-3" d="M345.29,858.864l32.219-62.145,19.265,9.988q12.338,6.4,15.82,16.087T409.4,845.356L403.418,856.9q-6.72,12.964-16.622,15.657t-22.241-3.7Zm10.955-2.881,11.9,6.167q8.966,4.649,15.883,2.6t11.751-11.367l6.306-12.162q4.925-9.5,2.564-16.243t-11.328-11.392l-11.9-6.168Z"/><path class="cls-3" d="M409.178,888.773l23.5-65.937,7.912,2.82-23.5,65.937Z"/><path class="cls-3" d="M460.106,904.94a32.8,32.8,0,0,1-12.731-5.494,21.23,21.23,0,0,1-7.529-9.952q-2.231-6.053-.509-14.07l.44-2.053,8.116,1.742-.441,2.053q-1.827,8.506,2.269,13.732t11.916,6.9q8.018,1.72,13-.994a11.753,11.753,0,0,0,6.156-8.19,9.276,9.276,0,0,0-.605-6.472,14.031,14.031,0,0,0-4.542-4.81,53.631,53.631,0,0,0-7.482-4.214l-4.811-2.362a58.042,58.042,0,0,1-9.742-6.08,18.983,18.983,0,0,1-5.917-7.458,16.336,16.336,0,0,1-.565-9.991,17.592,17.592,0,0,1,5.024-9.354,18.762,18.762,0,0,1,9.5-4.711,31.061,31.061,0,0,1,12.559.343,31.756,31.756,0,0,1,11.951,5.071,20.3,20.3,0,0,1,7.192,8.908,20.714,20.714,0,0,1,.67,12.365l-.882,4.107-8.116-1.742.882-4.106a14.127,14.127,0,0,0-.382-8.469,12.752,12.752,0,0,0-4.8-5.736,22.894,22.894,0,0,0-8.045-3.261q-6.747-1.447-11.493.653a10.062,10.062,0,0,0-5.922,7.576,9.448,9.448,0,0,0,.5,6.244,12.867,12.867,0,0,0,4.2,4.737,46.827,46.827,0,0,0,7.189,4.151l4.812,2.363a51.57,51.57,0,0,1,9.961,5.768,20.056,20.056,0,0,1,6.3,7.591q2.026,4.374.726,10.435a18.857,18.857,0,0,1-5.3,9.909,20.326,20.326,0,0,1-10.055,5.154A31.955,31.955,0,0,1,460.106,904.94Z"/><path class="cls-3" d="M531.284,913.082q-12.5-.274-19.735-7.685t-6.934-21.308l.352-16q.3-13.894,7.862-20.982t20.055-6.811q12.4.272,18.893,7.317t6.234,19.041l-.011.5-8.3-.182.018-.8q.173-7.9-3.965-13.04T532.719,847.8q-8.9-.2-14.017,5.143t-5.333,15.137l-.36,16.4q-.216,9.8,4.664,15.356t13.776,5.754q8.9.2,13.258-4.76t4.533-12.853l.035-1.6,8.3.182-.028,1.3q-.264,12-7.063,18.75T531.284,913.082Z"/><path class="cls-3" d="M604.1,907.42q-12.311,2.177-20.907-3.666t-11.019-19.53l-2.786-15.755q-2.419-13.687,3.654-22.124t18.383-10.613q12.406-2.193,21.006,3.648t11.018,19.53l2.787,15.756q2.419,13.688-3.655,22.124T604.1,907.42Zm-1.306-7.385q8.959-1.586,12.936-7.822t2.286-15.789l-2.891-16.346q-1.687-9.552-7.56-14.049t-14.834-2.912q-8.863,1.568-12.837,7.8t-2.286,15.789l2.889,16.347q1.689,9.553,7.562,14.048T602.792,900.035Z"/><path class="cls-3" d="M665.6,889.619l-44.826-57.756,8.12-3.124,41.128,53.715,1.214-.467-5.476-67.43,8.119-3.124,5.44,72.908Z"/><path class="cls-3" d="M717.165,866.9l-36.776-59.56,36.673-22.644,3.992,6.467-29.525,18.23,12.294,19.91,27.143-16.759,3.992,6.466-27.142,16.76,12.5,20.251,29.952-18.494,3.992,6.467Z"/><path class="cls-3" d="M772.547,830.2l-47.173-51.718,20.909-19.071a27.421,27.421,0,0,1,9.976-6.054,18.177,18.177,0,0,1,10.039-.494,17.371,17.371,0,0,1,8.773,5.464l.742.813q4.65,5.1,4.908,10.276a16.289,16.289,0,0,1-2.124,9.247l.943,1.034a8.626,8.626,0,0,1,5.98-2.273q3.252.08,6.285,3.4l15.837,17.362-6.133,5.594L786.347,787.16a6.117,6.117,0,0,0-4.32-2.286,6.859,6.859,0,0,0-4.735,2.153l-17.88,16.308,19.342,21.2Zm-18.256-32.48L768.4,784.849q5.1-4.65,5.612-9.652t-3.53-9.435l-.473-.517q-4.042-4.433-9.034-4.415t-10.163,4.736L736.7,778.437Z"/><path class="cls-3" d="M824.712,778.914,768.8,736.8l25.929-34.428,6.071,4.572L779.92,734.665l18.692,14.077L817.8,723.26l6.071,4.572-19.19,25.482,19.01,14.318,21.177-28.118,6.071,4.572Z"/><path class="cls-3" d="M861.829,726.562,799.249,695.2l12.681-25.3a27.448,27.448,0,0,1,7.142-9.228,18.187,18.187,0,0,1,9.2-4.06,17.378,17.378,0,0,1,10.149,1.955l.984.493q6.168,3.092,8.265,7.834A16.281,16.281,0,0,1,849,676.282l1.252.628a8.625,8.625,0,0,1,4.767-4.267q3.063-1.091,7.087.924l21.008,10.53-3.718,7.42-20.115-10.082a6.118,6.118,0,0,0-4.852-.586,6.863,6.863,0,0,0-3.649,3.708l-10.842,21.635,25.657,12.86Zm-28.688-23.775,8.558-17.076q3.093-6.168,1.778-11.022t-6.679-7.542l-.626-.314q-5.364-2.688-10.017-.881t-7.789,8.064l-8.558,17.075Z"/><path class="cls-3" d="M358.511,320.609,338.67,295.736,283.3,273.9l8.942-7.134,42.482,17.33,1.3-1.04-7.455-45.271,8.943-7.134,8.98,58.84,19.841,24.872Z"/><path class="cls-3" d="M420.9,283.333q-13.529,6.242-25.206,2.115t-18.62-19.166l-7.986-17.313q-6.939-15.038-2.5-26.6t17.967-17.8q13.635-6.29,25.314-2.164t18.619,19.166l7.987,17.312q6.939,15.042,2.5,26.6T420.9,283.333Zm-3.745-8.115q9.846-4.542,12.537-12.935t-2.153-18.889l-8.287-17.962q-4.841-10.492-12.973-13.9T388.3,212.677q-9.738,4.493-12.428,12.886t2.153,18.889l8.287,17.961q4.842,10.5,12.972,13.9T417.152,275.218Z"/><path class="cls-3" d="M491.217,261.572a36.917,36.917,0,0,1-16.536-.583,24.283,24.283,0,0,1-12.236-8.019q-4.866-5.883-6.477-15.4l-9.276-54.75,9.752-1.652,9.295,54.867q1.713,10.105,7.973,14.241t16.012,2.484q9.752-1.651,14.3-7.62t2.835-16.072l-9.3-54.867,9.869-1.672,9.276,54.75q1.612,9.517-1.043,16.674a24.22,24.22,0,0,1-8.971,11.612A37.3,37.3,0,0,1,491.217,261.572Z"/><path class="cls-3" d="M555.689,254.351l40.339-77.415,17.348,3.176,10.3,86.686-10.2-1.867-2.532-21.906-34.929-6.4-10.128,19.588Zm24.418-26.179L610,233.645l-5.567-48.993-1.642-.3Z"/><path class="cls-3" d="M630.831,269.907l34.835-75.792L696.308,208.2a32.657,32.657,0,0,1,11.277,8.135,21.652,21.652,0,0,1,5.206,10.786,20.7,20.7,0,0,1-1.92,12.166l-.547,1.192q-3.433,7.47-9,10.159a19.412,19.412,0,0,1-11.133,1.965l-.7,1.516a10.278,10.278,0,0,1,5.274,5.506q1.422,3.6-.815,8.478l-11.7,25.444-8.986-4.13,11.2-24.362a7.289,7.289,0,0,0,.5-5.8q-.99-2.551-4.564-4.2l-26.2-12.043-14.282,31.075Zm27.159-35.123,20.681,9.5q7.47,3.434,13.2,1.672t8.713-8.257l.349-.758q2.985-6.5.646-11.965t-9.918-8.952l-20.68-9.5Z"/><path class="cls-3" d="M693.98,301.339l51.529-65.595L785.9,267.471l-5.6,7.122-32.517-25.544-17.224,21.928,29.892,23.482-5.594,7.122L724.966,278.1l-17.52,22.3,32.985,25.912-5.6,7.122Z"/><circle class="cls-4" cx="271.062" cy="341.48" r="7.535"/><circle class="cls-5" cx="805.883" cy="341.48" r="7.535"/><path class="cls-6" d="M538.473,305.472c-128.476,0-233,104.523-233,233s104.524,233,233,233,233-104.524,233-233S666.949,305.472,538.473,305.472Zm0,459.407a225.049,225.049,0,0,1-117.779-33.11c-65.1-39.811-108.627-111.566-108.627-193.3,0-124.84,101.566-226.406,226.406-226.406S764.878,413.632,764.878,538.472,663.312,764.879,538.473,764.879Z"/><path class="cls-7" d="M538.473,337.957c-110.565,0-200.516,89.95-200.516,200.515s89.951,200.517,200.516,200.517S738.99,649.038,738.99,538.472,649.039,337.957,538.473,337.957Zm0,394.437c-106.929,0-193.922-86.992-193.922-193.922s86.993-193.921,193.922-193.921S732.4,431.544,732.4,538.472,645.4,732.394,538.473,732.394Z"/><polygon class="cls-8" points="532.414 382.482 532.201 369.32 542.662 382.316 548.489 382.221 548.099 358.229 541.518 358.335 541.724 371.017 531.647 358.495 525.444 358.596 525.833 382.589 532.414 382.482"/><path class="cls-9" d="M686.032,535.225,606.98,525.33a69.486,69.486,0,0,0-14.465-30.944l18.9-24.316a3.3,3.3,0,0,0-4.628-4.627l-24.314,18.9a69.487,69.487,0,0,0-30.944-14.465l-9.9-79.052a3.3,3.3,0,0,0-6.543,0l-9.9,79.052a69.49,69.49,0,0,0-30.945,14.465l-24.316-18.9a3.3,3.3,0,0,0-4.628,4.627l18.907,24.316a69.483,69.483,0,0,0-14.465,30.943l-79.051,9.9a3.3,3.3,0,0,0,0,6.543l79.051,9.9a69.476,69.476,0,0,0,14.465,30.944l-18.907,24.318a3.3,3.3,0,0,0,4.628,4.628l24.317-18.906A69.466,69.466,0,0,0,525.2,607.111l9.9,79.052a3.3,3.3,0,0,0,6.543,0l9.9-79.052a69.462,69.462,0,0,0,30.943-14.463l24.315,18.906a3.3,3.3,0,0,0,4.628-4.628l-18.9-24.317a69.464,69.464,0,0,0,14.465-30.945l79.052-9.9a3.3,3.3,0,0,0,0-6.543ZM600.108,524.47l-28.234-3.534,16.5-21.217A62.944,62.944,0,0,1,600.108,524.47ZM577.143,488.5l-21.214,16.493-3.535-28.234A62.94,62.94,0,0,1,577.143,488.5Zm-52.806-11.741L520.8,504.988,499.587,488.5A62.944,62.944,0,0,1,524.337,476.754Zm-35.976,22.965,16.5,21.215-28.234,3.535A62.931,62.931,0,0,1,488.361,499.719Zm-11.739,52.806,28.235,3.534-16.5,21.216A62.942,62.942,0,0,1,476.622,552.525ZM499.586,588.5l21.216-16.5,3.535,28.235A62.951,62.951,0,0,1,499.586,588.5Zm52.808,11.739,3.535-28.235,21.215,16.5A62.933,62.933,0,0,1,552.394,600.24Zm35.974-22.965-16.494-21.216,28.234-3.534A62.935,62.935,0,0,1,588.368,577.275ZM565.3,550.237a3.3,3.3,0,0,0-2.194,5.3l26.938,34.648L555.4,563.241a3.3,3.3,0,0,0-5.3,2.193l-11.74,93.777-11.739-93.777a3.3,3.3,0,0,0-5.3-2.193L486.682,590.18l26.94-34.648a3.3,3.3,0,0,0-2.194-5.3L417.652,538.5l93.776-11.74a3.3,3.3,0,0,0,2.194-5.3l-26.94-34.647,34.648,26.938a3.3,3.3,0,0,0,5.3-2.193l11.739-93.775,11.74,93.775a3.3,3.3,0,0,0,5.3,2.193l34.648-26.938-26.94,34.648a3.3,3.3,0,0,0,2.194,5.3L659.077,538.5Z"/><path class="cls-10" d="M569.89,407.871c48.53,11.67,87.431,50.57,99.1,99.1a3.3,3.3,0,1,0,6.41-1.541C663.16,454.514,622.349,413.7,571.431,401.459a3.3,3.3,0,0,0-1.541,6.412Z"/><path class="cls-11" d="M506.838,669.126c-48.53-11.673-87.428-50.574-99.1-99.1a3.3,3.3,0,1,0-6.409,1.541c12.244,50.915,53.055,91.728,103.97,103.972a3.3,3.3,0,1,0,1.541-6.409Z"/><path class="cls-12" d="M403.761,509.406a3.292,3.292,0,0,0,3.975-2.435c11.674-48.53,50.574-87.43,99.1-99.1a3.3,3.3,0,0,0-1.541-6.412c-50.915,12.244-91.726,53.054-103.97,103.971A3.3,3.3,0,0,0,403.761,509.406Z"/><path class="cls-13" d="M672.968,567.587a3.3,3.3,0,0,0-3.976,2.435c-11.671,48.53-50.569,87.431-99.1,99.1a3.3,3.3,0,0,0,.769,6.5,3.246,3.246,0,0,0,.772-.093c50.918-12.244,91.729-53.057,103.971-103.972A3.3,3.3,0,0,0,672.968,567.587Z"/><path class="cls-14" d="M539.469,705.361c-3.337-.7-4.167-1.166-4.185-2.263v-.069c-.015-.856.763-1.555,2.373-1.58a12.019,12.019,0,0,1,6.757,2.254l3.249-4.749a15.1,15.1,0,0,0-9.923-3.027c-5.758.092-9.237,3.372-9.165,7.829v.069c.081,4.935,4.045,6.311,9.172,7.393,3.268.7,4.065,1.237,4.081,2.231v.067c.017,1.03-.932,1.662-2.715,1.691a12.37,12.37,0,0,1-7.827-2.752l-3.631,4.481a16.762,16.762,0,0,0,11.308,3.793c5.827-.094,9.652-3.071,9.573-7.973v-.067C548.463,708.2,545.007,706.471,539.469,705.361Z"/><polygon class="cls-15" points="703.789 542.98 703.789 539.17 715.316 539.17 715.316 533.921 703.789 533.921 703.789 530.285 716.517 530.285 716.517 524.625 697.202 524.625 697.202 548.64 716.689 548.64 716.689 542.98 703.789 542.98"/><polygon class="cls-16" points="381.922 524.625 377.738 538.519 373.105 524.556 367.376 524.556 362.744 538.519 358.558 524.625 351.526 524.625 359.554 548.811 365.352 548.811 370.154 534.986 374.993 548.811 380.792 548.811 388.819 524.625 381.922 524.625"/><path class="cls-17" d="M538.474,523.287a15.185,15.185,0,1,0,15.185,15.185A15.186,15.186,0,0,0,538.474,523.287Z"/></svg>