<svg id="Layer_1" data-name="Layer 1" xmlns="http://www.w3.org/2000/svg" xmlns:xlink="http://www.w3.org/1999/xlink" viewBox="0 0 1076.945 1076.945"><defs><style>.cls-1{fill:url(#linear-gradient);}.cls-2{fill:url(#linear-gradient-2);}.cls-3{fill:#fff;}.cls-4{fill:url(#linear-gradient-3);}.cls-5{fill:url(#linear-gradient-4);}.cls-6{fill:url(#linear-gradient-5);}.cls-7{fill:url(#linear-gradient-6);}.cls-8{fill:url(#linear-gradient-7);}.cls-9{fill:url(#linear-gradient-8);}.cls-10{fill:url(#linear-gradient-9);}.cls-11{fill:url(#linear-gradient-10);}.cls-12{fill:url(#linear-gradient-11);}.cls-13{fill:url(#linear-gradient-12);}.cls-14{fill:url(#linear-gradient-13);}.cls-15{fill:url(#linear-gradient-14);}.cls-16{fill:url(#linear-gradient-15);}.cls-17{fill:url(#linear-gradient-16);}.cls-18{fill:url(#linear-gradient-17);}.cls-19{fill:url(#linear-gradient-18);}.cls-20{fill:url(#linear-gradient-19);}</style><linearGradient id="linear-gradient" x1="81.754" y1="995.191" x2="971.742" y2="105.203" gradientUnits="userSpaceOnUse"><stop offset="0.08" stop-color="#dee13d"/><stop offset="0.377" stop-color="#7cbd99"/><stop offset="0.71" stop-color="#599fd9"/><stop offset="0.95" stop-color="#7cc6f2"/></linearGradient><linearGradient id="linear-gradient-2" x1="188.709" y1="888.236" x2="859.197" y2="217.749" gradientUnits="userSpaceOnUse"><stop offset="0" stop-color="#020f15"/><stop offset="1" stop-color="#0d2233"/></linearGradient><linearGradient id="linear-gradient-3" x1="329.711" y1="747.234" x2="724.457" y2="352.488" xlink:href="#linear-gradient"/><linearGradient id="linear-gradient-4" x1="329.711" y1="747.234" x2="724.457" y2="352.487" xlink:href="#linear-gradient"/><linearGradient id="linear-gradient-5" x1="325.731" y1="743.254" x2="720.477" y2="348.508" xlink:href="#linear-gradient"/><linearGradient id="linear-gradient-6" x1="396.749" y1="814.272" x2="791.496" y2="419.526" xlink:href="#linear-gradient"/><linearGradient id="linear-gradient-7" x1="391.299" y1="808.822" x2="786.046" y2="414.076" xlink:href="#linear-gradient"/><linearGradient id="linear-gradient-8" x1="427.139" y1="844.662" x2="821.885" y2="449.916" xlink:href="#linear-gradient"/><linearGradient id="linear-gradient-9" x1="263.123" y1="680.646" x2="657.869" y2="285.899" xlink:href="#linear-gradient"/><linearGradient id="linear-gradient-10" x1="308.008" y1="725.531" x2="702.754" y2="330.784" xlink:href="#linear-gradient"/><linearGradient id="linear-gradient-11" x1="319.216" y1="736.739" x2="713.963" y2="341.993" xlink:href="#linear-gradient"/><linearGradient id="linear-gradient-12" x1="354.033" y1="771.556" x2="748.78" y2="376.81" xlink:href="#linear-gradient"/><linearGradient id="linear-gradient-13" x1="225.641" y1="643.164" x2="620.388" y2="248.418" xlink:href="#linear-gradient"/><linearGradient id="linear-gradient-14" x1="217.518" y1="635.041" x2="612.264" y2="240.294" xlink:href="#linear-gradient"/><linearGradient id="linear-gradient-15" x1="281.889" y1="699.412" x2="676.635" y2="304.666" xlink:href="#linear-gradient"/><linearGradient id="linear-gradient-16" x1="366.003" y1="783.526" x2="760.75" y2="388.78" xlink:href="#linear-gradient"/><linearGradient id="linear-gradient-17" x1="435.722" y1="853.245" x2="830.468" y2="458.498" xlink:href="#linear-gradient"/><linearGradient id="linear-gradient-18" x1="-167.244" y1="779.786" x2="755.475" y2="-142.932" xlink:href="#linear-gradient"/><linearGradient id="linear-gradient-19" x1="100.166" y1="1047.197" x2="1022.885" y2="124.478" xlink:href="#linear-gradient"/></defs><circle class="cls-1" cx="538.473" cy="538.473" r="538.473"/><circle class="cls-2" cx="538.473" cy="538.473" r="432.5"/><path class="cls-3" d="M167.445,497.06l62.1,6.149,2.217-22.39,7.563.749-5.262,53.14-7.564-.749,2.218-22.391-62.1-6.149Z"/><path class="cls-3" d="M164.47,546.7l69.734-6.1.732,8.368-30.982,2.709,2.857,32.675,30.981-2.709.732,8.369-69.734,6.1-.731-8.368,31.18-2.726-2.856-32.676L165.2,555.07Z"/><path class="cls-3" d="M173.524,619.8l67.414-18.849,11.606,41.507-7.319,2.047-9.344-33.418-22.536,6.3,8.59,30.721-7.32,2.047-8.59-30.722-22.92,6.409,9.478,33.9-7.319,2.046Z"/><path class="cls-3" d="M204.275,704.985l62.274-31.97,3.836,7.473-62.273,31.97Z"/><path class="cls-3" d="M218.234,732.01l57.3-40.208,9.363,13.343-38.946,57.137.746,1.064,52.962-37.164,4.768,6.794-57.3,40.209-9.363-13.343,39.085-57.113-.8-1.146L223,738.805Z"/><path class="cls-3" d="M279.094,808.852a32.793,32.793,0,0,1-7.924-11.378,21.229,21.229,0,0,1-1.155-12.426q1.294-6.318,6.983-12.226l1.456-1.512,5.98,5.757-1.457,1.513q-6.034,6.265-5.309,12.865t6.489,12.148q5.906,5.687,11.571,6a11.751,11.751,0,0,0,9.547-3.717,9.276,9.276,0,0,0,2.9-5.819,14.028,14.028,0,0,0-1.325-6.481,53.464,53.464,0,0,0-4.139-7.524l-2.844-4.544a58.046,58.046,0,0,1-5.075-10.3,18.975,18.975,0,0,1-1.1-9.456,16.329,16.329,0,0,1,4.784-8.79,17.581,17.581,0,0,1,9.2-5.3,18.751,18.751,0,0,1,10.557,1,31.059,31.059,0,0,1,10.491,6.91,31.753,31.753,0,0,1,7.485,10.608,20.3,20.3,0,0,1,1.417,11.36,20.7,20.7,0,0,1-5.947,10.862l-2.913,3.026-5.98-5.757,2.914-3.026a14.132,14.132,0,0,0,4.139-7.4,12.75,12.75,0,0,0-1.06-7.406,22.868,22.868,0,0,0-5.119-7.011q-4.97-4.787-10.111-5.5a10.06,10.06,0,0,0-9.025,3.318,9.458,9.458,0,0,0-2.865,5.571,12.867,12.867,0,0,0,1.073,6.238,46.791,46.791,0,0,0,3.921,7.317l2.845,4.543a51.569,51.569,0,0,1,5.426,10.153,20.06,20.06,0,0,1,1.351,9.769q-.582,4.785-4.881,9.251a18.88,18.88,0,0,1-9.725,5.63,20.341,20.341,0,0,1-11.262-.919A31.957,31.957,0,0,1,279.094,808.852Z"/><path class="cls-3" d="M314.726,838.1l38.558-58.423,22.367,14.762a25.035,25.035,0,0,1,8.041,8.242,19.364,19.364,0,0,1,2.723,10.124,19.7,19.7,0,0,1-3.584,10.7l-.716,1.085a19.521,19.521,0,0,1-8.438,7.431,19.161,19.161,0,0,1-10.464,1.421,25.318,25.318,0,0,1-10.586-4.111L337.27,819.186l-15.534,23.536Zm26.73-25.252,14.607,9.639q5.589,3.69,10.691,3.043t8.461-5.739l.551-.834q3.358-5.091,1.992-10.008t-7.044-8.663l-14.605-9.639Z"/><path class="cls-3" d="M370.834,872.1l30.77-62.875,7.545,3.693L378.379,875.8Z"/><path class="cls-3" d="M398.071,885.25,420.2,818.838l26.85,8.945a27.4,27.4,0,0,1,10.151,5.754,18.16,18.16,0,0,1,5.33,8.521,17.372,17.372,0,0,1-.488,10.325l-.347,1.043q-2.181,6.548-6.576,9.3a16.279,16.279,0,0,1-9.107,2.657l-.442,1.329a8.625,8.625,0,0,1,4.9,4.11q1.518,2.877.1,7.147l-7.427,22.3-7.875-2.623,7.111-21.347a6.115,6.115,0,0,0-.111-4.886,6.861,6.861,0,0,0-4.191-3.082l-22.96-7.649-9.07,27.229Zm19.443-31.784,18.121,6.036q6.546,2.183,11.163.188t6.513-7.685l.22-.664q1.9-5.692-.554-10.04t-9.093-6.561L425.763,828.7Z"/><path class="cls-3" d="M461.134,904.877l30.441-66.632,14.677,1.908,12.4,72.2-8.627-1.122-3.075-18.248-29.55-3.841L469.761,906Zm19.325-23,25.287,3.287-6.8-40.816-1.387-.181Z"/><path class="cls-3" d="M545.9,911.7l-1.908-62.371-22.49.687-.231-7.6,53.375-1.632.231,7.6-22.489.688,1.907,62.371Z"/><path class="cls-3" d="M594.97,907.524,583.684,838.44l8.29-1.355L603.26,906.17Z"/><path class="cls-3" d="M649.773,896.339q-11.939,3.711-21.2-1t-13.391-17.985l-4.749-15.279q-4.125-13.272.837-22.408t16.9-12.845q12.033-3.74,21.3.972t13.392,17.986l4.749,15.279q4.126,13.273-.837,22.408T649.773,896.339Zm-2.227-7.162q8.689-2.7,11.848-9.389t.277-15.952l-4.927-15.851q-2.878-9.261-9.271-12.984t-15.082-1.019q-8.6,2.672-11.752,9.36t-.278,15.951l4.927,15.852q2.88,9.264,9.272,12.983T647.546,889.177Z"/><path class="cls-3" d="M696.629,877.626l-33.845-61.274,14.269-7.881,52.64,44.838,1.138-.629-31.282-56.635,7.266-4.013,33.844,61.275-14.268,7.88-52.6-44.973-1.225.677L703.9,873.613Z"/><path class="cls-3" d="M801.027,805.768a32.794,32.794,0,0,1-11.607,7.585,21.236,21.236,0,0,1-12.454.787q-6.278-1.481-12.014-7.341l-1.469-1.5,5.931-5.806,1.469,1.5q6.087,6.217,12.7,5.686t12.334-6.127q5.859-5.736,6.345-11.388a11.759,11.759,0,0,0-3.434-9.654,9.276,9.276,0,0,0-5.73-3.067,14.038,14.038,0,0,0-6.519,1.134,53.548,53.548,0,0,0-7.642,3.914l-4.626,2.709a58,58,0,0,1-10.446,4.768,18.972,18.972,0,0,1-9.484.819,16.349,16.349,0,0,1-8.645-5.042,17.586,17.586,0,0,1-5.027-9.352,18.75,18.75,0,0,1,1.313-10.523,31.032,31.032,0,0,1,7.217-10.283,31.767,31.767,0,0,1,10.825-7.169,20.3,20.3,0,0,1,11.4-1.081,20.7,20.7,0,0,1,10.683,6.266l2.937,3-5.931,5.807-2.938-3a14.128,14.128,0,0,0-7.272-4.356,12.75,12.75,0,0,0-7.434.841,22.854,22.854,0,0,0-7.159,4.909q-4.931,4.827-5.8,9.945a10.056,10.056,0,0,0,3.05,9.119,9.449,9.449,0,0,0,5.483,3.028,12.873,12.873,0,0,0,6.268-.888,46.78,46.78,0,0,0,7.428-3.7l4.626-2.709a51.542,51.542,0,0,1,10.308-5.123,20.058,20.058,0,0,1,9.806-1.063q4.764.723,9.1,5.153a18.854,18.854,0,0,1,5.34,9.886,20.325,20.325,0,0,1-1.251,11.23A31.948,31.948,0,0,1,801.027,805.768Z"/><path class="cls-3" d="M831.05,771.17l-57.02-40.6,25-35.108,6.191,4.409-20.128,28.265,19.06,13.574,18.5-25.985,6.192,4.409-18.5,25.984,19.387,13.806,20.418-28.672,6.191,4.408Z"/><path class="cls-3" d="M866.363,718.144l-63.089-30.326,18.671-38.845,6.85,3.293L813.763,683.54l21.09,10.138,13.819-28.751,6.851,3.292L841.7,696.97l21.45,10.311,15.25-31.725,6.85,3.292Z"/><path class="cls-3" d="M892.4,659.546l-67.486-18.594,2.232-8.1,29.4,8.1.372-1.351-21.542-36.637,2.975-10.8,24.3,42.065,43.505-24.629L903.1,620.693l-38.084,21.144-.372,1.35,29.983,8.26Z"/><path class="cls-3" d="M908.386,592.692l-69.714-6.323,3.894-42.924,7.568.686L847,578.689l23.3,2.114,2.882-31.769,7.568.686-2.881,31.77,23.7,2.15,3.18-35.057,7.569.687Z"/><path class="cls-3" d="M912.359,528.747,842.63,534.89,840.147,506.7a27.4,27.4,0,0,1,1.236-11.6,18.164,18.164,0,0,1,5.695-8.282,17.38,17.38,0,0,1,9.666-3.663l1.1-.1q6.873-.606,11.147,2.331a16.281,16.281,0,0,1,6.064,7.3l1.394-.123a8.63,8.63,0,0,1,1.819-6.134q2.035-2.537,6.518-2.933l23.41-2.062.728,8.268-22.414,1.974a6.119,6.119,0,0,0-4.438,2.048,6.862,6.862,0,0,0-1.159,5.071l2.124,24.106,28.589-2.518Zm-36.9-5.183-1.676-19.026q-.6-6.873-4.271-10.315t-9.644-2.914l-.7.061q-5.976.526-8.989,4.506t-2.4,10.953l1.676,19.026Z"/><path class="cls-3" d="M358.511,320.609,338.67,295.736,283.3,273.9l8.942-7.134,42.482,17.33,1.3-1.04-7.455-45.271,8.943-7.134,8.98,58.84,19.841,24.872Z"/><path class="cls-3" d="M420.9,283.333q-13.529,6.242-25.206,2.115t-18.62-19.166l-7.986-17.313q-6.939-15.038-2.5-26.6t17.967-17.8q13.635-6.29,25.314-2.164t18.619,19.166l7.987,17.312q6.939,15.042,2.5,26.6T420.9,283.333Zm-3.745-8.115q9.846-4.542,12.537-12.935t-2.153-18.889l-8.287-17.962q-4.841-10.492-12.973-13.9T388.3,212.677q-9.738,4.493-12.428,12.886t2.153,18.889l8.287,17.961q4.842,10.5,12.972,13.9T417.152,275.218Z"/><path class="cls-3" d="M491.217,261.572a36.917,36.917,0,0,1-16.536-.583,24.283,24.283,0,0,1-12.236-8.019q-4.866-5.883-6.477-15.4l-9.276-54.75,9.752-1.652,9.295,54.867q1.713,10.105,7.973,14.241t16.012,2.484q9.752-1.651,14.3-7.62t2.835-16.072l-9.3-54.867,9.869-1.672,9.276,54.75q1.612,9.517-1.043,16.674a24.22,24.22,0,0,1-8.971,11.612A37.3,37.3,0,0,1,491.217,261.572Z"/><path class="cls-3" d="M555.689,254.351l40.339-77.415,17.348,3.176,10.3,86.686-10.2-1.867-2.532-21.906-34.929-6.4-10.128,19.588Zm24.418-26.179L610,233.645l-5.567-48.993-1.642-.3Z"/><path class="cls-3" d="M630.831,269.907l34.835-75.792L696.308,208.2a32.657,32.657,0,0,1,11.277,8.135,21.652,21.652,0,0,1,5.206,10.786,20.7,20.7,0,0,1-1.92,12.166l-.547,1.192q-3.433,7.47-9,10.159a19.412,19.412,0,0,1-11.133,1.965l-.7,1.516a10.278,10.278,0,0,1,5.274,5.506q1.422,3.6-.815,8.478l-11.7,25.444-8.986-4.13,11.2-24.362a7.289,7.289,0,0,0,.5-5.8q-.99-2.551-4.564-4.2l-26.2-12.043-14.282,31.075Zm27.159-35.123,20.681,9.5q7.47,3.434,13.2,1.672t8.713-8.257l.349-.758q2.985-6.5.646-11.965t-9.918-8.952l-20.68-9.5Z"/><path class="cls-3" d="M693.98,301.339l51.529-65.595L785.9,267.471l-5.6,7.122-32.517-25.544-17.224,21.928,29.892,23.482-5.594,7.122L724.966,278.1l-17.52,22.3,32.985,25.912-5.6,7.122Z"/><path class="cls-4" d="M538.473,306.2C410.4,306.2,306.2,410.4,306.2,538.472S410.4,770.749,538.473,770.749s232.275-104.2,232.275-232.277S666.549,306.2,538.473,306.2Zm0,457.978c-124.452,0-225.7-101.25-225.7-225.7s101.25-225.7,225.7-225.7,225.7,101.25,225.7,225.7S662.924,764.175,538.473,764.175Z"/><path class="cls-5" d="M538.473,338.58c-110.223,0-199.895,89.671-199.895,199.892s89.672,199.893,199.9,199.893,199.892-89.671,199.892-199.893S648.694,338.58,538.473,338.58Zm0,393.211c-106.6,0-193.321-86.722-193.321-193.319s86.723-193.318,193.321-193.318,193.318,86.722,193.318,193.318S645.068,731.791,538.473,731.791Z"/><path class="cls-6" d="M538.473,384.043a96.548,96.548,0,0,0-96.44,96.438c0,24.783,9.664,52.825,25.852,75.012a83.948,83.948,0,0,1,16.535,49.673v1.4a27.33,27.33,0,0,0,17.622,25.5,18.239,18.239,0,0,0-6.03,13.538v22.9a18.32,18.32,0,0,0,16.711,18.222v1.028a11.939,11.939,0,1,0,23.877,0v-.948h2.078v.948a11.94,11.94,0,0,0,23.879,0v-1.028a18.319,18.319,0,0,0,16.709-18.222v-22.9a18.24,18.24,0,0,0-5.849-13.375,27.331,27.331,0,0,0,18.064-25.665,83.971,83.971,0,0,1,16.967-50.246c16.569-22.345,26.462-50.7,26.462-75.843A96.547,96.547,0,0,0,538.473,384.043ZM530.026,687.76a5.365,5.365,0,1,1-10.729,0v-.948h10.729Zm25.958,0a5.366,5.366,0,0,1-10.732,0v-.948h10.732Zm16.708-19.25a11.741,11.741,0,0,1-11.727,11.729h-46.65a11.743,11.743,0,0,1-11.729-11.729v-22.9a11.743,11.743,0,0,1,11.729-11.728h46.65a11.741,11.741,0,0,1,11.727,11.728Zm-56.34-152.943c7.7.441,15.583-.826,21.609-4.252,6.026,3.429,13.9,4.7,21.607,4.252-1.489,19.974-5.711,97.664-6.473,111.741H522.826C522.064,613.231,517.841,535.541,516.352,515.567Zm16.705-31.7c1.292-3.292,3.485-3.292,4.207-3.292h1.393c.721,0,2.916,0,4.209,3.293,1.99,5.069.454,14.194-4.9,19.34C532.6,498.061,531.064,488.935,533.057,483.866Zm70.11,68.542a90.5,90.5,0,0,0-18.26,54.162,20.761,20.761,0,0,1-20.738,20.738h-4.49c.819-15.11,5.193-95.475,6.544-112.555a42.732,42.732,0,0,0,11.939-4.024,18.2,18.2,0,0,0,9.283-19.7c-1.252-5.938-5.309-9.86-10.589-10.238-12.627-.919-15.559,16.712-16.717,28.2a36.08,36.08,0,0,1-16.528-2.186c5.983-6.685,8.4-17.632,5.375-25.347-1.864-4.745-5.628-7.464-10.329-7.464h-1.393c-4.7,0-8.464,2.719-10.328,7.463-3.03,7.715-.607,18.663,5.378,25.348A36.1,36.1,0,0,1,515.781,509c-1.156-11.491-4.032-29.124-16.717-28.2-5.277.378-9.334,4.3-10.586,10.24a18.194,18.194,0,0,0,9.283,19.694,42.733,42.733,0,0,0,11.936,4.024c1.351,17.08,5.725,97.445,6.544,112.555h-4.507a20.763,20.763,0,0,1-20.74-20.738v-1.4a90.479,90.479,0,0,0-17.8-53.547c-15.4-21.1-24.59-47.7-24.59-71.138a89.865,89.865,0,1,1,179.729,0C628.336,504.268,618.927,531.156,603.167,552.408Zm-36.274-44.482c1.2-10.064,3.559-20.586,9.167-20.586.109,0,.219,0,.328.012,3.355.239,4.387,3.917,4.624,5.038a11.581,11.581,0,0,1-5.927,12.529A35.138,35.138,0,0,1,566.893,507.926Zm-57.866,0a35.164,35.164,0,0,1-8.189-3.007,11.58,11.58,0,0,1-5.928-12.528c.236-1.121,1.269-4.8,4.623-5.039.111-.008.22-.012.329-.012C505.471,487.34,507.833,497.863,509.027,507.926Z"/><circle class="cls-7" cx="691.865" cy="519.156" r="5.347"/><circle class="cls-8" cx="643.741" cy="556.38" r="5.347"/><path class="cls-9" d="M670.8,616.178l-5.9-1.43a10.65,10.65,0,0,1-7.844-7.844l-1.43-5.9a.9.9,0,0,0-1.758,0l-1.43,5.9a10.65,10.65,0,0,1-7.844,7.844l-5.9,1.43a.9.9,0,0,0,0,1.758l5.9,1.43a10.648,10.648,0,0,1,7.844,7.844l1.43,5.9a.9.9,0,0,0,1.758,0l1.43-5.9a10.648,10.648,0,0,1,7.844-7.844l5.9-1.43A.9.9,0,0,0,670.8,616.178Z"/><path class="cls-10" d="M414.548,544.4l-5.9-1.43a10.651,10.651,0,0,1-7.844-7.844l-1.429-5.9a.905.905,0,0,0-1.759,0l-1.429,5.9a10.651,10.651,0,0,1-7.844,7.844l-5.9,1.43a.9.9,0,0,0,0,1.758l5.9,1.43a10.65,10.65,0,0,1,7.844,7.844l1.429,5.9a.905.905,0,0,0,1.759,0l1.429-5.9a10.65,10.65,0,0,1,7.844-7.844l5.9-1.43A.9.9,0,0,0,414.548,544.4Z"/><circle class="cls-11" cx="447.543" cy="585.995" r="5.347"/><circle class="cls-12" cx="417.928" cy="638.027" r="5.347"/><path class="cls-13" d="M682.465,458.3l-5.9-1.429a10.651,10.651,0,0,1-7.844-7.844l-1.429-5.9a.9.9,0,0,0-1.759,0l-1.43,5.9a10.648,10.648,0,0,1-7.844,7.844l-5.9,1.429a.9.9,0,0,0,0,1.759l5.9,1.429a10.65,10.65,0,0,1,7.844,7.844l1.43,5.9a.9.9,0,0,0,1.759,0l1.429-5.9a10.653,10.653,0,0,1,7.844-7.844l5.9-1.429A.9.9,0,0,0,682.465,458.3Z"/><circle class="cls-14" cx="406.823" cy="461.983" r="5.347"/><circle class="cls-15" cx="457.415" cy="395.144" r="5.347"/><circle class="cls-16" cx="601.376" cy="379.925" r="5.347"/><circle class="cls-17" cx="466.052" cy="683.477" r="5.347"/><circle class="cls-18" cx="616.594" cy="672.372" r="5.347"/><circle class="cls-19" cx="271.062" cy="341.48" r="7.535"/><circle class="cls-20" cx="805.883" cy="341.48" r="7.535"/></svg>