<svg id="Layer_1" data-name="Layer 1" xmlns="http://www.w3.org/2000/svg" xmlns:xlink="http://www.w3.org/1999/xlink" viewBox="0 0 1076.945 1076.945"><defs><style>.cls-1{fill:url(#linear-gradient);}.cls-2{fill:url(#linear-gradient-2);}.cls-3{fill:#fff;}.cls-4{fill:url(#linear-gradient-3);}.cls-5{fill:url(#linear-gradient-4);}.cls-6{fill:url(#linear-gradient-5);}.cls-7{fill:url(#linear-gradient-6);}.cls-8{fill:url(#linear-gradient-7);}.cls-9{fill:url(#linear-gradient-8);}.cls-10{fill:url(#linear-gradient-9);}.cls-11{fill:url(#linear-gradient-10);}.cls-12{fill:url(#linear-gradient-11);}.cls-13{fill:url(#linear-gradient-12);}.cls-14{fill:url(#linear-gradient-13);}.cls-15{fill:url(#linear-gradient-14);}.cls-16{fill:url(#linear-gradient-15);}.cls-17{fill:url(#linear-gradient-16);}.cls-18{fill:url(#linear-gradient-17);}</style><linearGradient id="linear-gradient" x1="81.754" y1="995.191" x2="971.742" y2="105.203" gradientUnits="userSpaceOnUse"><stop offset="0.08" stop-color="#dee13d"/><stop offset="0.377" stop-color="#7cbd99"/><stop offset="0.71" stop-color="#599fd9"/><stop offset="0.95" stop-color="#7cc6f2"/></linearGradient><linearGradient id="linear-gradient-2" x1="188.709" y1="888.236" x2="859.197" y2="217.749" gradientUnits="userSpaceOnUse"><stop offset="0" stop-color="#020f15"/><stop offset="1" stop-color="#0d2233"/></linearGradient><linearGradient id="linear-gradient-3" x1="-167.244" y1="779.786" x2="755.475" y2="-142.932" xlink:href="#linear-gradient"/><linearGradient id="linear-gradient-4" x1="100.166" y1="1047.197" x2="1022.885" y2="124.478" xlink:href="#linear-gradient"/><linearGradient id="linear-gradient-5" x1="321.814" y1="755.131" x2="712.919" y2="364.026" xlink:href="#linear-gradient"/><linearGradient id="linear-gradient-6" x1="321.813" y1="755.131" x2="712.919" y2="364.026" xlink:href="#linear-gradient"/><linearGradient id="linear-gradient-7" x1="325.066" y1="758.384" x2="716.172" y2="367.279" xlink:href="#linear-gradient"/><linearGradient id="linear-gradient-8" x1="289.978" y1="723.296" x2="681.084" y2="332.191" xlink:href="#linear-gradient"/><linearGradient id="linear-gradient-9" x1="331.77" y1="765.088" x2="722.875" y2="373.982" xlink:href="#linear-gradient"/><linearGradient id="linear-gradient-10" x1="303.628" y1="736.946" x2="694.734" y2="345.841" xlink:href="#linear-gradient"/><linearGradient id="linear-gradient-11" x1="425.85" y1="859.168" x2="816.955" y2="468.062" xlink:href="#linear-gradient"/><linearGradient id="linear-gradient-12" x1="261.929" y1="695.247" x2="653.035" y2="304.141" xlink:href="#linear-gradient"/><linearGradient id="linear-gradient-13" x1="262.237" y1="695.555" x2="653.343" y2="304.45" xlink:href="#linear-gradient"/><linearGradient id="linear-gradient-14" x1="434.786" y1="868.103" x2="825.891" y2="476.998" xlink:href="#linear-gradient"/><linearGradient id="linear-gradient-15" x1="391.957" y1="825.274" x2="783.062" y2="434.169" xlink:href="#linear-gradient"/><linearGradient id="linear-gradient-16" x1="213.246" y1="646.563" x2="604.351" y2="255.458" xlink:href="#linear-gradient"/><linearGradient id="linear-gradient-17" x1="347.077" y1="780.395" x2="738.183" y2="389.289" xlink:href="#linear-gradient"/></defs><circle class="cls-1" cx="538.473" cy="538.473" r="538.473"/><circle class="cls-2" cx="538.473" cy="538.473" r="432.5"/><path class="cls-3" d="M203.883,704.194l55.579-28.367-10.228-20.041L256,652.332l24.275,47.562-6.768,3.455-10.23-20.04L207.7,711.676Z"/><path class="cls-3" d="M228.284,747.658l55.284-42.938,5.153,6.633L264.159,730.43l20.119,25.905,24.562-19.077,5.153,6.634L258.709,786.83l-5.152-6.634L278.276,761l-20.12-25.9-24.719,19.2Z"/><path class="cls-3" d="M275.453,804.1l46.519-52.307,32.207,28.642-5.051,5.679-25.93-23.06-15.55,17.486,23.837,21.2-5.05,5.679L302.6,786.22,286.781,804l26.3,23.392-5.051,5.679Z"/><path class="cls-3" d="M349.277,861.305l31.294-62.615,14.581,7.287-7.1,68.783,1.163.581,28.925-57.874,7.425,3.71-31.295,62.615-14.58-7.287,7.233-68.827-1.253-.626L356.7,865.016Z"/><path class="cls-3" d="M414.961,891.41l19.5-67.23,41.395,12-2.117,7.3-33.327-9.665-6.517,22.474,30.637,8.885-2.116,7.3-30.637-8.885-6.629,22.859,33.806,9.8-2.116,7.3Z"/><path class="cls-3" d="M493.965,909.146l6.666-62.043-22.371-2.4.811-7.557,53.1,5.7-.812,7.557L508.983,848l-6.666,62.043Z"/><path class="cls-3" d="M554.422,912.507l-19.56-68.172,8.342-.988,17.435,62.986,1.389-.166,5.208-65.668,14.9-1.766,20.313,62.644,1.391-.164,2.229-65.317,8.341-.988-3.083,70.855-14.895,1.766-20.46-63.03-1.391.165-5.16,66.066Z"/><path class="cls-3" d="M667.352,890.393q-11.739,4.3-21.227.057t-14.272-17.3l-5.5-15.023q-4.784-13.048-.283-22.422T642.3,822.039q11.83-4.336,21.32-.092T677.9,839.242l5.5,15.023q4.784,13.052.283,22.422T667.352,890.393Zm-2.58-7.042q8.542-3.13,11.363-9.969t-.519-15.945L669.9,841.851q-3.336-9.106-9.907-12.5t-15.114-.265q-8.451,3.1-11.271,9.934t.519,15.945l5.712,15.587q3.337,9.108,9.908,12.5T664.772,883.351Z"/><path class="cls-3" d="M712.963,869.378l-36.54-59.706L700.561,794.9a27.421,27.421,0,0,1,10.941-4.057,18.174,18.174,0,0,1,9.951,1.413,17.381,17.381,0,0,1,7.582,7.025l.574.938q3.6,5.886,2.875,11.02a16.29,16.29,0,0,1-3.834,8.678l.731,1.193a8.63,8.63,0,0,1,6.3-1.1q3.177.693,5.528,4.531l12.267,20.044-7.079,4.333-11.746-19.192a6.118,6.118,0,0,0-3.808-3.062,6.861,6.861,0,0,0-5.058,1.219l-20.64,12.633,14.981,24.479Zm-11.784-35.346,16.291-9.971q5.886-3.6,7.336-8.416t-1.683-9.933l-.365-.6q-3.132-5.118-8.037-6.044T703.846,801.8l-16.291,9.971Z"/><path class="cls-3" d="M772.477,830.174l-47.024-51.853,6.223-5.643,20.489,22.593,1.037-.94,1.438-42.478,8.3-7.523-2.018,48.537,49.93,2.51L802.33,803.1l-43.485-2.549-1.037.941L778.7,824.531Z"/><path class="cls-3" d="M821.778,782.361l-55.4-42.783,26.342-34.113,6.016,4.645-21.208,27.465,18.52,14.3,19.5-25.248,6.015,4.645-19.5,25.248L820.9,771.067l21.513-27.86,6.016,4.645Z"/><path class="cls-3" d="M858.355,732.4l-62-32.5L809.5,674.833a27.408,27.408,0,0,1,7.31-9.1,18.172,18.172,0,0,1,9.266-3.892,17.382,17.382,0,0,1,10.113,2.14l.974.511q6.113,3.2,8.121,7.983a16.287,16.287,0,0,1,1.162,9.416l1.24.649a8.631,8.631,0,0,1,4.843-4.178q3.084-1.035,7.07,1.052l20.813,10.912-3.853,7.351-19.928-10.447a6.116,6.116,0,0,0-4.84-.674,6.855,6.855,0,0,0-3.716,3.641l-11.236,21.433,25.419,13.326Zm-28.25-24.294,8.868-16.916q3.2-6.111,1.977-10.988t-6.54-7.662l-.62-.325q-5.314-2.787-10-1.065t-7.934,7.922l-8.869,16.916Z"/><path class="cls-3" d="M358.511,320.609,338.67,295.736,283.3,273.9l8.942-7.134,42.482,17.33,1.3-1.04-7.455-45.271,8.943-7.134,8.98,58.84,19.841,24.872Z"/><path class="cls-3" d="M420.9,283.333q-13.529,6.242-25.206,2.115t-18.62-19.166l-7.986-17.313q-6.939-15.038-2.5-26.6t17.967-17.8q13.635-6.29,25.314-2.164t18.619,19.166l7.987,17.312q6.939,15.042,2.5,26.6T420.9,283.333Zm-3.745-8.115q9.846-4.542,12.537-12.935t-2.153-18.889l-8.287-17.962q-4.841-10.492-12.973-13.9T388.3,212.677q-9.738,4.493-12.428,12.886t2.153,18.889l8.287,17.961q4.842,10.5,12.972,13.9T417.152,275.218Z"/><path class="cls-3" d="M491.217,261.572a36.917,36.917,0,0,1-16.536-.583,24.283,24.283,0,0,1-12.236-8.019q-4.866-5.883-6.477-15.4l-9.276-54.75,9.752-1.652,9.295,54.867q1.713,10.105,7.973,14.241t16.012,2.484q9.752-1.651,14.3-7.62t2.835-16.072l-9.3-54.867,9.869-1.672,9.276,54.75q1.612,9.517-1.043,16.674a24.22,24.22,0,0,1-8.971,11.612A37.3,37.3,0,0,1,491.217,261.572Z"/><path class="cls-3" d="M555.689,254.351l40.339-77.415,17.348,3.176,10.3,86.686-10.2-1.867-2.532-21.906-34.929-6.4-10.128,19.588Zm24.418-26.179L610,233.645l-5.567-48.993-1.642-.3Z"/><path class="cls-3" d="M630.831,269.907l34.835-75.792L696.308,208.2a32.657,32.657,0,0,1,11.277,8.135,21.652,21.652,0,0,1,5.206,10.786,20.7,20.7,0,0,1-1.92,12.166l-.547,1.192q-3.433,7.47-9,10.159a19.412,19.412,0,0,1-11.133,1.965l-.7,1.516a10.278,10.278,0,0,1,5.274,5.506q1.422,3.6-.815,8.478l-11.7,25.444-8.986-4.13,11.2-24.362a7.289,7.289,0,0,0,.5-5.8q-.99-2.551-4.564-4.2l-26.2-12.043-14.282,31.075Zm27.159-35.123,20.681,9.5q7.47,3.434,13.2,1.672t8.713-8.257l.349-.758q2.985-6.5.646-11.965t-9.918-8.952l-20.68-9.5Z"/><path class="cls-3" d="M693.98,301.339l51.529-65.595L785.9,267.471l-5.6,7.122-32.517-25.544-17.224,21.928,29.892,23.482-5.594,7.122L724.966,278.1l-17.52,22.3,32.985,25.912-5.6,7.122Z"/><circle class="cls-4" cx="271.062" cy="341.48" r="7.535"/><circle class="cls-5" cx="805.883" cy="341.48" r="7.535"/><path class="cls-6" d="M538.473,306.473c-127.925,0-232,104.074-232,232s104.075,232,232,232,232-104.075,232-232S666.4,306.473,538.473,306.473Zm0,457.434c-124.3,0-225.434-101.13-225.434-225.434s101.13-225.434,225.434-225.434S763.907,414.168,763.907,538.473,662.776,763.907,538.473,763.907Z"/><path class="cls-7" d="M538.473,338.817c-110.093,0-199.657,89.564-199.657,199.656S428.38,738.129,538.473,738.129s199.655-89.565,199.655-199.656S648.563,338.817,538.473,338.817Zm0,392.746c-106.472,0-193.091-86.62-193.091-193.09S432,345.383,538.473,345.383,731.562,432,731.562,538.473,644.942,731.563,538.473,731.563Z"/><path class="cls-8" d="M708.927,505.9a3.286,3.286,0,0,0-3.617-3.19L617.1,511.737a37.846,37.846,0,0,1-12.878-.887l-18.39-4.49a79.309,79.309,0,0,0-27.049-1.849l-38.936,4.028a39.093,39.093,0,0,0-22.988,10.68l-1.234,1.189-7.335-2.819a83.29,83.29,0,0,0-21.374-5.106l-95.282-9.772a3.286,3.286,0,0,0-3.619,3.19l-1.771,76.23a3.284,3.284,0,0,0,3.112,3.354l33.595,1.753a70.422,70.422,0,0,1,31.011,9.075l8.276,4.8-2.887,3.325a16.655,16.655,0,0,0,12.55,27.588q.6,0,1.2-.042c.539-.038,1.072-.1,1.6-.19a16.888,16.888,0,0,0-.116,3.452,16.612,16.612,0,0,0,16.58,15.488q.6,0,1.2-.042a16.794,16.794,0,0,0,4.758-1.037,16.6,16.6,0,0,0,16.6,16.038c.4,0,.8-.014,1.2-.042a16.69,16.69,0,0,0,6.547-1.847,14.356,14.356,0,0,0,4.758,8.45l.624.542h0a14.506,14.506,0,0,0,20.44-1.436l9.332-10.743,16.808,11.908a14.752,14.752,0,0,0,8.549,2.723,15.279,15.279,0,0,0,2.574-.221A14.838,14.838,0,0,0,576.925,660.6a15.731,15.731,0,0,0,8.677,2.637,16.166,16.166,0,0,0,2.746-.236,15.8,15.8,0,0,0,10.305-6.486l.87-1.234A15.762,15.762,0,0,0,602.38,644.9a15.843,15.843,0,0,0,4.747.729,16.335,16.335,0,0,0,2.762-.236,15.878,15.878,0,0,0,10.353-6.518l.785-1.107a15.909,15.909,0,0,0,2.824-10.862,16.492,16.492,0,0,0,4.236.593,17.022,17.022,0,0,0,2.879-.247,16.664,16.664,0,0,0,8.3-28.822l3.692-2.105a70.474,70.474,0,0,1,31.037-9.089l33.6-1.753a3.285,3.285,0,0,0,3.112-3.354ZM459.565,622a10.1,10.1,0,0,1-15.255-13.254l8.315-9.571a10.105,10.105,0,0,1,15.258,13.253Zm19.266,18.709a10.1,10.1,0,0,1-15.254-13.254L482.121,606.1a10.1,10.1,0,0,1,15.258,13.252Zm22.558,14.958a10.1,10.1,0,0,1-15.254-13.254l15.611-17.971A10.031,10.031,0,0,1,508.665,621c.246-.017.489-.025.733-.025a10.106,10.106,0,0,1,7.6,16.716Zm33-2.49A3.083,3.083,0,0,0,532.812,655l-10.47,12.052a7.928,7.928,0,0,1-11.174.788l-.627-.544a7.93,7.93,0,0,1-.784-11.176l12-13.819a7.927,7.927,0,0,1,11.175-.787l.626.544A7.927,7.927,0,0,1,534.39,653.174ZM636.4,616.67a10.146,10.146,0,0,1-14.084,2.423l-23.226-16.411c-.012-.008-.024-.012-.035-.02l-5.512-3.894a3.283,3.283,0,1,0-3.787,5.363l23.654,16.711a9.438,9.438,0,0,1,2.259,13.138l-.784,1.108a9.466,9.466,0,0,1-13.139,2.26l-23.652-16.712c-.042-.03-.088-.047-.131-.074l-2.308-1.631a3.283,3.283,0,0,0-3.787,5.363l20.059,14.172a9.386,9.386,0,0,1,2.24,13.029l-.874,1.236a9.386,9.386,0,0,1-13.03,2.24L560.2,640.8c-.025-.018-.054-.028-.08-.046l-3.756-2.654a3.283,3.283,0,0,0-3.788,5.363l14.274,10.085a8.336,8.336,0,0,1-9.619,13.618L540.772,655.5a14.506,14.506,0,0,0-2.9-18.4l-.626-.544a14.446,14.446,0,0,0-11.337-3.41,16.637,16.637,0,0,0-17.7-18.7,17.118,17.118,0,0,0-1.917.255,16.855,16.855,0,0,0,.077-3.149,16.656,16.656,0,0,0-29.2-9.765l-.6.689a16.64,16.64,0,0,0-28.9-7.617l-1.042,1.2-9.388-5.446a77.051,77.051,0,0,0-33.942-9.939L372.883,579.1l1.616-69.49,91.747,9.41a76.672,76.672,0,0,1,19.69,4.7l4.47,1.718-10.115,9.746a17.844,17.844,0,0,0,.06,25.757,17.933,17.933,0,0,0,22.365,1.838l18.544-12.635a46.415,46.415,0,0,1,15.589-6.862l18.971,7.29a91.217,91.217,0,0,1,20.085,10.769l54.615,38.792a3.241,3.241,0,0,0,1.623,1.153l1.832,1.3a10.145,10.145,0,0,1,2.42,14.083Zm37.256-35.989a77.057,77.057,0,0,0-33.946,9.941l-6.234,3.553-53.766-38.189a97.811,97.811,0,0,0-21.53-11.545l-9.548-3.669a3.243,3.243,0,0,0,.7-2.106,3.282,3.282,0,0,0-3.278-3.181h-.105a53.512,53.512,0,0,0-7.532.771c-.425.074-.843.171-1.265.255a3.274,3.274,0,0,0-1.868.4,52.925,52.925,0,0,0-17.715,7.808l-18.544,12.635a11.326,11.326,0,0,1-14.135-1.162,11.276,11.276,0,0,1-.036-16.278l16.569-15.963a32.49,32.49,0,0,1,19.106-8.878l38.937-4.027a72.791,72.791,0,0,1,24.817,1.694l18.39,4.491a44.423,44.423,0,0,0,15.1,1.041l84.677-8.665,1.618,69.491Z"/><path class="cls-9" d="M416.61,490.41a14.962,14.962,0,0,0,12.734-22.864L496.706,401.6a14.862,14.862,0,0,0,9.958,2.446l20.491,56.3a14.981,14.981,0,1,0,22.663,16.034l95.86.945a15.013,15.013,0,1,0,.074-6.566l-95.86-.944a14.875,14.875,0,0,0-.738-2.4l47.233-32.307a14.99,14.99,0,1,0-2.453-18.62l-74.017-25.569a14.989,14.989,0,1,0-27.726,5.913L424.754,462.85a14.985,14.985,0,1,0-8.144,27.56Zm236.006-19.583a8.332,8.332,0,1,1-.708,3.36A8.431,8.431,0,0,1,652.616,470.827Zm-52.191-52.1a8.407,8.407,0,1,1-1.98,7.016c-.046-.254-.057-.519-.079-.78-.019-.233-.07-.456-.07-.694A8.358,8.358,0,0,1,600.425,418.728Zm-57.471,57.586a8.4,8.4,0,1,1-7.717-11.785c.151,0,.292.037.442.045a8.354,8.354,0,0,1,4.092,1.3,8.461,8.461,0,0,1,3.25,3.873,8.287,8.287,0,0,1,.472,1.536,8.33,8.33,0,0,1-.539,5.03Zm-25.233-79.209L591.813,422.7a15.083,15.083,0,0,0-.083,1.57,14.9,14.9,0,0,0,1.012,5.374L545.437,462a14.7,14.7,0,0,0-12.115-3.9L512.87,401.9A15.077,15.077,0,0,0,517.721,397.105ZM505.04,380.719a8.412,8.412,0,0,1,8.377,7.951c.009.16.048.312.048.474a8.372,8.372,0,0,1-2.266,5.708,8.6,8.6,0,0,1-.666.629,8.353,8.353,0,0,1-5.493,2.089c-.261,0-.506-.054-.761-.077a8.341,8.341,0,0,1-2.686-.679,8.435,8.435,0,0,1-4.452-4.831,8.341,8.341,0,0,1-.527-2.839A8.435,8.435,0,0,1,505.04,380.719Zm-88.43,86.274a8.426,8.426,0,1,1-8.426,8.426A8.384,8.384,0,0,1,416.61,466.993Z"/><circle class="cls-10" cx="669.499" cy="427.359" r="5.341"/><circle class="cls-11" cx="407.801" cy="632.774" r="5.341"/><circle class="cls-12" cx="601.712" cy="683.306" r="5.341"/><circle class="cls-13" cx="581.992" cy="375.184" r="5.341"/><path class="cls-14" d="M487.988,477.639a10.638,10.638,0,0,1-7.835-7.835l-1.428-5.894a.9.9,0,0,0-1.756,0l-1.428,5.894a10.638,10.638,0,0,1-7.835,7.835l-5.9,1.428a.9.9,0,0,0,0,1.757l5.9,1.427a10.638,10.638,0,0,1,7.835,7.835l1.428,5.895a.9.9,0,0,0,1.756,0l1.428-5.895a10.638,10.638,0,0,1,7.835-7.835l5.895-1.427a.9.9,0,0,0,0-1.757Z"/><path class="cls-15" d="M688.616,629.43,682.721,628a10.638,10.638,0,0,1-7.835-7.835l-1.428-5.895a.9.9,0,0,0-1.756,0l-1.428,5.895A10.638,10.638,0,0,1,662.439,628l-5.895,1.427a.9.9,0,0,0,0,1.757l5.895,1.428a10.638,10.638,0,0,1,7.835,7.835l1.428,5.894a.9.9,0,0,0,1.756,0l1.428-5.894a10.638,10.638,0,0,1,7.835-7.835l5.895-1.428A.9.9,0,0,0,688.616,629.43Z"/><circle class="cls-16" cx="516.67" cy="700.56" r="5.341"/><circle class="cls-17" cx="439.023" cy="420.786" r="5.341"/><path class="cls-18" d="M468,674.629l-5.894-1.428a10.641,10.641,0,0,1-7.836-7.835l-1.427-5.895a.9.9,0,0,0-1.757,0l-1.427,5.895a10.638,10.638,0,0,1-7.835,7.835l-5.9,1.428a.9.9,0,0,0,0,1.756l5.9,1.428a10.638,10.638,0,0,1,7.835,7.835l1.427,5.895a.9.9,0,0,0,1.757,0l1.427-5.895a10.641,10.641,0,0,1,7.836-7.835L468,676.385A.9.9,0,0,0,468,674.629Z"/></svg>