<svg id="Layer_1" data-name="Layer 1" xmlns="http://www.w3.org/2000/svg" xmlns:xlink="http://www.w3.org/1999/xlink" viewBox="0 0 1076.945 1076.945"><defs><style>.cls-1{fill:url(#linear-gradient);}.cls-2{fill:url(#linear-gradient-2);}.cls-3{fill:#fff;}.cls-4{fill:url(#linear-gradient-3);}.cls-5{fill:url(#linear-gradient-4);}.cls-6{fill:url(#linear-gradient-5);}.cls-7{fill:url(#linear-gradient-7);}.cls-8{fill:url(#linear-gradient-8);}.cls-9{fill:url(#linear-gradient-9);}.cls-10{fill:url(#linear-gradient-10);}.cls-11{fill:url(#linear-gradient-11);}.cls-12{fill:url(#linear-gradient-12);}.cls-13{fill:url(#linear-gradient-13);}.cls-14{fill:url(#linear-gradient-14);}.cls-15{fill:url(#linear-gradient-15);}.cls-16{fill:url(#linear-gradient-16);}.cls-17{fill:url(#linear-gradient-17);}.cls-18{fill:url(#linear-gradient-18);}.cls-19{fill:url(#linear-gradient-19);}</style><linearGradient id="linear-gradient" x1="81.754" y1="995.191" x2="971.742" y2="105.203" gradientUnits="userSpaceOnUse"><stop offset="0.08" stop-color="#dee13d"/><stop offset="0.377" stop-color="#7cbd99"/><stop offset="0.71" stop-color="#599fd9"/><stop offset="0.95" stop-color="#7cc6f2"/></linearGradient><linearGradient id="linear-gradient-2" x1="188.709" y1="888.236" x2="859.197" y2="217.749" gradientUnits="userSpaceOnUse"><stop offset="0" stop-color="#020f15"/><stop offset="1" stop-color="#0d2233"/></linearGradient><linearGradient id="linear-gradient-3" x1="-167.244" y1="779.786" x2="755.475" y2="-142.932" xlink:href="#linear-gradient"/><linearGradient id="linear-gradient-4" x1="100.166" y1="1047.197" x2="1022.885" y2="124.478" xlink:href="#linear-gradient"/><linearGradient id="linear-gradient-5" x1="357.016" y1="719.93" x2="684.59" y2="392.355" xlink:href="#linear-gradient"/><linearGradient id="linear-gradient-7" x1="353.819" y1="716.733" x2="681.393" y2="389.158" xlink:href="#linear-gradient"/><linearGradient id="linear-gradient-8" x1="353.813" y1="716.726" x2="681.387" y2="389.152" xlink:href="#linear-gradient"/><linearGradient id="linear-gradient-9" x1="360.272" y1="723.186" x2="687.846" y2="395.611" xlink:href="#linear-gradient"/><linearGradient id="linear-gradient-10" x1="386.28" y1="749.194" x2="713.855" y2="421.62" xlink:href="#linear-gradient"/><linearGradient id="linear-gradient-11" x1="349.453" y1="712.367" x2="677.028" y2="384.793" xlink:href="#linear-gradient"/><linearGradient id="linear-gradient-12" x1="392.313" y1="755.227" x2="719.888" y2="427.653" xlink:href="#linear-gradient"/><linearGradient id="linear-gradient-13" x1="254.749" y1="617.663" x2="582.324" y2="290.089" xlink:href="#linear-gradient"/><linearGradient id="linear-gradient-14" x1="455.985" y1="818.898" x2="783.559" y2="491.324" xlink:href="#linear-gradient"/><linearGradient id="linear-gradient-15" x1="450.571" y1="813.485" x2="778.145" y2="485.91" xlink:href="#linear-gradient"/><linearGradient id="linear-gradient-16" x1="458.085" y1="820.999" x2="785.659" y2="493.424" xlink:href="#linear-gradient"/><linearGradient id="linear-gradient-17" x1="256.139" y1="619.053" x2="583.713" y2="291.478" xlink:href="#linear-gradient"/><linearGradient id="linear-gradient-18" x1="268.181" y1="631.095" x2="595.756" y2="303.521" xlink:href="#linear-gradient"/><linearGradient id="linear-gradient-19" x1="300.501" y1="663.415" x2="628.075" y2="335.841" xlink:href="#linear-gradient"/></defs><circle class="cls-1" cx="538.473" cy="538.473" r="538.473"/><circle class="cls-2" cx="538.473" cy="538.473" r="432.5"/><path class="cls-3" d="M224.183,739.986,276.3,705.668l-12.374-18.792,6.348-4.179,29.368,44.6-6.348,4.18-12.374-18.791L228.8,747Z"/><path class="cls-3" d="M253.168,780.449l50.261-48.722,5.846,6.031-22.33,21.647,22.83,23.551,22.331-21.646,5.846,6.031-50.261,48.721-5.847-6.031,22.474-21.785-22.83-23.552L259.015,786.48Z"/><path class="cls-3" d="M306.241,831.422l40.515-57.084L381.9,799.283l-4.4,6.2-28.3-20.084L335.664,804.48l26.014,18.463-4.4,6.2-26.013-18.463L317.49,830.086l28.7,20.373-4.4,6.2Z"/><path class="cls-3" d="M406.867,889.383a32.819,32.819,0,0,1-11.772-7.326A21.235,21.235,0,0,1,389.13,871.1q-1.305-6.317,1.589-13.99l.741-1.964,7.767,2.929-.742,1.965q-3.071,8.141.2,13.917t10.756,8.6q7.673,2.894,13,.95a11.751,11.751,0,0,0,7.306-7.184,9.272,9.272,0,0,0,.364-6.489,14.01,14.01,0,0,0-3.776-5.432,53.558,53.558,0,0,0-6.771-5.28l-4.408-3.052a57.938,57.938,0,0,1-8.728-7.461,18.953,18.953,0,0,1-4.741-8.254,16.333,16.333,0,0,1,.925-9.964,17.592,17.592,0,0,1,6.361-8.5,18.748,18.748,0,0,1,10.1-3.246,31.04,31.04,0,0,1,12.367,2.207,31.78,31.78,0,0,1,11.065,6.792,20.314,20.314,0,0,1,5.786,9.878,20.7,20.7,0,0,1-1.177,12.328l-1.482,3.93-7.766-2.93,1.482-3.929a14.133,14.133,0,0,0,.883-8.432,12.766,12.766,0,0,0-3.9-6.386,22.877,22.877,0,0,0-7.471-4.421q-6.454-2.434-11.461-1.064a10.061,10.061,0,0,0-6.983,6.611,9.446,9.446,0,0,0-.433,6.25,12.865,12.865,0,0,0,3.448,5.308,46.824,46.824,0,0,0,6.491,5.174l4.407,3.052a51.566,51.566,0,0,1,8.992,7.186,20.076,20.076,0,0,1,5.1,8.443q1.353,4.626-.834,10.427a18.868,18.868,0,0,1-6.712,9.011,20.334,20.334,0,0,1-10.711,3.6A31.979,31.979,0,0,1,406.867,889.383Z"/><path class="cls-3" d="M476.34,908.02a30.974,30.974,0,0,1-12.953-5,20.378,20.378,0,0,1-7.5-9.718,26.934,26.934,0,0,1-.909-13.991l7.671-45.964,8.187,1.366-7.688,46.063q-1.416,8.484,2.414,13.481t12.015,6.366q8.187,1.365,13.433-2.118t6.66-11.967l7.689-46.063,8.285,1.383-7.672,45.964a26.955,26.955,0,0,1-5.4,12.937,20.334,20.334,0,0,1-10.3,6.746A31.3,31.3,0,0,1,476.34,908.02Z"/><path class="cls-3" d="M525.951,912.181,524.2,842.2l26.792-.671A25.033,25.033,0,0,1,562.3,843.7a19.355,19.355,0,0,1,8.021,6.751,19.693,19.693,0,0,1,3.172,10.824l.033,1.3a19.522,19.522,0,0,1-2.677,10.92,19.161,19.161,0,0,1-7.774,7.147,25.33,25.33,0,0,1-11.037,2.677l-18.393.461.705,28.191Zm7.5-36,17.494-.438q6.7-.168,10.513-3.614t3.663-9.545l-.025-1q-.153-6.1-4.085-9.35t-10.732-3.083l-17.494.438Z"/><path class="cls-3" d="M593.455,908.278l-13.939-68.6,42.236-8.583,1.514,7.447-34,6.911,4.66,22.931,31.261-6.352,1.513,7.447-31.261,6.352,4.74,23.324,34.494-7.01,1.514,7.448Z"/><path class="cls-3" d="M656.012,893.654l-26.153-64.931,26.25-10.574a27.427,27.427,0,0,1,11.462-2.19,18.174,18.174,0,0,1,9.58,3.041,17.384,17.384,0,0,1,6.315,8.183l.411,1.021q2.579,6.4,1.011,11.343a16.281,16.281,0,0,1-5.218,7.923l.523,1.3a8.629,8.629,0,0,1,6.4-.043q3.019,1.209,4.7,5.383l8.78,21.8-7.7,3.1-8.406-20.87a6.114,6.114,0,0,0-3.249-3.651,6.858,6.858,0,0,0-5.19.366l-22.447,9.041L663.8,890.516Zm-5.771-36.81,17.717-7.136q6.4-2.577,8.627-7.086t-.015-10.074l-.26-.65q-2.242-5.565-6.926-7.29t-11.177.89l-17.717,7.136Z"/><path class="cls-3" d="M745.543,849.673l-41.734-56.2,33.96-25.219,4.531,6.1-27.216,20.212L729.1,813.435l25.048-18.6,4.531,6.1-25.048,18.6,18.661,25.129Z"/><path class="cls-3" d="M784.857,820.375l-34.892-64.414,10.356-10.572,65.121,33.552-6.087,6.215-16.423-8.528-20.853,21.288,8.865,16.244ZM778.119,791.1l17.844-18.216-36.687-19.138-.979,1Z"/><path class="cls-3" d="M832.983,769.22l-57.85-39.415,9.179-13.471L851.519,732.6l.732-1.075L798.782,695.1l4.673-6.859,57.85,39.414-9.179,13.471-67.233-16.4-.788,1.157,53.55,36.486Z"/><path class="cls-3" d="M358.511,320.609,338.67,295.736,283.3,273.9l8.942-7.134,42.482,17.33,1.3-1.04-7.455-45.271,8.943-7.134,8.98,58.84,19.841,24.872Z"/><path class="cls-3" d="M420.9,283.333q-13.529,6.242-25.206,2.115t-18.62-19.166l-7.986-17.313q-6.939-15.038-2.5-26.6t17.967-17.8q13.635-6.29,25.314-2.164t18.619,19.166l7.987,17.312q6.939,15.042,2.5,26.6T420.9,283.333Zm-3.745-8.115q9.846-4.542,12.537-12.935t-2.153-18.889l-8.287-17.962q-4.841-10.492-12.973-13.9T388.3,212.677q-9.738,4.493-12.428,12.886t2.153,18.889l8.287,17.961q4.842,10.5,12.972,13.9T417.152,275.218Z"/><path class="cls-3" d="M491.217,261.572a36.917,36.917,0,0,1-16.536-.583,24.283,24.283,0,0,1-12.236-8.019q-4.866-5.883-6.477-15.4l-9.276-54.75,9.752-1.652,9.295,54.867q1.713,10.105,7.973,14.241t16.012,2.484q9.752-1.651,14.3-7.62t2.835-16.072l-9.3-54.867,9.869-1.672,9.276,54.75q1.612,9.517-1.043,16.674a24.22,24.22,0,0,1-8.971,11.612A37.3,37.3,0,0,1,491.217,261.572Z"/><path class="cls-3" d="M555.689,254.351l40.339-77.415,17.348,3.176,10.3,86.686-10.2-1.867-2.532-21.906-34.929-6.4-10.128,19.588Zm24.418-26.179L610,233.645l-5.567-48.993-1.642-.3Z"/><path class="cls-3" d="M630.831,269.907l34.835-75.792L696.308,208.2a32.657,32.657,0,0,1,11.277,8.135,21.652,21.652,0,0,1,5.206,10.786,20.7,20.7,0,0,1-1.92,12.166l-.547,1.192q-3.433,7.47-9,10.159a19.412,19.412,0,0,1-11.133,1.965l-.7,1.516a10.278,10.278,0,0,1,5.274,5.506q1.422,3.6-.815,8.478l-11.7,25.444-8.986-4.13,11.2-24.362a7.289,7.289,0,0,0,.5-5.8q-.99-2.551-4.564-4.2l-26.2-12.043-14.282,31.075Zm27.159-35.123,20.681,9.5q7.47,3.434,13.2,1.672t8.713-8.257l.349-.758q2.985-6.5.646-11.965t-9.918-8.952l-20.68-9.5Z"/><path class="cls-3" d="M693.98,301.339l51.529-65.595L785.9,267.471l-5.6,7.122-32.517-25.544-17.224,21.928,29.892,23.482-5.594,7.122L724.966,278.1l-17.52,22.3,32.985,25.912-5.6,7.122Z"/><circle class="cls-4" cx="271.062" cy="341.48" r="7.535"/><circle class="cls-5" cx="805.883" cy="341.48" r="7.535"/><path class="cls-6" d="M538.473,305.973c-128.2,0-232.5,104.3-232.5,232.5s104.3,232.5,232.5,232.5,232.5-104.3,232.5-232.5S666.673,305.973,538.473,305.973Zm0,458.419c-124.572,0-225.92-101.348-225.92-225.919s101.348-225.92,225.92-225.92S764.392,413.9,764.392,538.473,663.044,764.392,538.473,764.392Z"/><path class="cls-6" d="M538.473,338.385c-110.328,0-200.086,89.758-200.086,200.088s89.758,200.085,200.086,200.085S738.56,648.8,738.56,538.473,648.8,338.385,538.473,338.385Zm0,393.593c-106.7,0-193.5-86.806-193.5-193.5s86.806-193.508,193.5-193.508S731.98,431.772,731.98,538.473,645.174,731.978,538.473,731.978Z"/><path class="cls-7" d="M639.664,525.469a37.289,37.289,0,0,0-18.819-22.007,37.92,37.92,0,0,0-9.532-3.258,38.046,38.046,0,0,0-35.257-23.38A38.064,38.064,0,0,0,565.149,466.6l19.4-37.855a39.682,39.682,0,0,0,2.277-30.4,37.288,37.288,0,0,0-18.961-21.994,38.263,38.263,0,0,0-50.709,16.816l-44.211,86.263a38.178,38.178,0,0,0-37.47,32.429l-12.818,71.056a85.256,85.256,0,0,0,.913,34.729,34.122,34.122,0,0,1-.992,18.855l-1.79,5.2a20.708,20.708,0,0,0,10.086,25.057l74.252,38.055a20.612,20.612,0,0,0,27.743-8.941l5.76-11.239a16.988,16.988,0,0,1,9.755-8.51,56.3,56.3,0,0,0,30.72-23.971l8.281-13.37c9.669-15.613,18.5-29.613,28.694-42.842a38.109,38.109,0,0,0,3.7-5.833l17.6-34.336A39.666,39.666,0,0,0,639.664,525.469ZM518.831,699.82a13.933,13.933,0,0,1-10.7-.87L433.875,660.9a14.1,14.1,0,0,1-6.867-17.059l1.791-5.2a40.809,40.809,0,0,0,1.135-22.67,78.492,78.492,0,0,1-.8-31.888l12.835-71.159a31.6,31.6,0,0,1,31.1-26.916c.561,0,1.127.015,1.694.045l2.127.111,46.124-89.994a31.663,31.663,0,0,1,41.948-13.916,30.767,30.767,0,0,1,15.62,18.162,33.057,33.057,0,0,1-1.887,25.329L557.851,466.41l-1.347,3,2.926,1.5a31.461,31.461,0,0,1,12.141,11.023l1.034,1.617,1.915-.1a31.465,31.465,0,0,1,31.305,20.793l.669,1.859,1.953.283a31.364,31.364,0,0,1,9.468,2.966,30.77,30.77,0,0,1,15.5,18.173,33.037,33.037,0,0,1-1.9,25.237L613.92,587.1a31.471,31.471,0,0,1-3.055,4.822c-10.378,13.473-19.307,27.623-29.075,43.39l-8.281,13.37a49.7,49.7,0,0,1-27.126,21.169,23.608,23.608,0,0,0-13.61,11.777l-5.76,11.239A13.943,13.943,0,0,1,518.831,699.82Z"/><path class="cls-8" d="M543.221,659.585a38.981,38.981,0,0,0,21.159-16.56l32.481-52.444a3.325,3.325,0,0,0,.183-.375,20.558,20.558,0,0,0,7.318-8l18.012-35.145a20.76,20.76,0,0,0-24.862-29.236c-.276.089-.538.2-.808.3A20.747,20.747,0,0,0,565.716,497a21.07,21.07,0,0,0-.9-4.4,20.666,20.666,0,0,0-25.5-13.558l30.247-59.019a20.782,20.782,0,0,0-36.988-18.957L482.95,497.883l-7.028-.946a20.81,20.81,0,0,0-23.329,17.621c0,.02-.012.037-.016.057L439.7,585.984a67.945,67.945,0,0,0,.72,27.666,51.524,51.524,0,0,1-1.469,28.486,9.681,9.681,0,0,0,4.714,11.711L507.382,686.5a9.634,9.634,0,0,0,12.967-4.179l2.99-5.835A33.872,33.872,0,0,1,543.221,659.585ZM603.9,523.38a14.2,14.2,0,0,1,12.614,20.675L598.506,579.2a14.2,14.2,0,1,1-25.275-12.952L591.243,531.1A14.217,14.217,0,0,1,603.9,523.38Zm-21.242-21.1a14.215,14.215,0,0,1,6.16,19.113l-3.427,6.688-.009.014-18.012,35.148A14.2,14.2,0,0,1,542.1,550.292l21.446-41.848A14.211,14.211,0,0,1,582.662,502.284Zm-41.957-16.813a14.2,14.2,0,0,1,16.986,19.972l-21.446,41.848a14.17,14.17,0,0,1-26.562-3.877l2.31.311A20.762,20.762,0,0,0,535.36,525.9a20.625,20.625,0,0,0-4.089-15.362,20.867,20.867,0,0,0-5.528-5.028l6.676-13.026A14.089,14.089,0,0,1,540.705,485.471Zm-2.279-81.4A14.2,14.2,0,0,1,563.7,417.02L523.478,495.5l-3.812,7.437a21.154,21.154,0,0,0-2.129-.4l-27.668-3.721ZM464.55,506.257a14.116,14.116,0,0,1,10.494-2.8l41.615,5.6a14.2,14.2,0,0,1-3.787,28.15l-41.615-5.6a14.18,14.18,0,0,1-6.707-25.348Zm52.933,167.227-2.99,5.835a3.054,3.054,0,0,1-4.108,1.324L446.669,647.99a3.07,3.07,0,0,1-1.5-3.712,58.182,58.182,0,0,0,1.63-32.237,61.235,61.235,0,0,1-.623-24.887l10.321-57.22a20.7,20.7,0,0,0,13.877,8.192l32.542,4.378a20.729,20.729,0,0,0,31.154,16.237,20.764,20.764,0,0,0,11.183,16.522h0a20.581,20.581,0,0,0,9.414,2.284,20.913,20.913,0,0,0,10.532-2.857,21.023,21.023,0,0,0,.9,4.4,20.722,20.722,0,0,0,19.7,14.407c.514,0,1.029-.022,1.543-.06l-28.564,46.12A32.4,32.4,0,0,1,541.2,653.322,40.417,40.417,0,0,0,517.483,673.484Z"/><path class="cls-9" d="M512.091,586.179l4.972-6.678-8.088-4.145L504,582.034l-7.084-3.631,5.028-6.649-8.09-4.146-4.972,6.678-6.694-3.431-4.6,8.982,5.132,2.63-4.261,5.7-5.912-3.03-4.6,8.982,4.351,2.23-5.143,6.874,8.089,4.145,5.143-6.874,7.084,3.631-5.2,6.845,8.09,4.146,5.2-6.846,6.639,3.4,4.6-8.981-5.133-2.631,4.261-5.7,5.914,3.031,4.6-8.982ZM493.63,596.228l-7.475-3.831,4.6-6.1,7.419,3.8Z"/><polygon class="cls-10" points="537.948 589.852 524.855 587.224 522.63 596.651 529.985 598.517 515.004 627.749 525.66 633.21 545.815 593.883 537.948 589.852"/><path class="cls-11" d="M620.822,425.808l5.908,1.431a10.661,10.661,0,0,1,7.851,7.852L636.012,441a.906.906,0,0,0,1.761,0l1.43-5.908a10.662,10.662,0,0,1,7.852-7.852l5.907-1.431a.905.905,0,0,0,0-1.76l-5.907-1.431a10.661,10.661,0,0,1-7.852-7.851l-1.43-5.908a.906.906,0,0,0-1.761,0l-1.431,5.908a10.66,10.66,0,0,1-7.851,7.851l-5.908,1.431A.905.905,0,0,0,620.822,425.808Z"/><circle class="cls-12" cx="669.783" cy="477.758" r="5.352"/><path class="cls-13" d="M428.9,455.984l5.908-1.431a.906.906,0,0,0,0-1.761l-5.908-1.43a10.661,10.661,0,0,1-7.851-7.852L419.62,437.6a.905.905,0,0,0-1.76,0l-1.431,5.908a10.662,10.662,0,0,1-7.852,7.852l-5.907,1.43a.906.906,0,0,0,0,1.761l5.907,1.431a10.661,10.661,0,0,1,7.852,7.851l1.431,5.908a.905.905,0,0,0,1.76,0l1.431-5.908A10.66,10.66,0,0,1,428.9,455.984Z"/><path class="cls-14" d="M668.225,621.848l-5.907-1.431a10.659,10.659,0,0,1-7.852-7.852l-1.431-5.907a.905.905,0,0,0-1.76,0l-1.431,5.907a10.659,10.659,0,0,1-7.852,7.852l-5.907,1.431a.905.905,0,0,0,0,1.76l5.907,1.431a10.659,10.659,0,0,1,7.852,7.852l1.431,5.907a.905.905,0,0,0,1.76,0l1.431-5.907a10.659,10.659,0,0,1,7.852-7.852l5.907-1.431A.905.905,0,0,0,668.225,621.848Z"/><circle class="cls-15" cx="693.868" cy="570.188" r="5.352"/><circle class="cls-16" cx="604.938" cy="674.146" r="5.352"/><circle class="cls-17" cx="475.248" cy="399.944" r="5.352"/><circle class="cls-18" cx="377.054" cy="522.223" r="5.352"/><circle class="cls-19" cx="393.728" cy="570.188" r="5.352"/></svg>