<svg id="Layer_1" data-name="Layer 1" xmlns="http://www.w3.org/2000/svg" xmlns:xlink="http://www.w3.org/1999/xlink" viewBox="0 0 1076.945 1076.945"><defs><style>.cls-1{fill:url(#linear-gradient);}.cls-2{fill:url(#linear-gradient-2);}.cls-3{fill:#fff;}.cls-4{fill:url(#linear-gradient-3);}.cls-5{fill:url(#linear-gradient-4);}.cls-6{fill:url(#linear-gradient-5);}.cls-7{fill:url(#linear-gradient-6);}.cls-8{fill:url(#linear-gradient-7);}.cls-9{fill:url(#linear-gradient-8);}.cls-10{fill:url(#linear-gradient-9);}.cls-11{fill:url(#linear-gradient-10);}.cls-12{fill:url(#linear-gradient-11);}.cls-13{fill:url(#linear-gradient-12);}.cls-14{fill:url(#linear-gradient-13);}.cls-15{fill:url(#linear-gradient-14);}.cls-16{fill:url(#linear-gradient-15);}.cls-17{fill:url(#linear-gradient-16);}.cls-18{fill:url(#linear-gradient-17);}.cls-19{fill:url(#linear-gradient-18);}.cls-20{fill:url(#linear-gradient-19);}.cls-21{fill:url(#linear-gradient-20);}.cls-22{fill:url(#linear-gradient-21);}</style><linearGradient id="linear-gradient" x1="81.754" y1="995.191" x2="971.742" y2="105.203" gradientUnits="userSpaceOnUse"><stop offset="0.08" stop-color="#dee13d"/><stop offset="0.377" stop-color="#7cbd99"/><stop offset="0.71" stop-color="#599fd9"/><stop offset="0.95" stop-color="#7cc6f2"/></linearGradient><linearGradient id="linear-gradient-2" x1="188.709" y1="888.236" x2="859.197" y2="217.749" gradientUnits="userSpaceOnUse"><stop offset="0" stop-color="#020f15"/><stop offset="1" stop-color="#0d2233"/></linearGradient><linearGradient id="linear-gradient-3" x1="-167.244" y1="779.786" x2="755.475" y2="-142.932" xlink:href="#linear-gradient"/><linearGradient id="linear-gradient-4" x1="100.166" y1="1047.197" x2="1022.885" y2="124.478" xlink:href="#linear-gradient"/><linearGradient id="linear-gradient-5" x1="341.903" y1="735.043" x2="705.466" y2="371.479" xlink:href="#linear-gradient"/><linearGradient id="linear-gradient-6" x1="341.903" y1="735.043" x2="705.466" y2="371.48" xlink:href="#linear-gradient"/><linearGradient id="linear-gradient-7" x1="322.831" y1="715.971" x2="686.394" y2="352.408" xlink:href="#linear-gradient"/><linearGradient id="linear-gradient-8" x1="291.101" y1="684.24" x2="654.664" y2="320.677" xlink:href="#linear-gradient"/><linearGradient id="linear-gradient-9" x1="303.838" y1="696.977" x2="667.401" y2="333.414" xlink:href="#linear-gradient"/><linearGradient id="linear-gradient-10" x1="316.574" y1="709.714" x2="680.138" y2="346.151" xlink:href="#linear-gradient"/><linearGradient id="linear-gradient-11" x1="448.835" y1="841.975" x2="812.398" y2="478.412" xlink:href="#linear-gradient"/><linearGradient id="linear-gradient-12" x1="263.859" y1="656.999" x2="627.422" y2="293.435" xlink:href="#linear-gradient"/><linearGradient id="linear-gradient-13" x1="253.962" y1="647.102" x2="617.526" y2="283.539" xlink:href="#linear-gradient"/><linearGradient id="linear-gradient-14" x1="348.598" y1="741.738" x2="712.161" y2="378.175" xlink:href="#linear-gradient"/><linearGradient id="linear-gradient-15" x1="449.213" y1="842.353" x2="812.776" y2="478.789" xlink:href="#linear-gradient"/><linearGradient id="linear-gradient-16" x1="441.378" y1="834.518" x2="804.941" y2="470.955" xlink:href="#linear-gradient"/><linearGradient id="linear-gradient-17" x1="378.7" y1="771.84" x2="742.263" y2="408.277" xlink:href="#linear-gradient"/><linearGradient id="linear-gradient-18" x1="236.85" y1="629.989" x2="600.413" y2="266.426" xlink:href="#linear-gradient"/><linearGradient id="linear-gradient-19" x1="237.674" y1="630.814" x2="601.238" y2="267.251" xlink:href="#linear-gradient"/><linearGradient id="linear-gradient-20" x1="281.59" y1="674.73" x2="645.153" y2="311.167" xlink:href="#linear-gradient"/><linearGradient id="linear-gradient-21" x1="331.691" y1="724.831" x2="695.255" y2="361.268" xlink:href="#linear-gradient"/></defs><circle class="cls-1" cx="538.473" cy="538.473" r="538.473"/><circle class="cls-2" cx="538.473" cy="538.473" r="432.5"/><path class="cls-3" d="M251.692,777.462l47.464-40.507L284.551,719.84l5.78-4.934L325,755.525l-5.78,4.933-14.607-17.114-47.464,40.508Z"/><path class="cls-3" d="M287.138,815.563l43.524-54.823,6.579,5.222L317.9,790.32l25.69,20.394,19.337-24.357,6.579,5.223L325.984,846.4,319.4,841.18l19.462-24.514-25.689-20.394-19.461,24.514Z"/><path class="cls-3" d="M346.405,859.243l32.725-61.88,38.1,20.149-3.553,6.718L383,808.008l-10.939,20.686,28.2,14.913-3.554,6.718-28.2-14.913-11.126,21.039L388.5,872.907l-3.553,6.718Z"/><path class="cls-3" d="M445.275,900.043l14.846-60.607-21.854-5.354,1.808-7.381,51.867,12.7-1.808,7.382-21.855-5.354-14.846,60.608Z"/><path class="cls-3" d="M493.538,909.615l4.587-69.849,43.008,2.823-.5,7.584L506.009,847.9l-1.533,23.35,31.832,2.09-.5,7.584-31.832-2.09-1.56,23.749,35.125,2.306-.5,7.584Z"/><path class="cls-3" d="M552.079,912.624l13.6-71.985,14.706-1.663L609.711,906.1l-8.644.978L593.711,890.1l-29.611,3.35-3.376,18.195Zm13.253-26.961,25.339-2.866-16.376-38-1.391.158Z"/><path class="cls-3" d="M647.37,897.079q-11.975,3.59-21.143-1.231t-13.161-18.135l-4.6-15.326q-3.99-13.312,1.015-22.384t16.981-12.659q11.877-3.56,20.229,1.14t11.8,16.195l.144.479-7.951,2.383-.23-.767q-2.268-7.565-7.789-11.184t-14.047-1.061q-8.524,2.554-11.749,9.211t-.411,16.044l4.709,15.709q2.814,9.388,9.168,13.173t14.88,1.229q8.524-2.556,11.146-8.613t.353-13.625l-.46-1.533,7.951-2.383.373,1.245q3.445,11.495-.943,20.013T647.37,897.079Z"/><path class="cls-3" d="M691.775,879.822l-32.9-61.786,7.414-3.949,14.617,27.451,28.952-15.416-14.618-27.451,7.415-3.948,32.9,61.787-7.415,3.948-14.711-27.627-28.951,15.416,14.711,27.627Z"/><path class="cls-3" d="M755.433,842.921,711.76,788.215l33.683-26.889,4.742,5.939-27.118,21.649,14.6,18.288L762.6,787.3l4.741,5.94-24.93,19.9,14.849,18.6,27.509-21.961,4.742,5.939Z"/><path class="cls-3" d="M804.394,801.478l-52.751-46.014,18.6-21.327a27.428,27.428,0,0,1,9.223-7.149,18.176,18.176,0,0,1,9.917-1.634,17.389,17.389,0,0,1,9.339,4.431l.829.723q5.2,4.536,6.045,9.652a16.3,16.3,0,0,1-1.058,9.428l1.055.92a8.626,8.626,0,0,1,5.681-2.939q3.242-.291,6.632,2.666l17.709,15.448-5.456,6.254-16.955-14.79a6.118,6.118,0,0,0-4.552-1.78,6.858,6.858,0,0,0-4.459,2.678l-15.908,18.237,21.628,18.866ZM782.56,771.286l12.555-14.393q4.537-5.2,4.477-10.228t-4.581-8.972l-.527-.461q-4.522-3.944-9.479-3.358t-9.559,5.862l-12.554,14.393Z"/><path class="cls-3" d="M358.511,320.609,338.67,295.736,283.3,273.9l8.942-7.134,42.482,17.33,1.3-1.04-7.455-45.271,8.943-7.134,8.98,58.84,19.841,24.872Z"/><path class="cls-3" d="M420.9,283.333q-13.529,6.242-25.206,2.115t-18.62-19.166l-7.986-17.313q-6.939-15.038-2.5-26.6t17.967-17.8q13.635-6.29,25.314-2.164t18.619,19.166l7.987,17.312q6.939,15.042,2.5,26.6T420.9,283.333Zm-3.745-8.115q9.846-4.542,12.537-12.935t-2.153-18.889l-8.287-17.962q-4.841-10.492-12.973-13.9T388.3,212.677q-9.738,4.493-12.428,12.886t2.153,18.889l8.287,17.961q4.842,10.5,12.972,13.9T417.152,275.218Z"/><path class="cls-3" d="M491.217,261.572a36.917,36.917,0,0,1-16.536-.583,24.283,24.283,0,0,1-12.236-8.019q-4.866-5.883-6.477-15.4l-9.276-54.75,9.752-1.652,9.295,54.867q1.713,10.105,7.973,14.241t16.012,2.484q9.752-1.651,14.3-7.62t2.835-16.072l-9.3-54.867,9.869-1.672,9.276,54.75q1.612,9.517-1.043,16.674a24.22,24.22,0,0,1-8.971,11.612A37.3,37.3,0,0,1,491.217,261.572Z"/><path class="cls-3" d="M555.689,254.351l40.339-77.415,17.348,3.176,10.3,86.686-10.2-1.867-2.532-21.906-34.929-6.4-10.128,19.588Zm24.418-26.179L610,233.645l-5.567-48.993-1.642-.3Z"/><path class="cls-3" d="M630.831,269.907l34.835-75.792L696.308,208.2a32.657,32.657,0,0,1,11.277,8.135,21.652,21.652,0,0,1,5.206,10.786,20.7,20.7,0,0,1-1.92,12.166l-.547,1.192q-3.433,7.47-9,10.159a19.412,19.412,0,0,1-11.133,1.965l-.7,1.516a10.278,10.278,0,0,1,5.274,5.506q1.422,3.6-.815,8.478l-11.7,25.444-8.986-4.13,11.2-24.362a7.289,7.289,0,0,0,.5-5.8q-.99-2.551-4.564-4.2l-26.2-12.043-14.282,31.075Zm27.159-35.123,20.681,9.5q7.47,3.434,13.2,1.672t8.713-8.257l.349-.758q2.985-6.5.646-11.965t-9.918-8.952l-20.68-9.5Z"/><path class="cls-3" d="M693.98,301.339l51.529-65.595L785.9,267.471l-5.6,7.122-32.517-25.544-17.224,21.928,29.892,23.482-5.594,7.122L724.966,278.1l-17.52,22.3,32.985,25.912-5.6,7.122Z"/><circle class="cls-4" cx="271.062" cy="341.48" r="7.535"/><circle class="cls-5" cx="805.883" cy="341.48" r="7.535"/><path class="cls-6" d="M538.473,305.61c-128.4,0-232.863,104.462-232.863,232.863S410.073,771.335,538.473,771.335,771.335,666.874,771.335,538.473,666.873,305.61,538.473,305.61Zm0,459.134c-124.766,0-226.272-101.5-226.272-226.271S413.707,312.2,538.473,312.2,764.744,413.706,764.744,538.473,663.238,764.744,538.473,764.744Z"/><path class="cls-7" d="M538.473,338.075c-110.5,0-200.4,89.9-200.4,200.4s89.9,200.4,200.4,200.4,200.4-89.9,200.4-200.4S648.974,338.075,538.473,338.075Zm0,394.205c-106.865,0-193.807-86.941-193.807-193.807s86.942-193.808,193.807-193.808,193.808,86.941,193.808,193.808S645.34,732.28,538.473,732.28Z"/><path class="cls-8" d="M709.9,508.846l-17.153-19.321a20.319,20.319,0,0,0-28.654-1.7l-4.327,3.841,2.08-1.847V433.485a28,28,0,0,0-27.971-27.97H434.849a28,28,0,0,0-27.971,27.97v89.6A27.892,27.892,0,0,0,422.7,548.26l-15.2,28.714a7.193,7.193,0,0,0,1.772,9.053,7.193,7.193,0,0,0,9.225.158l44.967-35.131h129.4l3.506-3.113-82.459,73.2c-.076.067-.136.148-.205.221s-.117.118-.169.183a3.23,3.23,0,0,0-.387.593c0,.008-.01.014-.014.022l-29.668,60.81a7.771,7.771,0,0,0-.693,4.6H460.155a17.735,17.735,0,1,1,0-35.47h10.309a25.562,25.562,0,1,0,0-51.124H391.291a3.3,3.3,0,0,0,0,6.59h79.173a18.972,18.972,0,1,1,0,37.944H460.155a24.325,24.325,0,1,0,0,48.65h29.27a3.308,3.308,0,0,0,.52-.052c.166.011.328.052.5.052a7.782,7.782,0,0,0,2.567-.435l63.9-22.254c.014,0,.025-.014.039-.019.039-.014.072-.039.11-.054a3.25,3.25,0,0,0,.836-.5c.037-.03.083-.04.119-.072l111.37-98.869.017.018a3.294,3.294,0,0,0,4.651.277l22.282-19.781a3.292,3.292,0,0,0,.277-4.651l-.017-.019,11.6-10.3A20.322,20.322,0,0,0,709.9,508.846ZM462.328,544.463a3.294,3.294,0,0,0-2.029.7l-45.861,35.829a.744.744,0,0,1-1.115-.934l16.914-31.948a3.295,3.295,0,0,0-1.9-4.676,21.351,21.351,0,0,1-14.868-20.349v-89.6a21.4,21.4,0,0,1,21.38-21.38H633.87a21.4,21.4,0,0,1,21.38,21.38v62.183l-2.78,2.467a3.285,3.285,0,0,0-4.48-.119l-19,16.865a3.5,3.5,0,0,0-2.017-.64h-185.5a3.3,3.3,0,1,0,0,6.591H624.7a3.29,3.29,0,0,0,.593,1.428l-25.01,22.2ZM629.652,527.2l8.4,9.46L529.144,633.345l-8.4-9.458Zm12.772,14.388,9.809,11.048-108.9,96.682-9.81-11.049ZM517.055,678.373,501.56,660.918l15.338-31.44,33.193,37.39ZM556.1,663.708l-8.4-9.458,108.9-96.682,8.4,9.459Zm116.037-98.574-39.59-44.6L649.9,505.132l39.59,44.6Zm31.679-32.56-11.6,10.3-35.352-39.823,11.6-10.3a13.757,13.757,0,0,1,19.351,1.151l17.152,19.32A13.725,13.725,0,0,1,703.816,532.574Z"/><path class="cls-9" d="M441.475,444.411h185.5a3.3,3.3,0,1,0,0-6.591h-185.5a3.3,3.3,0,1,0,0,6.591Z"/><path class="cls-10" d="M441.475,469.884h185.5a3.3,3.3,0,1,0,0-6.59h-185.5a3.3,3.3,0,1,0,0,6.59Z"/><path class="cls-11" d="M441.475,495.358h185.5a3.3,3.3,0,1,0,0-6.59h-185.5a3.3,3.3,0,1,0,0,6.59Z"/><path class="cls-12" d="M653.624,652.4l-5.916-1.434a10.674,10.674,0,0,1-7.864-7.864l-1.433-5.916a.907.907,0,0,0-1.763,0l-1.433,5.916a10.677,10.677,0,0,1-7.865,7.864l-5.916,1.434a.907.907,0,0,0,0,1.763l5.916,1.433a10.677,10.677,0,0,1,7.865,7.864l1.433,5.916a.907.907,0,0,0,1.763,0l1.433-5.916a10.674,10.674,0,0,1,7.864-7.864l5.916-1.433A.907.907,0,0,0,653.624,652.4Z"/><path class="cls-13" d="M395.784,542.05a.907.907,0,0,0,0-1.763l-5.917-1.433A10.678,10.678,0,0,1,382,530.99l-1.433-5.917a.907.907,0,0,0-1.763,0l-1.433,5.917a10.677,10.677,0,0,1-7.864,7.864l-5.917,1.433a.907.907,0,0,0,0,1.763l5.917,1.433a10.678,10.678,0,0,1,7.864,7.864l1.433,5.917a.907.907,0,0,0,1.763,0L382,551.347a10.68,10.68,0,0,1,7.864-7.864Z"/><path class="cls-14" d="M510.392,375.458l5.917,1.434a10.677,10.677,0,0,1,7.864,7.863l1.433,5.917a.907.907,0,0,0,1.763,0l1.433-5.917a10.677,10.677,0,0,1,7.864-7.863l5.917-1.434a.907.907,0,0,0,0-1.763l-5.917-1.433A10.677,10.677,0,0,1,528.8,364.4l-1.433-5.916a.907.907,0,0,0-1.763,0l-1.433,5.916a10.677,10.677,0,0,1-7.864,7.864l-5.917,1.433A.907.907,0,0,0,510.392,375.458Z"/><circle class="cls-15" cx="510.406" cy="579.93" r="5.361"/><path class="cls-16" d="M692.667,593.538a5.361,5.361,0,1,0,5.361,5.361A5.361,5.361,0,0,0,692.667,593.538Z"/><circle class="cls-17" cx="597.825" cy="678.071" r="5.361"/><circle class="cls-18" cx="689.368" cy="461.172" r="5.361"/><circle class="cls-19" cx="378.452" cy="488.387" r="5.361"/><circle class="cls-20" cx="482.365" cy="386.123" r="5.361"/><circle class="cls-21" cx="582.156" cy="374.165" r="5.361"/><path class="cls-22" d="M417.213,633.949a5.361,5.361,0,1,0,5.361,5.361A5.361,5.361,0,0,0,417.213,633.949Z"/></svg>