<svg id="Layer_1" data-name="Layer 1" xmlns="http://www.w3.org/2000/svg" xmlns:xlink="http://www.w3.org/1999/xlink" viewBox="0 0 1076.945 1076.945"><defs><style>.cls-1{fill:url(#linear-gradient);}.cls-2{fill:url(#linear-gradient-2);}.cls-3{fill:#fff;}.cls-4{fill:url(#linear-gradient-3);}.cls-5{fill:url(#linear-gradient-4);}.cls-6{fill:url(#linear-gradient-5);}.cls-7{fill:url(#linear-gradient-6);}.cls-8{fill:url(#linear-gradient-7);}.cls-9{fill:url(#linear-gradient-8);}.cls-10{fill:url(#linear-gradient-9);}.cls-11{fill:url(#linear-gradient-10);}.cls-12{fill:url(#linear-gradient-11);}.cls-13{fill:url(#linear-gradient-12);}.cls-14{fill:url(#linear-gradient-13);}.cls-15{fill:url(#linear-gradient-14);}.cls-16{fill:url(#linear-gradient-15);}.cls-17{fill:url(#linear-gradient-16);}.cls-18{fill:url(#linear-gradient-17);}.cls-19{fill:url(#linear-gradient-18);}</style><linearGradient id="linear-gradient" x1="81.754" y1="995.191" x2="971.742" y2="105.203" gradientUnits="userSpaceOnUse"><stop offset="0.08" stop-color="#dee13d"/><stop offset="0.377" stop-color="#7cbd99"/><stop offset="0.71" stop-color="#599fd9"/><stop offset="0.95" stop-color="#7cc6f2"/></linearGradient><linearGradient id="linear-gradient-2" x1="188.709" y1="888.236" x2="859.197" y2="217.749" gradientUnits="userSpaceOnUse"><stop offset="0" stop-color="#020f15"/><stop offset="1" stop-color="#0d2233"/></linearGradient><linearGradient id="linear-gradient-3" x1="-167.244" y1="779.786" x2="755.475" y2="-142.932" xlink:href="#linear-gradient"/><linearGradient id="linear-gradient-4" x1="100.166" y1="1047.197" x2="1022.885" y2="124.478" xlink:href="#linear-gradient"/><linearGradient id="linear-gradient-5" x1="332.323" y1="744.622" x2="716.879" y2="360.067" xlink:href="#linear-gradient"/><linearGradient id="linear-gradient-6" x1="332.324" y1="744.623" x2="716.879" y2="360.067" xlink:href="#linear-gradient"/><linearGradient id="linear-gradient-7" x1="347.28" y1="759.579" x2="731.836" y2="375.024" xlink:href="#linear-gradient"/><linearGradient id="linear-gradient-8" x1="346.027" y1="758.326" x2="730.583" y2="373.771" xlink:href="#linear-gradient"/><linearGradient id="linear-gradient-9" x1="246.355" y1="658.654" x2="630.91" y2="274.098" xlink:href="#linear-gradient"/><linearGradient id="linear-gradient-10" x1="294.998" y1="707.297" x2="679.554" y2="322.742" xlink:href="#linear-gradient"/><linearGradient id="linear-gradient-11" x1="372.315" y1="784.614" x2="756.871" y2="400.059" xlink:href="#linear-gradient"/><linearGradient id="linear-gradient-12" x1="411.901" y1="824.2" x2="796.457" y2="439.645" xlink:href="#linear-gradient"/><linearGradient id="linear-gradient-13" x1="292.524" y1="704.823" x2="677.08" y2="320.268" xlink:href="#linear-gradient"/><linearGradient id="linear-gradient-14" x1="223.248" y1="635.547" x2="607.804" y2="250.992" xlink:href="#linear-gradient"/><linearGradient id="linear-gradient-15" x1="228.815" y1="641.114" x2="613.371" y2="256.559" xlink:href="#linear-gradient"/><linearGradient id="linear-gradient-16" x1="427.674" y1="839.973" x2="812.229" y2="455.417" xlink:href="#linear-gradient"/><linearGradient id="linear-gradient-17" x1="391.696" y1="803.995" x2="776.251" y2="419.439" xlink:href="#linear-gradient"/><linearGradient id="linear-gradient-18" x1="350.666" y1="762.965" x2="735.222" y2="378.41" xlink:href="#linear-gradient"/></defs><circle class="cls-1" cx="538.473" cy="538.473" r="538.473"/><circle class="cls-2" cx="538.473" cy="538.473" r="432.5"/><path class="cls-3" d="M167.566,580.971l61.92-7.722L226.7,550.921l7.541-.94,6.609,52.989-7.541.941-2.786-22.327-61.919,7.722Z"/><path class="cls-3" d="M175.692,630.187l66.583-21.6,2.593,7.99-29.582,9.6,10.123,31.2,29.581-9.6,2.593,7.99L191,677.367l-2.593-7.991,29.773-9.659-10.123-31.2-29.772,9.66Z"/><path class="cls-3" d="M200.95,699.362l61.444-33.537,20.648,37.832-6.671,3.641-16.624-30.459-20.54,11.211,15.283,28-6.671,3.641-15.283-28-20.89,11.4,16.864,30.9-6.671,3.641Z"/><path class="cls-3" d="M260.765,787.938,306.7,745.707l-15.227-16.564L297.07,724l36.14,39.312-5.595,5.144-15.227-16.564L266.45,794.122Z"/><path class="cls-3" d="M295.862,823.241,337.67,767.1l6.737,5.017-18.574,24.944,26.308,19.589,18.574-24.943,6.737,5.016-41.807,56.144-6.738-5.017,18.695-25.1-26.308-19.59-18.694,25.1Z"/><path class="cls-3" d="M379.325,877.767q-11.315-5.316-14.974-15.044t2.248-22.311l6.8-14.482q5.908-12.58,15.735-15.976t21.139,1.919q11.406,5.356,15.066,15.086t-2.248,22.311l-6.8,14.482q-5.909,12.582-15.734,15.976T379.325,877.767Zm3.189-6.789q8.235,3.869,15.08,1.062t10.966-11.587l7.057-15.026q4.123-8.778,1.915-15.838t-10.445-10.927q-8.146-3.827-14.988-1.019t-10.967,11.586l-7.058,15.026q-4.124,8.779-1.915,15.838T382.514,870.978Z"/><path class="cls-3" d="M448.634,902.308a30.974,30.974,0,0,1-12.537-5.969,20.372,20.372,0,0,1-6.744-10.259,26.918,26.918,0,0,1,.155-14.019l11.136-45.25,8.059,1.983-11.16,45.348q-2.055,8.352,1.384,13.625t11.5,7.258q8.058,1.983,13.554-1.092t7.549-11.428l11.16-45.346,8.157,2.007-11.136,45.25a26.954,26.954,0,0,1-6.37,12.49,20.336,20.336,0,0,1-10.783,5.945A31.321,31.321,0,0,1,448.634,902.308Z"/><path class="cls-3" d="M520.2,912.711a28.235,28.235,0,0,1-13.584-3.884,22.747,22.747,0,0,1-8.846-9.971q-3.058-6.448-2.624-15.739l.743-15.982q.644-13.884,8.372-20.784t20.215-6.32q12.384.576,18.564,7.67t5.649,18.482l-.023.5-8.291-.385.032-.7a21,21,0,0,0-1.385-8.974,13.675,13.675,0,0,0-5.309-6.4,18.827,18.827,0,0,0-9.585-2.7q-8.892-.413-14.138,4.8t-5.7,15l-.76,16.383q-.454,9.791,4.287,15.465t13.732,6.094q8.788.408,13.168-4.394t4.763-13.094l.079-1.7-21.178-.983.334-7.192,29.369,1.364-1.545,33.264-7.592-.353.353-7.592-1.4-.065a17.9,17.9,0,0,1-3.3,4.152,14.465,14.465,0,0,1-5.552,3.146A25.062,25.062,0,0,1,520.2,912.711Z"/><path class="cls-3" d="M570.475,911.221l-10.512-69.207,8.305-1.261,4.67,30.747,32.428-4.925L600.7,835.827l8.3-1.261,10.513,69.206-8.306,1.262-4.7-30.946-32.428,4.926,4.7,30.945Z"/><path class="cls-3" d="M659.233,891.808l-20.844-58.816-21.208,7.515-2.539-7.163,50.333-17.838,2.539,7.164-21.208,7.516L667.15,889Z"/><path class="cls-3" d="M727.739,860.853l-38.563-58.42,7.011-4.627,34.376,52.077,29.544-19.5,4.186,6.343Z"/><path class="cls-3" d="M773.074,829.522l-46.82-52.037,32.04-28.827,5.084,5.649-25.8,23.21,15.652,17.395,23.713-21.336,5.083,5.649-23.713,21.337,15.918,17.692L800.4,794.711l5.084,5.649Z"/><path class="cls-3" d="M813.071,792.968,771.65,732.546l9.2-11.6,68.266,26.576-5.406,6.816-17.223-6.768-18.519,23.348,10.513,15.23Zm-9.755-28.414,15.846-19.979-38.483-15.206-.87,1.1Z"/><path class="cls-3" d="M855.487,737.136,793.908,703.85l10.319-19.09q6.609-12.226,16.358-15.541t22.5,3.582l11.436,6.182q12.845,6.944,15.368,16.889t-4.086,22.174Zm-2.691-11,6.372-11.788q4.8-8.885,2.877-15.838t-11.163-11.945l-12.052-6.514q-9.411-5.088-16.2-2.843t-11.586,11.129l-6.372,11.788Z"/><path class="cls-3" d="M886.941,674.079l-66.512-21.822L833.865,611.3l7.221,2.369-10.817,32.971,22.233,7.3,9.945-30.311,7.221,2.37-9.944,30.31,22.614,7.419,10.974-33.445,7.22,2.369Z"/><path class="cls-3" d="M905.17,612.484l-69.364-9.415,3.806-28.043a27.4,27.4,0,0,1,3.77-11.043,18.189,18.189,0,0,1,7.384-6.819A17.373,17.373,0,0,1,861,555.728l1.09.148q6.837.928,10.357,4.736a16.287,16.287,0,0,1,4.3,8.455l1.387.188a8.619,8.619,0,0,1,3.129-5.579q2.545-2.025,7-1.421l23.287,3.161-1.117,8.224-22.295-3.026a6.118,6.118,0,0,0-4.781,1.016,6.859,6.859,0,0,0-2.251,4.69L877.86,600.3l28.44,3.86Zm-34.841-13.206,2.57-18.926q.927-6.838-1.888-11t-8.761-4.974l-.693-.094q-5.946-.807-9.763,2.409t-4.759,10.152l-2.568,18.927Z"/><path class="cls-3" d="M358.511,320.609,338.67,295.736,283.3,273.9l8.942-7.134,42.482,17.33,1.3-1.04-7.455-45.271,8.943-7.134,8.98,58.84,19.841,24.872Z"/><path class="cls-3" d="M420.9,283.333q-13.529,6.242-25.206,2.115t-18.62-19.166l-7.986-17.313q-6.939-15.038-2.5-26.6t17.967-17.8q13.635-6.29,25.314-2.164t18.619,19.166l7.987,17.312q6.939,15.042,2.5,26.6T420.9,283.333Zm-3.745-8.115q9.846-4.542,12.537-12.935t-2.153-18.889l-8.287-17.962q-4.841-10.492-12.973-13.9T388.3,212.677q-9.738,4.493-12.428,12.886t2.153,18.889l8.287,17.961q4.842,10.5,12.972,13.9T417.152,275.218Z"/><path class="cls-3" d="M491.217,261.572a36.917,36.917,0,0,1-16.536-.583,24.283,24.283,0,0,1-12.236-8.019q-4.866-5.883-6.477-15.4l-9.276-54.75,9.752-1.652,9.295,54.867q1.713,10.105,7.973,14.241t16.012,2.484q9.752-1.651,14.3-7.62t2.835-16.072l-9.3-54.867,9.869-1.672,9.276,54.75q1.612,9.517-1.043,16.674a24.22,24.22,0,0,1-8.971,11.612A37.3,37.3,0,0,1,491.217,261.572Z"/><path class="cls-3" d="M555.689,254.351l40.339-77.415,17.348,3.176,10.3,86.686-10.2-1.867-2.532-21.906-34.929-6.4-10.128,19.588Zm24.418-26.179L610,233.645l-5.567-48.993-1.642-.3Z"/><path class="cls-3" d="M630.831,269.907l34.835-75.792L696.308,208.2a32.657,32.657,0,0,1,11.277,8.135,21.652,21.652,0,0,1,5.206,10.786,20.7,20.7,0,0,1-1.92,12.166l-.547,1.192q-3.433,7.47-9,10.159a19.412,19.412,0,0,1-11.133,1.965l-.7,1.516a10.278,10.278,0,0,1,5.274,5.506q1.422,3.6-.815,8.478l-11.7,25.444-8.986-4.13,11.2-24.362a7.289,7.289,0,0,0,.5-5.8q-.99-2.551-4.564-4.2l-26.2-12.043-14.282,31.075Zm27.159-35.123,20.681,9.5q7.47,3.434,13.2,1.672t8.713-8.257l.349-.758q2.985-6.5.646-11.965t-9.918-8.952l-20.68-9.5Z"/><path class="cls-3" d="M693.98,301.339l51.529-65.595L785.9,267.471l-5.6,7.122-32.517-25.544-17.224,21.928,29.892,23.482-5.594,7.122L724.966,278.1l-17.52,22.3,32.985,25.912-5.6,7.122Z"/><circle class="cls-4" cx="271.062" cy="341.48" r="7.535"/><circle class="cls-5" cx="805.883" cy="341.48" r="7.535"/><path class="cls-6" d="M538.473,305.61c-128.4,0-232.863,104.463-232.863,232.863S410.073,771.335,538.473,771.335,771.335,666.873,771.335,538.473,666.873,305.61,538.473,305.61Zm0,459.134c-124.766,0-226.272-101.506-226.272-226.271S413.707,312.2,538.473,312.2,764.744,413.707,764.744,538.473,663.238,764.744,538.473,764.744Z"/><path class="cls-7" d="M538.473,338.076c-110.5,0-200.4,89.9-200.4,200.4s89.9,200.4,200.4,200.4,200.4-89.9,200.4-200.4S648.974,338.076,538.473,338.076Zm0,394.2c-106.865,0-193.807-86.941-193.807-193.806s86.942-193.807,193.807-193.807,193.808,86.942,193.808,193.807S645.34,732.279,538.473,732.279Z"/><path class="cls-8" d="M680.148,611.832H614.707V564.877a3.3,3.3,0,0,0-3.295-3.295H578.038l9.922-38.442c13.967-22.831,18.6-46.11,13.742-69.26-9.684-46.182-54.509-79.368-73.33-91.494a7.508,7.508,0,0,0-11.488,7.443c5.134,34.3-4.565,64.233-9.083,75.74-7.637-8.075-12.939-19.361-15.425-25.39a5.419,5.419,0,0,0-9.356-1.156c-41.417,55.508-5.685,100.228,1.9,108.629l.108.12,8.726,33.81H465.536a3.3,3.3,0,0,0-3.3,3.295v46.955H396.8a3.3,3.3,0,0,0-3.3,3.295v31.4a3.3,3.3,0,0,0,6.591,0V618.423h65.441a3.3,3.3,0,0,0,3.3-3.3V568.173h26.624l30.066,116.5a10.714,10.714,0,0,0,20.748,0l30.068-116.495h31.779v46.954a3.3,3.3,0,0,0,3.3,3.3h65.441v28.108a3.3,3.3,0,0,0,6.59,0v-31.4A3.3,3.3,0,0,0,680.148,611.832ZM487.1,424.624c2.941,6.775,8.386,17.577,16.053,25.622a6.457,6.457,0,0,0,5.956,1.9,6.379,6.379,0,0,0,4.734-3.939c4.673-11.836,14.962-43.26,9.558-79.353a.891.891,0,0,1,.414-.934.863.863,0,0,1,.987,0c18.125,11.677,61.277,43.558,70.45,87.308,4.666,22.26-.191,44.764-14.44,66.915H567.579c17.661-54.971-6.75-91.049-18.324-104.22a6.177,6.177,0,0,0-10.817,4.082A93.046,93.046,0,0,1,516.974,481.4a3.261,3.261,0,0,1-4.129.749c-7.588-4.439-15.419-12.99-18.439-16.47a4.127,4.127,0,0,0-7.226,2.547c-1.018,25.187,5.825,43.323,11.559,53.925h-9.894C452.516,480.643,478.635,436.653,487.1,424.624Zm73.554,97.525H506.316c-5.112-8.436-12.35-24.408-12.638-47.506,4.111,4.273,9.97,9.761,15.837,13.194a9.846,9.846,0,0,0,12.475-2.165,99.735,99.735,0,0,0,23.03-62.566C556.238,436.229,578.157,470.359,560.655,522.149ZM539.889,683.02a4.124,4.124,0,0,1-7.987,0L492.084,528.739h87.624Z"/><path class="cls-9" d="M631.006,458.134l5.917,1.433a10.675,10.675,0,0,1,7.864,7.864l1.433,5.916a.907.907,0,0,0,1.763,0l1.433-5.916a10.677,10.677,0,0,1,7.864-7.864l5.917-1.433a.907.907,0,0,0,0-1.763l-5.917-1.433a10.68,10.68,0,0,1-7.864-7.864l-1.433-5.917a.907.907,0,0,0-1.763,0l-1.433,5.917a10.678,10.678,0,0,1-7.864,7.864l-5.917,1.433A.907.907,0,0,0,631.006,458.134Z"/><path class="cls-10" d="M395.873,524.349a.907.907,0,0,0,1.763,0l1.433-5.917a10.677,10.677,0,0,1,7.864-7.863l5.917-1.433a.908.908,0,0,0,0-1.764l-5.917-1.433a10.677,10.677,0,0,1-7.864-7.864l-1.433-5.916a.907.907,0,0,0-1.763,0l-1.433,5.916a10.674,10.674,0,0,1-7.864,7.864l-5.916,1.433a.908.908,0,0,0,0,1.764l5.916,1.433a10.674,10.674,0,0,1,7.864,7.863Z"/><circle class="cls-11" cx="605.66" cy="396.636" r="5.361"/><circle class="cls-12" cx="635.35" cy="521.58" r="5.361"/><circle class="cls-13" cx="689.78" cy="546.321" r="5.361"/><circle class="cls-14" cx="425.048" cy="572.299" r="5.361"/><circle class="cls-15" cx="413.914" cy="444.881" r="5.361"/><circle class="cls-16" cx="473.293" cy="396.636" r="5.361"/><path class="cls-17" d="M619.9,662.961l-5.917-1.433a10.677,10.677,0,0,1-7.864-7.864l-1.433-5.917a.907.907,0,0,0-1.763,0l-1.433,5.917a10.68,10.68,0,0,1-7.864,7.864l-5.917,1.433a.907.907,0,0,0,0,1.763l5.917,1.433a10.68,10.68,0,0,1,7.864,7.864l1.433,5.917a.907.907,0,0,0,1.763,0l1.433-5.917a10.677,10.677,0,0,1,7.864-7.864l5.917-1.433A.907.907,0,0,0,619.9,662.961Z"/><circle class="cls-18" cx="502.983" cy="692.707" r="5.361"/><circle class="cls-19" cx="454.737" cy="658.894" r="5.361"/></svg>