<svg id="Layer_1" data-name="Layer 1" xmlns="http://www.w3.org/2000/svg" viewBox="0 0 111.2 111.2"><defs><style>.newsprcls-1{fill:#e2e2e2;}.newsprcls-2,.newsprcls-8{fill:none;stroke-linecap:round;stroke-linejoin:round;}.newsprcls-2{stroke:#e2e2e2;stroke-width:1.76px;stroke-dasharray:0 5.31;}.newsprcls-3{fill:#f5911e;}.newsprcls-4{fill:#404040;}.newsprcls-5{fill:#2f3e79;}.newsprcls-6{fill:#21c5c9;}.newsprcls-7{fill:#fff;}.newsprcls-8{stroke:#404040;}</style></defs><title>website illo</title><circle class="newsprcls-1" cx="55.6" cy="55.6" r="34.97"/><circle class="newsprcls-2" cx="55.6" cy="55.6" r="41.44" transform="translate(-6.07 104.38) rotate(-83.34)"/><circle class="newsprcls-3" cx="20.8" cy="69.04" r="20.79"/><circle class="newsprcls-4" cx="68.94" cy="90.4" r="20.79"/><circle class="newsprcls-5" cx="42.25" cy="20.8" r="20.79"/><circle class="newsprcls-6" cx="90.4" cy="42.25" r="20.79"/><polygon class="newsprcls-7" points="26.82 75.44 15.29 73.01 13.25 66.48 21.36 57.92 26.82 75.44"/><path class="newsprcls-7" d="M7.89,67.41h2.42a3.42,3.42,0,0,1,3.42,3.42v0a3.42,3.42,0,0,1-3.42,3.42H7.89a0,0,0,0,1,0,0V67.41a0,0,0,0,1,0,0Z" transform="translate(42.2 135.22) rotate(162.68)"/><path class="newsprcls-7" d="M24.73,63.89h.86a.83.83,0,0,1,.83.83v3a.83.83,0,0,1-.83.83h-.86a0,0,0,0,1,0,0V63.89A0,0,0,0,1,24.73,63.89Z" transform="translate(-18.55 10.61) rotate(-17.32)"/><polygon class="newsprcls-7" points="13.62 79.29 10.66 80.21 11.84 74.75 14.8 73.83 13.62 79.29"/><rect class="newsprcls-7" x="28.25" y="64.22" width="3.88" height="1.13" rx="0.56" transform="translate(-17.91 11.92) rotate(-17.32)"/><rect class="newsprcls-7" x="26.59" y="58.9" width="3.88" height="1.13" rx="0.56" transform="translate(-35.19 42.44) rotate(-49.42)"/><rect class="newsprcls-7" x="29.9" y="69.54" width="3.88" height="1.13" rx="0.56" transform="translate(44.74 146.01) rotate(-165.22)"/><path class="newsprcls-7" d="M55,12.1c0-.9-.27-1.16-1.18-1.17H35.57c-.9,0-1.24.33-1.27,1.23,0,.69,0,1.37,0,2.19H30.58c-.87,0-1.07.22-1.07,1.09,0,4,0,8,0,11.93a3.18,3.18,0,0,0,3.23,3.28q9.52,0,19,0A3.19,3.19,0,0,0,55,27.35C55,22.27,55,17.19,55,12.1ZM34.29,27.18a1.56,1.56,0,0,1-1.16,1.74,1.52,1.52,0,0,1-2-1.41c0-3.8,0-7.61,0-11.5h3.07c0,.21.06.41.06.61Q34.3,21.9,34.29,27.18ZM53.36,13.54q0,6.71,0,13.41c0,1.49-.5,2-2,2H35.82c.07-1,.18-1.82.18-2.68,0-4.23,0-8.47,0-12.7v-.9H53.36Z"/><path class="newsprcls-7" d="M38.75,19.94c1.31,0,2.62,0,3.94,0a.84.84,0,0,0,1-.9c0-1.26,0-2.52,0-3.78a.83.83,0,0,0-.95-.91h-4a.84.84,0,0,0-1,1v3.62C37.72,19.62,38.07,19.94,38.75,19.94Z"/><path class="newsprcls-7" d="M50.51,21.94c-1.95,0-3.9,0-5.85,0H38.82c-.59,0-1.09.11-1.1.82s.49.83,1.08.83q5.84,0,11.69,0c.59,0,1.11-.15,1.11-.81S51.12,21.94,50.51,21.94Z"/><path class="newsprcls-7" d="M50.44,25.6H38.91c-.59,0-1.17,0-1.19.8s.62.84,1.22.84H50.47c.59,0,1.12-.14,1.13-.8S51.06,25.6,50.44,25.6Z"/><path class="newsprcls-7" d="M50.68,18.28h-4.4c-.55,0-.94.3-.92.85s.42.81,1,.81h4.33c.55,0,.94-.26,1-.82S51.23,18.29,50.68,18.28Z"/><path class="newsprcls-7" d="M46.37,16h4.25c.58,0,1-.25,1-.85s-.43-.8-1-.79H46.31c-.56,0-1,.25-1,.81S45.79,16,46.37,16Z"/><path class="newsprcls-7" d="M89.23,51a17.91,17.91,0,0,1-2.18-.69,8.61,8.61,0,0,1-5.39-8c0-1,0-1.94,0-2.91a1,1,0,0,1,.86-1.07,1,1,0,0,1,1.16.68,1.54,1.54,0,0,1,.06.48c0,1.12,0,2.23,0,3.34A6.67,6.67,0,0,0,97,43.4a10.27,10.27,0,0,0,.09-1.67c0-.8,0-1.6,0-2.39a1,1,0,0,1,.88-1,1,1,0,0,1,1.14.7,1.27,1.27,0,0,1,.05.39c0,1,0,2.06,0,3.09a8.75,8.75,0,0,1-7.23,8.38l-.31.07V54h3.53a1.18,1.18,0,0,1,1.17,1.05,1.16,1.16,0,0,1-.81,1.23,1.47,1.47,0,0,1-.42.06H85.8a1.15,1.15,0,0,1-1.23-1.16A1.18,1.18,0,0,1,85.83,54h3.4Z"/><path class="newsprcls-7" d="M85.36,38.35H95.47s0,.07,0,.1c0,1.4,0,2.8,0,4.2a5.07,5.07,0,0,1-10.13-.23c0-1.3,0-2.61,0-3.91A1.1,1.1,0,0,1,85.36,38.35Z"/><path class="newsprcls-7" d="M95.5,36.72H85.37s0,0,0-.07a37.23,37.23,0,0,1,.12-4.36,5,5,0,0,1,4.94-4.13,5.08,5.08,0,0,1,5,4.11,6.75,6.75,0,0,1,.1,1.19c0,1,0,2,0,2.94C95.51,36.5,95.5,36.6,95.5,36.72Z"/><rect class="newsprcls-7" x="55.15" y="81.14" width="27.59" height="16.33" rx="2.95"/><path class="newsprcls-7" d="M58.78,93.52v8.58a.64.64,0,0,0,1.1.46l9.18-9.18Z"/><line class="newsprcls-8" x1="58.57" y1="85.59" x2="79.31" y2="85.59"/><line class="newsprcls-8" x1="58.57" y1="89.3" x2="79.31" y2="89.3"/><line class="newsprcls-8" x1="58.57" y1="93.01" x2="79.31" y2="93.01"/></svg>