<svg id="Layer_1" data-name="Layer 1" xmlns="http://www.w3.org/2000/svg" viewBox="0 0 111.2 111.2"><defs><style>.paidmediacls-1{fill:#e2e2e2;}.paidmediacls-2,.paidmediacls-9{fill:none;stroke-linecap:round;stroke-linejoin:round;}.paidmediacls-2{stroke:#e2e2e2;stroke-width:1.76px;stroke-dasharray:0 5.31;}.paidmediacls-3{fill:#21c5c9;}.paidmediacls-4,.paidmediacls-8{fill:#fff;}.paidmediacls-5{fill:#f5911e;}.paidmediacls-6,.paidmediacls-7{fill:#2f3e79;}.paidmediacls-7,.paidmediacls-8{opacity:0.8;}.paidmediacls-9{stroke:#2f3e79;}.paidmediacls-10{fill:#404040;}.paidmediacls-11{fill:#fbbd04;}.paidmediacls-12{fill:#438edc;}.paidmediacls-13{fill:#34a952;}</style></defs><title>website illo</title><circle class="paidmediacls-1" cx="55.6" cy="55.6" r="34.97"/><circle class="paidmediacls-2" cx="55.6" cy="55.6" r="41.44" transform="translate(-14.4 19.78) rotate(-17.9)"/><path class="paidmediacls-3" d="M67.07,0H44.13a8.29,8.29,0,0,0-8.27,8.27V21.34a8.29,8.29,0,0,0,8.27,8.27H51l4.56,7,4.55-7h6.92a8.29,8.29,0,0,0,8.27-8.27V8.27A8.29,8.29,0,0,0,67.07,0Z"/><path class="paidmediacls-4" d="M64.14,8.25h0a4.89,4.89,0,0,0-6.9,0L55.6,9.89,54,8.25a4.89,4.89,0,0,0-6.9,0h0a4.91,4.91,0,0,0,0,6.9L48.7,16.8,54,22.14a2.21,2.21,0,0,0,3.12,0L62.5,16.8l1.64-1.65A4.89,4.89,0,0,0,64.14,8.25Z"/><circle class="paidmediacls-5" cx="20.8" cy="50.5" r="20.79"/><path class="paidmediacls-4" d="M28.77,44.43l-5.15.82a5.57,5.57,0,0,0-.7-1.37,3.38,3.38,0,0,0-1-.76v4c2.8.74,4.68,1.53,5.62,2.36a5.48,5.48,0,0,1,1.86,4.25,5.76,5.76,0,0,1-.67,2.77A6.82,6.82,0,0,1,27,58.61a7,7,0,0,1-2.22,1.22,11.3,11.3,0,0,1-2.88.45v2.61h-2V60.28a12.76,12.76,0,0,1-3.3-.66,6.73,6.73,0,0,1-2.18-1.32A6.3,6.3,0,0,1,13,56.48a8.66,8.66,0,0,1-.75-2.35l5.59-.65a5.29,5.29,0,0,0,.67,2,3.47,3.47,0,0,0,1.39,1.08V51.64a25.21,25.21,0,0,1-4-1.34A5.26,5.26,0,0,1,13,45.43a5.49,5.49,0,0,1,1.72-4.12,7.75,7.75,0,0,1,5.12-1.83V38.11h2v1.37A8.48,8.48,0,0,1,26.63,41,5.92,5.92,0,0,1,28.77,44.43Zm-8.9-1.38a2.53,2.53,0,0,0-1.23.72,1.58,1.58,0,0,0-.34,1,1.66,1.66,0,0,0,.35,1.07,2.56,2.56,0,0,0,1.22.75Zm2,13.62a3.18,3.18,0,0,0,1.72-.87,1.93,1.93,0,0,0,.55-1.35,1.81,1.81,0,0,0-.46-1.2,4.25,4.25,0,0,0-1.81-1Z"/><path class="paidmediacls-6" d="M97.84,31.09a20.79,20.79,0,1,0,12,26.86A20.78,20.78,0,0,0,97.84,31.09Zm6.68,24.83A15.11,15.11,0,0,1,85,64.62a15.1,15.1,0,0,1-8.7-19.53A15.22,15.22,0,0,1,90.4,35.37a15.14,15.14,0,0,1,14.12,20.55Z"/><path class="paidmediacls-4" d="M95.81,36.38a15,15,0,0,0-5.41-1,15.22,15.22,0,0,0-14.12,9.72A15.13,15.13,0,0,0,90.39,65.63a15.22,15.22,0,0,0,14.13-9.71,15.14,15.14,0,0,0-8.71-19.54Zm3.42,17.51A9.45,9.45,0,0,1,87,59.33a9.45,9.45,0,0,1-5.44-12.21A9.5,9.5,0,0,1,90.4,41a9.47,9.47,0,0,1,8.83,12.85Z"/><path class="paidmediacls-7" d="M95.81,36.38a15,15,0,0,0-5.41-1,15.22,15.22,0,0,0-14.12,9.72A15.13,15.13,0,0,0,90.39,65.63a15.22,15.22,0,0,0,14.13-9.71,15.14,15.14,0,0,0-8.71-19.54Zm3.42,17.51A9.45,9.45,0,0,1,87,59.33a9.45,9.45,0,0,1-5.44-12.21A9.5,9.5,0,0,1,90.4,41a9.47,9.47,0,0,1,8.83,12.85Z"/><path class="paidmediacls-6" d="M93.78,41.67A9.38,9.38,0,0,0,90.4,41a9.5,9.5,0,0,0-8.83,6.08A9.46,9.46,0,0,0,90.39,60a9.53,9.53,0,0,0,8.84-6.07,9.47,9.47,0,0,0-5.45-12.22Zm.15,10.19a3.86,3.86,0,0,1-3.54,2.43A3.79,3.79,0,0,1,89,54a3.8,3.8,0,0,1-2.18-4.9,3.87,3.87,0,0,1,3.54-2.43,3.76,3.76,0,0,1,1.35.26,3.64,3.64,0,0,1,2.1,2A3.7,3.7,0,0,1,93.93,51.86Z"/><path class="paidmediacls-8" d="M91.75,47a3.76,3.76,0,0,0-1.35-.26,3.87,3.87,0,0,0-3.54,2.43A3.8,3.8,0,0,0,89,54a3.79,3.79,0,0,0,1.35.25,3.86,3.86,0,0,0,3.54-2.43,3.7,3.7,0,0,0-.08-2.9A3.64,3.64,0,0,0,91.75,47Z"/><path class="paidmediacls-7" d="M91.75,47a3.76,3.76,0,0,0-1.35-.26,3.87,3.87,0,0,0-3.54,2.43A3.8,3.8,0,0,0,89,54a3.79,3.79,0,0,0,1.35.25,3.86,3.86,0,0,0,3.54-2.43,3.7,3.7,0,0,0-.08-2.9A3.64,3.64,0,0,0,91.75,47Z"/><line class="paidmediacls-9" x1="90.23" y1="50.52" x2="61.51" y2="50.52"/><polygon class="paidmediacls-9" points="64.32 50.52 57.94 50.52 55.73 47.48 62.11 47.48 64.32 50.52"/><polygon class="paidmediacls-9" points="55.73 53.55 62.11 53.55 64.32 50.52 57.94 50.52 55.73 53.55"/><circle class="paidmediacls-10" cx="55.6" cy="90.4" r="20.79"/><rect class="paidmediacls-11" x="46.84" y="76.35" width="8.79" height="26.16" rx="4.39" transform="translate(51.58 -13.64) rotate(30)"/><rect class="paidmediacls-12" x="55.57" y="76.29" width="8.79" height="26.16" rx="4.39" transform="translate(-36.65 41.96) rotate(-30)"/><circle class="paidmediacls-13" cx="46.95" cy="96.89" r="4.45"/></svg>