<svg id="Layer_1" data-name="Layer 1" xmlns="http://www.w3.org/2000/svg" viewBox="0 0 111.2 111.2"><defs><style>.stcls-1{fill:#e2e2e2;}.stcls-2{fill:none;stroke:#e2e2e2;stroke-linecap:round;stroke-linejoin:round;stroke-width:1.76px;stroke-dasharray:0 5.31;}.stcls-3{fill:#404040;}.stcls-4{fill:#2f3e79;}.stcls-5{fill:#21c5c9;}.stcls-6{fill:#f5911e;}.stcls-7{fill:#fff;}</style></defs><title>website illo</title><circle class="stcls-1" cx="55.6" cy="55.6" r="34.97"/><circle class="stcls-2" cx="55.6" cy="55.6" r="41.44" transform="translate(-10.79 97.74) rotate(-77.41)"/><circle class="stcls-3" cx="90.4" cy="68.94" r="20.79"/><circle class="stcls-4" cx="42.25" cy="90.4" r="20.79"/><circle class="stcls-5" cx="68.94" cy="20.8" r="20.79"/><circle class="stcls-6" cx="20.8" cy="42.25" r="20.79"/><path class="stcls-7" d="M90.4,60.1c2.88,0,3.22,0,4.36.06a6,6,0,0,1,2,.37,3.38,3.38,0,0,1,1.25.81,3.24,3.24,0,0,1,.8,1.24,5.71,5.71,0,0,1,.37,2c.06,1.14.07,1.48.07,4.36s0,3.23-.07,4.37a5.71,5.71,0,0,1-.37,2,3.53,3.53,0,0,1-2,2,6,6,0,0,1-2,.37c-1.14,0-1.48.06-4.36.06s-3.23,0-4.36-.06a6,6,0,0,1-2-.37,3.61,3.61,0,0,1-2-2,6.23,6.23,0,0,1-.37-2c0-1.14-.06-1.48-.06-4.37s0-3.22.06-4.36a6.23,6.23,0,0,1,.37-2,3.26,3.26,0,0,1,.81-1.24A3.42,3.42,0,0,1,84,60.53a6,6,0,0,1,2-.37c1.14,0,1.48-.06,4.36-.06m0-2c-2.93,0-3.3,0-4.45.07a7.75,7.75,0,0,0-2.62.5A5.19,5.19,0,0,0,81.42,60a5.35,5.35,0,0,0-1.25,1.91,7.8,7.8,0,0,0-.5,2.62c0,1.16-.07,1.52-.07,4.45s0,3.3.07,4.45a7.75,7.75,0,0,0,.5,2.62,5.39,5.39,0,0,0,1.25,1.92,5.32,5.32,0,0,0,1.91,1.24,7.75,7.75,0,0,0,2.62.5c1.15,0,1.52.07,4.45.07s3.3,0,4.45-.07a7.8,7.8,0,0,0,2.62-.5,5.32,5.32,0,0,0,1.91-1.24A5.39,5.39,0,0,0,100.63,76a8.27,8.27,0,0,0,.5-2.62c.05-1.15.06-1.51.06-4.45s0-3.29-.06-4.45a8.33,8.33,0,0,0-.5-2.62A5.35,5.35,0,0,0,99.38,60a5.19,5.19,0,0,0-1.91-1.24,7.8,7.8,0,0,0-2.62-.5c-1.15-.06-1.52-.07-4.45-.07Z"/><path class="stcls-7" d="M90.4,63.4a5.55,5.55,0,1,0,5.54,5.54A5.54,5.54,0,0,0,90.4,63.4Zm0,9.14a3.6,3.6,0,1,1,3.6-3.6A3.6,3.6,0,0,1,90.4,72.54Z"/><circle class="stcls-7" cx="96.16" cy="63.18" r="1.3"/><path class="stcls-7" d="M51.11,80.44H33.39a1.09,1.09,0,0,0-1.09,1.1V99.26a1.1,1.1,0,0,0,1.09,1.1h9.54V92.64H40.34v-3h2.59V87.42a3.62,3.62,0,0,1,3.87-4,20.35,20.35,0,0,1,2.32.12v2.69H47.53c-1.25,0-1.49.59-1.49,1.46v1.92h3l-.38,3H46v7.72h5.07a1.1,1.1,0,0,0,1.1-1.1V81.54A1.1,1.1,0,0,0,51.11,80.44Z"/><path class="stcls-7" d="M21.77,31a.57.57,0,0,1,.69-.44l4.78,1.05a1.89,1.89,0,1,1-.2,1.06l-4.33-1L21.24,38a13.52,13.52,0,0,1,7.85,2.59,3.09,3.09,0,0,1,.39-.33,2.79,2.79,0,0,1,3.88.67l.15.26a2.89,2.89,0,0,1-1.3,3.86,6.74,6.74,0,0,1-2.89,6.3A14.33,14.33,0,0,1,20.8,54a14.31,14.31,0,0,1-8.52-2.57,6.72,6.72,0,0,1-2.89-6.3l-.26-.15a2.87,2.87,0,0,1-.89-4,3,3,0,0,1,.32-.39,2.79,2.79,0,0,1,3.94,0A13.65,13.65,0,0,1,20.14,38Zm1.58,13.47a1.91,1.91,0,1,0,1.91-1.91,1.9,1.9,0,0,0-1.91,1.91Zm2.27,5.27a.44.44,0,0,0,0-.62.46.46,0,0,0-.45-.09,7.43,7.43,0,0,1-8.71,0,.44.44,0,0,0-.56.27.44.44,0,0,0,.09.44A8.18,8.18,0,0,0,25.62,49.75ZM14.43,44.48a1.91,1.91,0,1,0,1.91-1.91,1.9,1.9,0,0,0-1.91,1.91Z"/><path class="stcls-7" d="M81.57,13a10.27,10.27,0,0,1-3,.81,5.15,5.15,0,0,0,2.28-2.86,10.38,10.38,0,0,1-3.29,1.25,5.19,5.19,0,0,0-9,3.55,5.76,5.76,0,0,0,.13,1.18,14.72,14.72,0,0,1-10.67-5.41,5.09,5.09,0,0,0-.71,2.6,5.18,5.18,0,0,0,2.31,4.31,5.07,5.07,0,0,1-2.35-.65v.07a5.19,5.19,0,0,0,4.16,5.08,5.29,5.29,0,0,1-2.34.09A5.18,5.18,0,0,0,64,26.59a10.42,10.42,0,0,1-6.44,2.22,9.9,9.9,0,0,1-1.23-.08A14.73,14.73,0,0,0,79,16.32c0-.23,0-.45,0-.67A10.44,10.44,0,0,0,81.57,13Z"/></svg>